<svg xmlns="http://www.w3.org/2000/svg" width="512.232" height="218.608" viewBox="0 0 512.232 218.608">
  <g id="グループ_595" data-name="グループ 595" transform="translate(-11073.41 -20400.609) rotate(180)">
    <g id="グループ_578" data-name="グループ 578" transform="translate(-11073.41 -20462.273) rotate(180)">
      <path id="パス_1335" data-name="パス 1335" d="M105.156,101.836h-6.1L0,0H6.092Z" fill="#eb179e"/>
      <path id="パス_1336" data-name="パス 1336" d="M105.157,101.836h-6.1L0,0H6.092Z" transform="translate(12.909)" fill="#eb179e"/>
      <path id="パス_1337" data-name="パス 1337" d="M105.156,101.836h-6.1L0,0H6.091Z" transform="translate(25.818)" fill="#eb179e"/>
      <path id="パス_1338" data-name="パス 1338" d="M105.156,101.836h-6.1L0,0H6.092Z" transform="translate(38.727)" fill="#eb179e"/>
      <path id="パス_1339" data-name="パス 1339" d="M105.157,101.836h-6.1L0,0H6.092Z" transform="translate(51.635)" fill="#eb179e"/>
      <path id="パス_1340" data-name="パス 1340" d="M105.157,101.836h-6.1L0,0H6.092Z" transform="translate(64.544)" fill="#eb179e"/>
      <path id="パス_1341" data-name="パス 1341" d="M105.156,101.836h-6.1L0,0H6.092Z" transform="translate(77.453)" fill="#eb179e"/>
      <path id="パス_1342" data-name="パス 1342" d="M105.156,101.836h-6.1L0,0H6.092Z" transform="translate(90.362)" fill="#eb179e"/>
      <path id="パス_1343" data-name="パス 1343" d="M105.157,101.836h-6.1L0,0H6.092Z" transform="translate(103.271)" fill="#eb179e"/>
      <path id="パス_1344" data-name="パス 1344" d="M105.156,101.836h-6.1L0,0H6.091Z" transform="translate(116.18)" fill="#eb179e"/>
      <path id="パス_1345" data-name="パス 1345" d="M105.156,101.836h-6.1L0,0H6.092Z" transform="translate(129.089)" fill="#eb179e"/>
      <path id="パス_1346" data-name="パス 1346" d="M105.156,101.836h-6.1L0,0H6.092Z" transform="translate(141.997)" fill="#eb179e"/>
      <path id="パス_1347" data-name="パス 1347" d="M105.157,101.836h-6.1L0,0H6.092Z" transform="translate(154.906)" fill="#eb179e"/>
      <path id="パス_1348" data-name="パス 1348" d="M105.156,101.836h-6.1L0,0H6.091Z" transform="translate(167.815)" fill="#eb179e"/>
      <path id="パス_1349" data-name="パス 1349" d="M105.156,101.836h-6.1L0,0H6.092Z" transform="translate(180.724)" fill="#eb179e"/>
      <path id="パス_1350" data-name="パス 1350" d="M105.157,101.836h-6.1L0,0H6.092Z" transform="translate(193.633)" fill="#eb179e"/>
      <path id="パス_1351" data-name="パス 1351" d="M105.156,101.836h-6.1L0,0H6.091Z" transform="translate(206.542)" fill="#eb179e"/>
      <path id="パス_1352" data-name="パス 1352" d="M105.156,101.836h-6.1L0,0H6.092Z" transform="translate(219.451)" fill="#eb179e"/>
      <path id="パス_1353" data-name="パス 1353" d="M105.156,101.836h-6.1L0,0H6.092Z" transform="translate(232.359)" fill="#eb179e"/>
      <path id="パス_1354" data-name="パス 1354" d="M105.157,101.836h-6.1L0,0H6.092Z" transform="translate(245.268)" fill="#eb179e"/>
    </g>
    <g id="グループ_579" data-name="グループ 579" transform="translate(-11231.531 -20513.188) rotate(180)">
      <path id="パス_1355" data-name="パス 1355" d="M105.156,101.845h-6.1L0,0H6.091Z" fill="#3ade79"/>
      <path id="パス_1356" data-name="パス 1356" d="M105.156,101.845h-6.1L0,0H6.092Z" transform="translate(12.909)" fill="#3ade79"/>
      <path id="パス_1357" data-name="パス 1357" d="M105.156,101.845h-6.1L0,0H6.092Z" transform="translate(25.817)" fill="#3ade79"/>
      <path id="パス_1358" data-name="パス 1358" d="M105.157,101.845h-6.1L0,0H6.092Z" transform="translate(38.726)" fill="#3ade79"/>
      <path id="パス_1359" data-name="パス 1359" d="M105.156,101.845h-6.1L0,0H6.091Z" transform="translate(51.635)" fill="#3ade79"/>
      <path id="パス_1360" data-name="パス 1360" d="M105.156,101.845h-6.1L0,0H6.092Z" transform="translate(64.544)" fill="#3ade79"/>
      <path id="パス_1361" data-name="パス 1361" d="M105.157,101.845h-6.1L0,0H6.092Z" transform="translate(77.453)" fill="#3ade79"/>
      <path id="パス_1362" data-name="パス 1362" d="M105.156,101.845h-6.1L0,0H6.091Z" transform="translate(90.362)" fill="#3ade79"/>
      <path id="パス_1363" data-name="パス 1363" d="M105.156,101.845h-6.1L0,0H6.092Z" transform="translate(103.271)" fill="#3ade79"/>
      <path id="パス_1364" data-name="パス 1364" d="M105.156,101.845h-6.1L0,0H6.092Z" transform="translate(116.179)" fill="#3ade79"/>
      <path id="パス_1365" data-name="パス 1365" d="M105.157,101.845h-6.1L0,0H6.092Z" transform="translate(129.088)" fill="#3ade79"/>
      <path id="パス_1366" data-name="パス 1366" d="M105.156,101.845h-6.1L0,0H6.091Z" transform="translate(141.997)" fill="#3ade79"/>
      <path id="パス_1367" data-name="パス 1367" d="M105.156,101.845h-6.1L0,0H6.092Z" transform="translate(154.906)" fill="#3ade79"/>
      <path id="パス_1368" data-name="パス 1368" d="M105.157,101.845h-6.1L0,0H6.092Z" transform="translate(167.815)" fill="#3ade79"/>
      <path id="パス_1369" data-name="パス 1369" d="M105.157,101.845h-6.1L0,0H6.092Z" transform="translate(180.723)" fill="#3ade79"/>
      <path id="パス_1370" data-name="パス 1370" d="M105.156,101.845h-6.1L0,0H6.092Z" transform="translate(193.633)" fill="#3ade79"/>
      <path id="パス_1371" data-name="パス 1371" d="M105.156,101.845h-6.1L0,0H6.092Z" transform="translate(206.541)" fill="#3ade79"/>
      <path id="パス_1372" data-name="パス 1372" d="M105.157,101.845h-6.1L0,0H6.092Z" transform="translate(219.45)" fill="#3ade79"/>
      <path id="パス_1373" data-name="パス 1373" d="M105.156,101.845h-6.1L0,0H6.091Z" transform="translate(232.359)" fill="#3ade79"/>
      <path id="パス_1374" data-name="パス 1374" d="M105.156,101.845h-6.1L0,0H6.092Z" transform="translate(245.268)" fill="#3ade79"/>
    </g>
    <path id="パス_1398" data-name="パス 1398" d="M94.444,94.444H0V0Z" transform="translate(-11201.401 -20400.609) rotate(180)" fill="#3ade79"/>
    <g id="グループ_583" data-name="グループ 583" transform="translate(-11248.622 -20370.891) rotate(180)">
      <rect id="長方形_1532" data-name="長方形 1532" width="67.205" height="25.468" transform="translate(212.504 99.038)" fill="#db08ea"/>
      <path id="パス_1417" data-name="パス 1417" d="M0,0H124.516V124.529Z" transform="translate(212.504 123.798)" fill="#804bee"/>
      <path id="パス_1418" data-name="パス 1418" d="M0,0H62.256V62.273Z" transform="translate(274.764 123.798)" fill="#231f20"/>
      <path id="パス_1419" data-name="パス 1419" d="M0,0H124.516V124.529Z" transform="translate(0 123.798)" fill="#f1bc66"/>
    </g>
  </g>
</svg>
