<svg xmlns="http://www.w3.org/2000/svg" width="215.009" height="53.707" viewBox="0 0 215.009 53.707">
  <g id="グループ_592" data-name="グループ 592" transform="translate(-366.571 15.172)">
    <g id="グループ_589" data-name="グループ 589" transform="translate(366.571 -15.172)">
      <path id="パス_1434" data-name="パス 1434" d="M165.6,15.451h-8.2c-10.614,0-19.249,7.511-19.249,18.126v2.884H149.3V33.577c0-4.469,3.636-6.981,8.1-6.981h8.2A5.5,5.5,0,0,1,171.1,32.09c0,1.2-1.318,3.078-3.355,3.941a5.466,5.466,0,0,1-2.139.43,16.643,16.643,0,0,1,12.433,5.571c2.658-2.985,4.206-5.768,4.206-9.942A16.658,16.658,0,0,0,165.6,15.451Z" transform="translate(-138.152 -15.451)" fill="#e4006e"/>
      <path id="パス_1435" data-name="パス 1435" d="M172.081,70.373a16.556,16.556,0,0,1-6.479,1.31,5.458,5.458,0,0,1,2.137.43c2.039.862,3.357,2.269,3.357,4.483A5.5,5.5,0,0,1,165.6,82.09h-8.2c-4.468,0-8.1-3.054-8.1-7.523V71.683H138.152v2.883c0,10.614,8.635,18.669,19.249,18.669h8.2A16.658,16.658,0,0,0,182.242,76.6a15.17,15.17,0,0,0-4.206-10.486A16.64,16.64,0,0,1,172.081,70.373Z" transform="translate(-138.152 -39.529)" fill="#019ce1"/>
      <path id="パス_1436" data-name="パス 1436" d="M172.082,56.8a16.532,16.532,0,0,0-6.48-1.31h-27.45V66.637H165.6a16.639,16.639,0,0,0,12.433-5.573A16.629,16.629,0,0,0,172.082,56.8Z" transform="translate(-138.152 -34.482)" fill="#2f418e"/>
    </g>
    <g id="グループ_590" data-name="グループ 590" transform="translate(536.317 -15.172)">
      <path id="パス_1437" data-name="パス 1437" d="M451.32,155.893a5.572,5.572,0,0,1,5.572-5.572h5.546v-15.5a5.572,5.572,0,0,0-11.145,0v42.428a5.572,5.572,0,0,0,11.145,0V161.466h-5.546A5.572,5.572,0,0,1,451.32,155.893Z" transform="translate(-451.294 -129.251)" fill="#e4006e"/>
      <path id="パス_1438" data-name="パス 1438" d="M503.536,152.737c1.6-2.879,7.405-14.273,7.651-14.758a5.572,5.572,0,0,0-9.931-5.059c-.06.116-5.962,11.7-7.463,14.4-.634,1.14-3.246,3.294-8.6,3.294,7.34,0,12.6,2.465,15.785,5.416A14.576,14.576,0,0,0,503.536,152.737Z" transform="translate(-467.406 -129.549)" fill="#e4006e"/>
      <path id="パス_1439" data-name="パス 1439" d="M503.439,182.7a13.775,13.775,0,0,0-2.46-2.969c-3.2,3.131-8.452,5.729-15.785,5.729,5.658,0,8.2,2.156,8.694,2.985,1.221,2.03,6.391,11.759,8.279,15.337a5.573,5.573,0,0,0,9.857-5.2C511.313,197.229,505.042,185.361,503.439,182.7Z" transform="translate(-467.406 -153.242)" fill="#019ce1"/>
      <path id="パス_1440" data-name="パス 1440" d="M469.106,169.4H456.916a5.573,5.573,0,0,0,0,11.145h12.189c7.333,0,12.584-2.6,15.785-5.729C481.7,171.87,476.446,169.4,469.106,169.4Z" transform="translate(-451.318 -148.336)" fill="#2f418e"/>
    </g>
    <g id="グループ_591" data-name="グループ 591" transform="translate(415.66 -15.172)">
      <path id="パス_1441" data-name="パス 1441" d="M412.83,293.782a5.572,5.572,0,0,1-5.572-5.572,15.647,15.647,0,0,1-31.294,0,5.573,5.573,0,0,1-11.145,0,26.792,26.792,0,1,0,53.584,0A5.572,5.572,0,0,1,412.83,293.782Z" transform="translate(-364.818 -261.418)" fill="#019ce1"/>
      <path id="パス_1442" data-name="パス 1442" d="M391.61,237.15a26.823,26.823,0,0,0-26.792,26.792,5.573,5.573,0,0,1,11.145,0,15.647,15.647,0,0,1,31.294,0,5.572,5.572,0,0,1,11.145,0A26.822,26.822,0,0,0,391.61,237.15Z" transform="translate(-364.818 -237.15)" fill="#e4006e"/>
      <ellipse id="楕円形_222" data-name="楕円形 222" cx="5.573" cy="5.573" rx="5.573" ry="5.573" transform="translate(40.695 23.863) rotate(-23.183)" fill="#2f418e"/>
      <ellipse id="楕円形_223" data-name="楕円形 223" cx="5.573" cy="5.573" rx="5.573" ry="5.573" transform="translate(0 21.219)" fill="#2f418e"/>
    </g>
    <g id="グループ_594" data-name="グループ 594" transform="translate(475.988 -15.172)">
      <path id="パス_1441-2" data-name="パス 1441" d="M412.83,293.782a5.572,5.572,0,0,1-5.572-5.572,15.647,15.647,0,0,1-31.294,0,5.573,5.573,0,0,1-11.145,0,26.792,26.792,0,1,0,53.584,0A5.572,5.572,0,0,1,412.83,293.782Z" transform="translate(-364.818 -261.418)" fill="#ef8200"/>
      <path id="パス_1442-2" data-name="パス 1442" d="M391.61,237.15a26.823,26.823,0,0,0-26.792,26.792,5.573,5.573,0,0,1,11.145,0,15.647,15.647,0,0,1,31.294,0,5.572,5.572,0,0,1,11.145,0A26.822,26.822,0,0,0,391.61,237.15Z" transform="translate(-364.818 -237.15)" fill="#e4006e"/>
      <ellipse id="楕円形_222-2" data-name="楕円形 222" cx="5.573" cy="5.573" rx="5.573" ry="5.573" transform="translate(40.695 23.863) rotate(-23.183)" fill="#2f418e"/>
      <ellipse id="楕円形_223-2" data-name="楕円形 223" cx="5.573" cy="5.573" rx="5.573" ry="5.573" transform="translate(0 21.219)" fill="#2f418e"/>
    </g>
  </g>
</svg>
