<svg xmlns="http://www.w3.org/2000/svg" width="445.798" height="116.736" viewBox="0 0 445.798 116.736">
  <defs>
    <style>
      .cls-1 {
        fill: #019ce1;
      }

      .cls-2 {
        fill: #e4006e;
      }

      .cls-3 {
        fill: #2f418e;
      }

      .cls-4 {
        fill: #e3006d;
      }

      .cls-5 {
        fill: #ef8200;
      }

      .cls-6 {
        fill: #fff;
        font-size: 36px;
        font-family: Poppins-Bold, Poppins;
        font-weight: 700;
        letter-spacing: 0.2em;
      }
    </style>
  </defs>
  <g id="グループ_789" data-name="グループ 789" transform="translate(509.133 -120.621)">
    <g id="グループ_520" data-name="グループ 520" transform="translate(-509.133 122.572)">
      <path id="パス_476" data-name="パス 476" class="cls-1" d="M266.42,26.185A14.976,14.976,0,0,1,277.08,30.6a5.369,5.369,0,0,0,7.593-7.592A25.814,25.814,0,0,0,240.607,41.26a5.369,5.369,0,0,1,10.738,0A15.074,15.074,0,0,1,266.42,26.185Z" transform="translate(-240.607 -15.447)"/>
      <path id="パス_477" data-name="パス 477" class="cls-2" d="M245.976,71.876a5.369,5.369,0,0,1-5.369-5.369,25.813,25.813,0,0,0,44.067,18.252,5.369,5.369,0,1,0-7.593-7.592,15.075,15.075,0,0,1-25.735-10.659A5.369,5.369,0,0,1,245.976,71.876Z" transform="translate(-240.607 -40.694)"/>
      <ellipse id="楕円形_198" data-name="楕円形 198" class="cls-3" cx="5.369" cy="5.369" rx="5.369" ry="5.369" transform="translate(0 20.444)"/>
    </g>
    <g id="グループ_521" data-name="グループ 521" transform="translate(-166.04 122.573)">
      <path id="パス_478" data-name="パス 478" class="cls-2" d="M375.283,408.917a5.369,5.369,0,0,0,10.738,0V373.5H375.283Z" transform="translate(-359.168 -362.764)"/>
      <path id="パス_479" data-name="パス 479" class="cls-1" d="M364.89,352.262H348.775a5.369,5.369,0,1,0,0,10.738h10.746v-5.369A5.368,5.368,0,0,1,364.89,352.262Z" transform="translate(-343.406 -352.262)"/>
      <path id="パス_480" data-name="パス 480" class="cls-1" d="M402.018,352.262H385.9a5.368,5.368,0,0,1,5.369,5.369V363h10.745a5.369,5.369,0,1,0,0-10.738Z" transform="translate(-364.419 -352.262)"/>
      <path id="パス_481" data-name="パス 481" class="cls-3" d="M380.652,352.262a5.368,5.368,0,0,0-5.369,5.369V363h10.738v-5.369A5.368,5.368,0,0,0,380.652,352.262Z" transform="translate(-359.168 -352.262)"/>
    </g>
    <g id="グループ_531" data-name="グループ 531" transform="translate(-307.136 185.379)">
      <path id="パス_478-2" data-name="パス 478" class="cls-2" d="M375.283,408.083a5.243,5.243,0,0,0,10.486,0V373.5H375.283Z" transform="translate(-359.547 -363.017)"/>
      <path id="パス_479-2" data-name="パス 479" class="cls-1" d="M364.385,352.262H348.649a5.242,5.242,0,1,0,0,10.485h10.493V357.5A5.242,5.242,0,0,1,364.385,352.262Z" transform="translate(-343.406 -352.262)"/>
      <path id="パス_480-2" data-name="パス 480" class="cls-1" d="M401.639,352.262H385.9a5.242,5.242,0,0,1,5.243,5.242v5.242h10.492a5.242,5.242,0,1,0,0-10.485Z" transform="translate(-364.924 -352.262)"/>
      <path id="パス_481-2" data-name="パス 481" class="cls-3" d="M380.526,352.262a5.242,5.242,0,0,0-5.243,5.242v5.242h10.486V357.5A5.242,5.242,0,0,0,380.526,352.262Z" transform="translate(-359.547 -352.262)"/>
    </g>
    <g id="グループ_522" data-name="グループ 522" transform="translate(-492.491 184.573)">
      <path id="パス_482" data-name="パス 482" class="cls-2" d="M43.1,256.728a5.242,5.242,0,0,1,5.242,5.242V242.392a5.242,5.242,0,0,0-10.485,0V261.97A5.242,5.242,0,0,1,43.1,256.728Z" transform="translate(-37.862 -237.15)"/>
      <path id="パス_483" data-name="パス 483" class="cls-1" d="M69.973,302.434h-14a7.632,7.632,0,0,1-7.623-7.624v-7.378a5.242,5.242,0,0,1-10.485,0v7.378A18.128,18.128,0,0,0,55.97,312.918h14a5.242,5.242,0,0,0,0-10.485Z" transform="translate(-37.862 -262.612)"/>
      <ellipse id="楕円形_199" data-name="楕円形 199" class="cls-3" cx="5.242" cy="5.242" rx="5.242" ry="5.242" transform="translate(0 19.578)"/>
    </g>
    <g id="グループ_778" data-name="グループ 778" transform="translate(-450.491 184.573)">
      <path id="パス_482-2" data-name="パス 482" class="cls-2" d="M43.1,256.728a5.242,5.242,0,0,1,5.242,5.242V242.392a5.242,5.242,0,0,0-10.485,0V261.97A5.242,5.242,0,0,1,43.1,256.728Z" transform="translate(-37.862 -237.15)"/>
      <path id="パス_483-2" data-name="パス 483" class="cls-1" d="M69.973,302.434h-14a7.632,7.632,0,0,1-7.623-7.624v-7.378a5.242,5.242,0,0,1-10.485,0v7.378A18.128,18.128,0,0,0,55.97,312.918h14a5.242,5.242,0,0,0,0-10.485Z" transform="translate(-37.862 -262.612)"/>
      <ellipse id="楕円形_199-2" data-name="楕円形 199" class="cls-3" cx="5.242" cy="5.242" rx="5.242" ry="5.242" transform="translate(0 19.578)"/>
    </g>
    <g id="グループ_523" data-name="グループ 523" transform="translate(-400.668 122.572)">
      <path id="パス_484" data-name="パス 484" class="cls-2" d="M140.442,237.15A18.567,18.567,0,0,0,121.9,255.7V283.3a5.369,5.369,0,0,0,10.738,0V255.7a7.808,7.808,0,1,1,15.615,0,18.484,18.484,0,0,1,5.369-13.032A18.486,18.486,0,0,0,140.442,237.15Z" transform="translate(-121.896 -237.15)"/>
      <path id="パス_485" data-name="パス 485" class="cls-1" d="M197.823,237.15a18.486,18.486,0,0,0-13.178,5.514,18.482,18.482,0,0,1,5.369,13.032,7.808,7.808,0,1,1,15.615,0V283.3a5.369,5.369,0,0,0,10.738,0V255.7A18.566,18.566,0,0,0,197.823,237.15Z" transform="translate(-152.922 -237.15)"/>
      <path id="パス_486" data-name="パス 486" class="cls-3" d="M174.025,261.089V288.7a5.369,5.369,0,0,0,10.738,0V261.089a18.482,18.482,0,0,0-5.369-13.032A18.484,18.484,0,0,0,174.025,261.089Z" transform="translate(-147.671 -242.543)"/>
    </g>
    <g id="グループ_777" data-name="グループ 777" transform="translate(-332.465 122.572)">
      <path id="パス_484-2" data-name="パス 484" class="cls-2" d="M140.442,237.15A18.567,18.567,0,0,0,121.9,255.7V283.3a5.369,5.369,0,0,0,10.738,0V255.7a7.808,7.808,0,1,1,15.615,0,18.484,18.484,0,0,1,5.369-13.032A18.486,18.486,0,0,0,140.442,237.15Z" transform="translate(-121.896 -237.15)"/>
      <path id="パス_485-2" data-name="パス 485" class="cls-1" d="M197.823,237.15a18.486,18.486,0,0,0-13.178,5.514,18.482,18.482,0,0,1,5.369,13.032,7.808,7.808,0,1,1,15.615,0V283.3a5.369,5.369,0,0,0,10.738,0V255.7A18.566,18.566,0,0,0,197.823,237.15Z" transform="translate(-152.922 -237.15)"/>
      <path id="パス_486-2" data-name="パス 486" class="cls-3" d="M174.025,261.089V288.7a5.369,5.369,0,0,0,10.738,0V261.089a18.482,18.482,0,0,0-5.369-13.032A18.484,18.484,0,0,0,174.025,261.089Z" transform="translate(-147.671 -242.543)"/>
    </g>
    <g id="グループ_524" data-name="グループ 524" transform="translate(-458.734 122.572)">
      <path id="パス_487" data-name="パス 487" class="cls-1" d="M411.076,293.579a5.368,5.368,0,0,1-5.369-5.369,15.076,15.076,0,0,1-30.151,0,5.369,5.369,0,0,1-10.738,0,25.814,25.814,0,0,0,51.627,0A5.368,5.368,0,0,1,411.076,293.579Z" transform="translate(-364.818 -262.397)"/>
      <path id="パス_488" data-name="パス 488" class="cls-2" d="M390.632,237.15a25.843,25.843,0,0,0-25.814,25.813,5.369,5.369,0,0,1,10.738,0,15.076,15.076,0,0,1,30.151,0,5.369,5.369,0,0,1,10.738,0A25.843,25.843,0,0,0,390.632,237.15Z" transform="translate(-364.818 -237.15)"/>
      <ellipse id="楕円形_200" data-name="楕円形 200" class="cls-3" cx="5.369" cy="5.369" rx="5.369" ry="5.369" transform="translate(39.209 22.991) rotate(-23.183)"/>
      <ellipse id="楕円形_201" data-name="楕円形 201" class="cls-3" cx="5.369" cy="5.369" rx="5.369" ry="5.369" transform="translate(0 20.444)"/>
    </g>
    <g id="グループ_516" data-name="グループ 516" transform="translate(-264.259 121.65)">
      <path id="パス_455" data-name="パス 455" class="cls-1" d="M452.2,65.406a5.653,5.653,0,0,1-5.633-5.673v7.959a19.548,19.548,0,0,0,19.458,19.594H483.9a5.673,5.673,0,0,0,0-11.345H466.027a8.23,8.23,0,0,1-8.192-8.249V65.406h23.271a5.673,5.673,0,0,0,0-11.345H457.835v5.673A5.653,5.653,0,0,1,452.2,65.406Z" transform="translate(-446.569 -33.58)"/>
      <path id="パス_456" data-name="パス 456" class="cls-4" d="M466.027,26.792H483.9a5.673,5.673,0,0,0,0-11.345H466.027a19.548,19.548,0,0,0-19.458,19.595V41.6a5.653,5.653,0,0,1,5.633-5.673h5.633v-.886A8.23,8.23,0,0,1,466.027,26.792Z" transform="translate(-446.569 -15.447)"/>
      <path id="パス_457" data-name="パス 457" class="cls-3" d="M446.569,59.734a5.633,5.633,0,1,0,11.266,0V54.061H452.2A5.653,5.653,0,0,0,446.569,59.734Z" transform="translate(-446.569 -33.58)"/>
    </g>
    <g id="グループ_517" data-name="グループ 517" transform="translate(-216.538 121.65)">
      <path id="パス_468" data-name="パス 468" class="cls-2" d="M310.365,237.15a5.586,5.586,0,0,1,0,11.173,11.71,11.71,0,0,1,11.7,11.7v25.25a5.586,5.586,0,1,0,11.173,0V260.02A22.9,22.9,0,0,0,310.365,237.15Z" transform="translate(-287.495 -237.15)"/>
      <path id="パス_469" data-name="パス 469" class="cls-5" d="M284.171,242.736a5.586,5.586,0,0,1,5.587-5.586,22.9,22.9,0,0,0-22.87,22.87v25.25a5.586,5.586,0,1,0,11.173,0V260.02a11.71,11.71,0,0,1,11.7-11.7A5.586,5.586,0,0,1,284.171,242.736Z" transform="translate(-266.888 -237.15)"/>
      <ellipse id="楕円形_197" data-name="楕円形 197" class="cls-3" cx="5.587" cy="5.587" rx="5.587" ry="5.587" transform="translate(17.283 0)"/>
    </g>
    <g id="グループ_527" data-name="グループ 527" transform="translate(-359.265 184.573)">
      <path id="パス_460" data-name="パス 460" class="cls-2" d="M260.152,378.653a5.5,5.5,0,0,1,5.5-5.5H260.87a4.945,4.945,0,0,1,0-9.89h21.968a5.5,5.5,0,0,0,0-11H260.87a15.946,15.946,0,0,0,0,31.892h4.783A5.5,5.5,0,0,1,260.152,378.653Z" transform="translate(-244.924 -352.262)"/>
      <path id="パス_461" data-name="パス 461" class="cls-1" d="M277.8,392.6h-4.572a5.5,5.5,0,0,1,0,11H277.8a4.945,4.945,0,1,1,0,9.89H253.2a5.5,5.5,0,0,0,0,11h24.6a15.946,15.946,0,1,0,0-31.892Z" transform="translate(-246.262 -371.707)"/>
      <path id="パス_462" data-name="パス 462" class="cls-3" d="M291.564,398.1a5.5,5.5,0,0,0-5.5-5.5h-6.236a5.5,5.5,0,0,0,0,11h6.236A5.5,5.5,0,0,0,291.564,398.1Z" transform="translate(-259.099 -371.707)"/>
    </g>
    <g id="グループ_526" data-name="グループ 526" transform="translate(-509.132 184.573)">
      <path id="パス_466" data-name="パス 466" class="cls-1" d="M346.738,129.251a5.455,5.455,0,0,0-5.455,5.455v20.373a5.455,5.455,0,1,1,10.91,0V134.706A5.454,5.454,0,0,0,346.738,129.251Z" transform="translate(-340.74 -129.251)"/>
      <path id="パス_467" data-name="パス 467" class="cls-2" d="M346.738,184.989a5.455,5.455,0,0,1-5.455-5.455V200.6a5.455,5.455,0,1,0,10.91,0V179.534A5.454,5.454,0,0,1,346.738,184.989Z" transform="translate(-340.74 -153.706)"/>
      <ellipse id="楕円形_196" data-name="楕円形 196" class="cls-3" cx="5.455" cy="5.455" rx="5.455" ry="5.455" transform="translate(0 30.68) rotate(-83.975)"/>
    </g>
    <g id="グループ_530" data-name="グループ 530" transform="translate(-408.491 184.573)">
      <path id="パス_489" data-name="パス 489" class="cls-5" d="M456.512,399.164a5.444,5.444,0,0,1,5.445-5.445,11.413,11.413,0,0,1-11.4-11.4V357.707a5.445,5.445,0,1,0-10.889,0v24.611a22.316,22.316,0,0,0,22.289,22.291A5.444,5.444,0,0,1,456.512,399.164Z" transform="translate(-439.667 -352.262)"/>
      <path id="パス_490" data-name="パス 490" class="cls-2" d="M499.988,352.262a5.444,5.444,0,0,0-5.445,5.445v24.611a11.413,11.413,0,0,1-11.4,11.4,5.445,5.445,0,0,1,0,10.89,22.316,22.316,0,0,0,22.29-22.291V357.707A5.444,5.444,0,0,0,499.988,352.262Z" transform="translate(-460.854 -352.262)"/>
      <ellipse id="楕円形_202" data-name="楕円形 202" class="cls-3" cx="5.445" cy="5.445" rx="5.445" ry="5.445" transform="translate(16.845 41.456)"/>
    </g>
    <ellipse id="楕円形_203" data-name="楕円形 203" class="cls-2" cx="27.368" cy="27.368" rx="27.368" ry="27.368" transform="translate(-118.071 120.621)"/>
    <text id="_" data-name="&amp;" class="cls-6" transform="translate(-90.703 159.65)"><tspan x="-14.364" y="0">&amp;</tspan></text>
  </g>
</svg>
