<?xml version="1.0" encoding="utf-8"?>
<!-- Generator: Adobe Illustrator 26.5.0, SVG Export Plug-In . SVG Version: 6.00 Build 0)  -->
<svg version="1.1" id="レイヤー_1" xmlns="http://www.w3.org/2000/svg" xmlns:xlink="http://www.w3.org/1999/xlink" x="0px"
	 y="0px" viewBox="0 0 1141.8 1105.5" style="enable-background:new 0 0 1141.8 1105.5;" xml:space="preserve">
<style type="text/css">
	.st0{fill:#1084E4;}
	.st1{fill:#FF6815;}
	.st2{fill:#641B0B;}
	.st3{fill:#8018E9;}
	.st4{fill:#EB179E;}
	.st5{fill:#3ADE79;}
	.st6{fill:#4EA4EB;}
	.st7{fill:#231F20;}
	.st8{fill:#FE676F;}
	.st9{fill:#FF6613;}
	.st10{fill:#30DC73;}
	.st11{fill:#E8E8E8;}
	.st12{fill:#FF8949;}
	.st13{fill:#EF8200;}
</style>
<g id="グループ_853" transform="translate(1195.775 -113.176) rotate(90)">
	
		<rect id="長方形_1505" x="547.9" y="820.5" transform="matrix(2.535182e-06 1 -1 2.535182e-06 1557.2098 270.2292)" class="st0" width="191.3" height="186.5"/>
	
		<rect id="長方形_1506" x="719.4" y="847.2" transform="matrix(2.535182e-06 1 -1 2.535182e-06 1728.7949 98.6437)" class="st1" width="191.3" height="133"/>
	
		<rect id="長方形_1507" x="798.2" y="768.5" transform="matrix(2.535182e-06 1 -1 2.535182e-06 1650.0835 19.9324)" class="st2" width="33.8" height="133"/>
	<path id="パス_1313" class="st3" d="M734.4,1009.4H547.9L151,593.8h186.5L734.4,1009.4z"/>
	<path id="パス_1314" class="st4" d="M879.2,817.3H670.6L453.2,593.8h208.6L879.2,817.3z"/>
	<g id="グループ_577" transform="translate(638.961 483.578)">
		<path id="パス_1315" class="st4" d="M109.6,106.1h-6.4L0,0h6.3L109.6,106.1z"/>
		<path id="パス_1316" class="st4" d="M123,106.1h-6.4L13.4,0h6.3L123,106.1z"/>
		<path id="パス_1317" class="st4" d="M136.4,106.1h-6.4L26.9,0h6.3L136.4,106.1z"/>
		<path id="パス_1318" class="st4" d="M149.9,106.1h-6.4L40.3,0h6.3L149.9,106.1z"/>
		<path id="パス_1319" class="st4" d="M163.3,106.1H157L53.8,0h6.3L163.3,106.1z"/>
		<path id="パス_1320" class="st4" d="M176.8,106.1h-6.4L67.2,0h6.3L176.8,106.1z"/>
		<path id="パス_1321" class="st4" d="M190.2,106.1h-6.4L80.7,0H87L190.2,106.1z"/>
		<path id="パス_1322" class="st4" d="M203.7,106.1h-6.4L94.1,0h6.3L203.7,106.1z"/>
		<path id="パス_1323" class="st4" d="M217.1,106.1h-6.4L107.6,0h6.3L217.1,106.1z"/>
		<path id="パス_1324" class="st4" d="M230.6,106.1h-6.4L121,0h6.3L230.6,106.1z"/>
		<path id="パス_1325" class="st4" d="M244,106.1h-6.4L134.5,0h6.3L244,106.1z"/>
		<path id="パス_1326" class="st4" d="M257.5,106.1h-6.4L147.9,0h6.3L257.5,106.1z"/>
		<path id="パス_1327" class="st4" d="M270.9,106.1h-6.4L161.4,0h6.3L270.9,106.1z"/>
		<path id="パス_1328" class="st4" d="M284.4,106.1H278L174.8,0h6.3L284.4,106.1z"/>
		<path id="パス_1329" class="st4" d="M297.8,106.1h-6.4L188.3,0h6.3L297.8,106.1z"/>
		<path id="パス_1330" class="st4" d="M311.3,106.1h-6.4L201.7,0h6.3L311.3,106.1z"/>
		<path id="パス_1331" class="st4" d="M324.7,106.1h-6.4L215.2,0h6.3L324.7,106.1z"/>
		<path id="パス_1332" class="st4" d="M338.2,106.1h-6.4L228.6,0h6.3L338.2,106.1z"/>
		<path id="パス_1333" class="st4" d="M351.6,106.1h-6.4L242.1,0h6.3L351.6,106.1z"/>
		<path id="パス_1334" class="st4" d="M365.1,106.1h-6.4L255.5,0h6.3L365.1,106.1z"/>
	</g>
	<g id="グループ_578" transform="translate(125.558 53.998)">
		<path id="パス_1335" class="st4" d="M109.6,106.1h-6.4L0,0h6.3L109.6,106.1z"/>
		<path id="パス_1336" class="st4" d="M123,106.1h-6.4L13.4,0h6.3L123,106.1z"/>
		<path id="パス_1337" class="st4" d="M136.4,106.1h-6.4L26.9,0h6.3L136.4,106.1z"/>
		<path id="パス_1338" class="st4" d="M149.9,106.1h-6.4L40.3,0h6.3L149.9,106.1z"/>
		<path id="パス_1339" class="st4" d="M163.3,106.1H157L53.8,0h6.3L163.3,106.1z"/>
		<path id="パス_1340" class="st4" d="M176.8,106.1h-6.4L67.2,0h6.3L176.8,106.1z"/>
		<path id="パス_1341" class="st4" d="M190.2,106.1h-6.4L80.7,0H87L190.2,106.1z"/>
		<path id="パス_1342" class="st4" d="M203.7,106.1h-6.4L94.1,0h6.3L203.7,106.1z"/>
		<path id="パス_1343" class="st4" d="M217.1,106.1h-6.4L107.6,0h6.3L217.1,106.1z"/>
		<path id="パス_1344" class="st4" d="M230.6,106.1h-6.4L121,0h6.3L230.6,106.1z"/>
		<path id="パス_1345" class="st4" d="M244,106.1h-6.4L134.5,0h6.3L244,106.1z"/>
		<path id="パス_1346" class="st4" d="M257.5,106.1h-6.4L147.9,0h6.3L257.5,106.1z"/>
		<path id="パス_1347" class="st4" d="M270.9,106.1h-6.4L161.4,0h6.3L270.9,106.1z"/>
		<path id="パス_1348" class="st4" d="M284.4,106.1H278L174.8,0h6.3L284.4,106.1z"/>
		<path id="パス_1349" class="st4" d="M297.8,106.1h-6.4L188.3,0h6.3L297.8,106.1z"/>
		<path id="パス_1350" class="st4" d="M311.3,106.1h-6.4L201.7,0h6.3L311.3,106.1z"/>
		<path id="パス_1351" class="st4" d="M324.7,106.1h-6.4L215.2,0h6.3L324.7,106.1z"/>
		<path id="パス_1352" class="st4" d="M338.2,106.1h-6.4L228.6,0h6.3L338.2,106.1z"/>
		<path id="パス_1353" class="st4" d="M351.6,106.1h-6.4L242.1,0h6.3L351.6,106.1z"/>
		<path id="パス_1354" class="st4" d="M365.1,106.1h-6.4L255.5,0h6.3L365.1,106.1z"/>
	</g>
	<g id="グループ_579" transform="translate(144.666 184.478)">
		<path id="パス_1355" class="st5" d="M109.6,106.1h-6.4L0,0h6.3L109.6,106.1z"/>
		<path id="パス_1356" class="st5" d="M123,106.1h-6.4L13.4,0h6.3L123,106.1z"/>
		<path id="パス_1357" class="st5" d="M136.4,106.1h-6.4L26.9,0h6.3L136.4,106.1z"/>
		<path id="パス_1358" class="st5" d="M149.9,106.1h-6.4L40.3,0h6.3L149.9,106.1z"/>
		<path id="パス_1359" class="st5" d="M163.3,106.1H157L53.8,0h6.3L163.3,106.1z"/>
		<path id="パス_1360" class="st5" d="M176.8,106.1h-6.4L67.2,0h6.3L176.8,106.1z"/>
		<path id="パス_1361" class="st5" d="M190.2,106.1h-6.4L80.7,0H87L190.2,106.1z"/>
		<path id="パス_1362" class="st5" d="M203.7,106.1h-6.4L94.1,0h6.3L203.7,106.1z"/>
		<path id="パス_1363" class="st5" d="M217.1,106.1h-6.4L107.6,0h6.3L217.1,106.1z"/>
		<path id="パス_1364" class="st5" d="M230.6,106.1h-6.4L121,0h6.3L230.6,106.1z"/>
		<path id="パス_1365" class="st5" d="M244,106.1h-6.4L134.5,0h6.4L244,106.1z"/>
		<path id="パス_1366" class="st5" d="M257.5,106.1h-6.4L147.9,0h6.3L257.5,106.1z"/>
		<path id="パス_1367" class="st5" d="M270.9,106.1h-6.4L161.4,0h6.3L270.9,106.1z"/>
		<path id="パス_1368" class="st5" d="M284.4,106.1H278L174.8,0h6.4L284.4,106.1z"/>
		<path id="パス_1369" class="st5" d="M297.8,106.1h-6.4L188.3,0h6.3L297.8,106.1z"/>
		<path id="パス_1370" class="st5" d="M311.3,106.1h-6.4L201.7,0h6.3L311.3,106.1z"/>
		<path id="パス_1371" class="st5" d="M324.7,106.1h-6.4L215.2,0h6.3L324.7,106.1z"/>
		<path id="パス_1372" class="st5" d="M338.2,106.1h-6.4L228.6,0h6.3L338.2,106.1z"/>
		<path id="パス_1373" class="st5" d="M351.6,106.1h-6.4L242.1,0h6.3L351.6,106.1z"/>
		<path id="パス_1374" class="st5" d="M365.1,106.1h-6.4L255.5,0h6.3L365.1,106.1z"/>
	</g>
	<g id="グループ_580" transform="translate(519.327 1018.799)">
		<path id="パス_1375" class="st2" d="M150.4,145.6h-8.7L0,0h8.7L150.4,145.6z"/>
		<path id="パス_1376" class="st2" d="M168.8,145.6h-8.7L18.5,0h8.7L168.8,145.6z"/>
		<path id="パス_1377" class="st2" d="M187.3,145.6h-8.7L36.9,0h8.7L187.3,145.6z"/>
		<path id="パス_1378" class="st2" d="M205.8,145.6H197L55.4,0h8.7L205.8,145.6z"/>
		<path id="パス_1379" class="st2" d="M224.2,145.6h-8.7L73.8,0h8.7L224.2,145.6z"/>
		<path id="パス_1380" class="st2" d="M242.7,145.6H234L92.3,0h8.7L242.7,145.6z"/>
		<path id="パス_1381" class="st2" d="M261.2,145.6h-8.7L110.8,0h8.7L261.2,145.6z"/>
		<path id="パス_1382" class="st2" d="M279.6,145.6h-8.7L129.2,0h8.7L279.6,145.6z"/>
		<path id="パス_1383" class="st2" d="M298.1,145.6h-8.7L147.7,0h8.7L298.1,145.6z"/>
		<path id="パス_1384" class="st2" d="M316.5,145.6h-8.7L166.2,0h8.7L316.5,145.6z"/>
		<path id="パス_1385" class="st2" d="M335,145.6h-8.7L184.6,0h8.7L335,145.6z"/>
		<path id="パス_1386" class="st2" d="M353.5,145.6h-8.7L203.1,0h8.7L353.5,145.6z"/>
		<path id="パス_1387" class="st2" d="M371.9,145.6h-8.7L221.5,0h8.7L371.9,145.6z"/>
		<path id="パス_1388" class="st2" d="M390.4,145.6h-8.7L240,0h8.7L390.4,145.6z"/>
		<path id="パス_1389" class="st2" d="M408.8,145.6h-8.7L258.5,0h8.7L408.8,145.6z"/>
		<path id="パス_1390" class="st2" d="M427.3,145.6h-8.7L276.9,0h8.7L427.3,145.6z"/>
		<path id="パス_1391" class="st2" d="M445.8,145.6H437L295.4,0h8.7L445.8,145.6z"/>
		<path id="パス_1392" class="st2" d="M464.2,145.6h-8.7L313.8,0h8.7L464.2,145.6z"/>
		<path id="パス_1393" class="st2" d="M482.7,145.6H474L332.3,0h8.7L482.7,145.6z"/>
		<path id="パス_1394" class="st2" d="M501.1,145.6h-8.7L350.8,0h8.7L501.1,145.6z"/>
	</g>
	
		<rect id="長方形_1508" x="374.2" y="524.1" transform="matrix(2.535182e-06 1 -1 2.535182e-06 1052.9719 219.5644)" class="st6" width="85" height="224.3"/>
	
		<rect id="長方形_1509" x="593.8" y="533.6" transform="matrix(2.535182e-06 1 -1 2.535182e-06 1272.5714 -3.559529e-02)" class="st5" width="85" height="205.4"/>
	
		<rect id="長方形_1510" x="680" y="619.7" transform="matrix(2.535182e-06 1 -1 2.535182e-06 1358.7587 -86.2231)" class="st2" width="85" height="33.1"/>
	
		<rect id="長方形_1512" x="1180.6" y="441.9" transform="matrix(2.535182e-06 1 -1 2.535182e-06 1657.8584 -741.0856)" class="st5" width="37.8" height="33.1"/>
	
		<rect id="長方形_1513" x="763.8" y="633.2" transform="matrix(2.535182e-06 1 -1 2.535182e-06 1442.5845 -170.0491)" class="st7" width="85" height="6.2"/>
	
		<rect id="長方形_1514" x="1005" y="633.2" transform="matrix(2.535182e-06 1 -1 2.535182e-06 1683.7363 -411.2016)" class="st7" width="85" height="6.2"/>
	
		<rect id="長方形_1516" x="1066.1" y="526.1" transform="matrix(2.535182e-06 1 -1 2.535182e-06 1744.8202 -472.2856)" class="st2" width="85" height="220.3"/>
	
		<rect id="長方形_1517" x="1005.3" y="586.9" transform="matrix(2.535182e-06 1 -1 2.535182e-06 1684.0863 -411.5516)" class="st8" width="85" height="98.8"/>
	
		<rect id="長方形_1519" x="1173.1" y="633.2" transform="matrix(2.535182e-06 1 -1 2.535182e-06 1851.8669 -579.3326)" class="st9" width="85" height="6.2"/>
	
		<rect id="長方形_1521" x="972.8" y="619.3" transform="matrix(2.535182e-06 1 -1 2.535182e-06 1651.6184 -379.0836)" class="st5" width="85" height="33.9"/>
	
		<rect id="長方形_1523" x="632.2" y="594.1" transform="matrix(2.535182e-06 1 -1 2.535182e-06 1260.6359 -38.4811)" class="st9" width="34.6" height="33.9"/>
	
		<rect id="長方形_1527" x="507.7" y="820.5" transform="matrix(2.535182e-06 1 -1 2.535182e-06 1517.068 310.3712)" class="st10" width="191.3" height="186.5"/>
	
		<rect id="長方形_1528" x="641.2" y="818.8" transform="matrix(2.535182e-06 1 -1 2.535182e-06 1515.4008 176.9104)" class="st8" width="56.1" height="54.7"/>
	<path id="パス_1395" class="st11" d="M528.9,596.1H113.3V180.5L528.9,596.1z"/>
	<path id="パス_1396" class="st12" d="M359.8,596.1H113.3V349.6L359.8,596.1z"/>
	<path id="パス_1397" class="st4" d="M307.4,596.1H113.3V402L307.4,596.1z"/>
	<path id="パス_1398" class="st5" d="M211.7,165.6h-98.4V67.2L211.7,165.6z"/>
	<path id="パス_1399" class="st13" d="M696.6,1011.7H510.1L113.2,596.1h186.5L696.6,1011.7z"/>
	<g id="グループ_581" transform="translate(224.074 678.017)">
		
			<rect id="長方形_1529" x="108.7" y="257.7" transform="matrix(2.535182e-06 1 -1 2.535182e-06 437.2347 180.8592)" class="st6" width="38.9" height="102.7"/>
		<path id="パス_1401" class="st4" d="M76.8,327.4h190.3v190.3L76.8,327.4z"/>
		<path id="パス_1403" class="st1" d="M693.7,0H774v80.3L693.7,0z"/>
		<path id="パス_1404" class="st10" d="M0,138.2h85.4l181.8,190.3h-85.4L0,138.2z"/>
	</g>
	<g id="グループ_582" transform="translate(311.376 96.755)">
		<path id="パス_1405" class="st3" d="M230.7,0h85.4l181.8,190.3h-85.4L230.7,0z"/>
		
			<rect id="長方形_1530" x="356.7" y="119.5" transform="matrix(2.535182e-06 1 -1 2.535182e-06 547.0131 -205.3184)" class="st6" width="38.9" height="102.7"/>
		<path id="パス_1406" class="st4" d="M324.8,189.2h190.3v190.3L324.8,189.2z"/>
		<path id="パス_1407" class="st8" d="M0,189.2h190.3v190.3L0,189.2z"/>
		<path id="パス_1411" class="st10" d="M248,0h85.4l181.8,190.3h-85.4L248,0z"/>
	</g>
</g>
</svg>
