<svg xmlns="http://www.w3.org/2000/svg" width="435.388" height="430.839" viewBox="0 0 435.388 430.839">
  <g id="グループ_618" data-name="グループ 618" transform="translate(-5.42 -6.351)">
    <g id="グループ_597" data-name="グループ 597" transform="translate(5.42 434.458)">
      <path id="パス_1443" data-name="パス 1443" d="M8.153,136.483a1.366,1.366,0,1,1-1.366-1.366A1.364,1.364,0,0,1,8.153,136.483Z" transform="translate(-5.42 -135.117)" fill="#3ade79"/>
      <path id="パス_1444" data-name="パス 1444" d="M15,136.483a1.366,1.366,0,1,1-1.366-1.366A1.368,1.368,0,0,1,15,136.483Z" transform="translate(10.504 -135.117)" fill="#3ade79"/>
      <path id="パス_1445" data-name="パス 1445" d="M21.849,136.483a1.365,1.365,0,1,1-1.366-1.366A1.364,1.364,0,0,1,21.849,136.483Z" transform="translate(26.426 -135.117)" fill="#3ade79"/>
      <path id="パス_1446" data-name="パス 1446" d="M28.7,136.483a1.365,1.365,0,1,1-1.366-1.366A1.366,1.366,0,0,1,28.7,136.483Z" transform="translate(42.35 -135.117)" fill="#3ade79"/>
      <path id="パス_1447" data-name="パス 1447" d="M35.553,136.483a1.368,1.368,0,1,1-1.366-1.366A1.366,1.366,0,0,1,35.553,136.483Z" transform="translate(58.269 -135.117)" fill="#3ade79"/>
      <path id="パス_1448" data-name="パス 1448" d="M42.4,136.483a1.365,1.365,0,1,1-1.363-1.366A1.364,1.364,0,0,1,42.4,136.483Z" transform="translate(74.194 -135.117)" fill="#3ade79"/>
      <path id="パス_1449" data-name="パス 1449" d="M49.25,136.483a1.366,1.366,0,1,1-1.366-1.366A1.371,1.371,0,0,1,49.25,136.483Z" transform="translate(90.118 -135.117)" fill="#3ade79"/>
      <path id="パス_1450" data-name="パス 1450" d="M56.1,136.483a1.366,1.366,0,1,1-1.37-1.366A1.369,1.369,0,0,1,56.1,136.483Z" transform="translate(106.039 -135.117)" fill="#3ade79"/>
      <path id="パス_1451" data-name="パス 1451" d="M62.947,136.483a1.366,1.366,0,1,1-1.366-1.366A1.364,1.364,0,0,1,62.947,136.483Z" transform="translate(121.959 -135.117)" fill="#3ade79"/>
      <path id="パス_1452" data-name="パス 1452" d="M69.8,136.483a1.366,1.366,0,1,1-1.366-1.366A1.364,1.364,0,0,1,69.8,136.483Z" transform="translate(137.881 -135.117)" fill="#3ade79"/>
      <path id="パス_1453" data-name="パス 1453" d="M76.645,136.483a1.366,1.366,0,1,1-1.366-1.366A1.364,1.364,0,0,1,76.645,136.483Z" transform="translate(153.802 -135.117)" fill="#3ade79"/>
      <path id="パス_1454" data-name="パス 1454" d="M83.495,136.483a1.366,1.366,0,1,1-1.366-1.366A1.366,1.366,0,0,1,83.495,136.483Z" transform="translate(169.727 -135.117)" fill="#3ade79"/>
      <path id="パス_1455" data-name="パス 1455" d="M90.346,136.483a1.368,1.368,0,1,1-1.366-1.366A1.364,1.364,0,0,1,90.346,136.483Z" transform="translate(185.646 -135.117)" fill="#3ade79"/>
      <path id="パス_1456" data-name="パス 1456" d="M97.192,136.483a1.366,1.366,0,1,1-1.366-1.366A1.364,1.364,0,0,1,97.192,136.483Z" transform="translate(201.568 -135.117)" fill="#3ade79"/>
      <path id="パス_1457" data-name="パス 1457" d="M104.038,136.483a1.365,1.365,0,1,1-1.363-1.366A1.361,1.361,0,0,1,104.038,136.483Z" transform="translate(217.489 -135.117)" fill="#3ade79"/>
      <path id="パス_1458" data-name="パス 1458" d="M110.89,136.483a1.366,1.366,0,1,1-1.366-1.366A1.366,1.366,0,0,1,110.89,136.483Z" transform="translate(233.411 -135.117)" fill="#3ade79"/>
      <path id="パス_1459" data-name="パス 1459" d="M117.737,136.483a1.365,1.365,0,1,1-1.366-1.366A1.364,1.364,0,0,1,117.737,136.483Z" transform="translate(249.335 -135.117)" fill="#3ade79"/>
      <path id="パス_1460" data-name="パス 1460" d="M124.588,136.483a1.366,1.366,0,1,1-1.366-1.366A1.364,1.364,0,0,1,124.588,136.483Z" transform="translate(265.255 -135.117)" fill="#3ade79"/>
      <path id="パス_1461" data-name="パス 1461" d="M131.437,136.483a1.366,1.366,0,1,1-1.366-1.366A1.362,1.362,0,0,1,131.437,136.483Z" transform="translate(281.177 -135.117)" fill="#3ade79"/>
      <path id="パス_1462" data-name="パス 1462" d="M138.287,136.483a1.366,1.366,0,1,1-1.366-1.366A1.366,1.366,0,0,1,138.287,136.483Z" transform="translate(297.101 -135.117)" fill="#3ade79"/>
    </g>
    <g id="グループ_598" data-name="グループ 598" transform="translate(5.42 413.05)">
      <path id="パス_1463" data-name="パス 1463" d="M8.153,130.044a1.366,1.366,0,1,1-1.366-1.366A1.362,1.362,0,0,1,8.153,130.044Z" transform="translate(-5.42 -128.678)" fill="#3ade79"/>
      <path id="パス_1464" data-name="パス 1464" d="M15,130.044a1.366,1.366,0,1,1-1.366-1.366A1.366,1.366,0,0,1,15,130.044Z" transform="translate(10.504 -128.678)" fill="#3ade79"/>
      <path id="パス_1465" data-name="パス 1465" d="M21.849,130.044a1.365,1.365,0,1,1-1.366-1.366A1.362,1.362,0,0,1,21.849,130.044Z" transform="translate(26.426 -128.678)" fill="#3ade79"/>
      <path id="パス_1466" data-name="パス 1466" d="M28.7,130.044a1.365,1.365,0,1,1-1.366-1.366A1.364,1.364,0,0,1,28.7,130.044Z" transform="translate(42.35 -128.678)" fill="#3ade79"/>
      <path id="パス_1467" data-name="パス 1467" d="M35.553,130.044a1.368,1.368,0,1,1-1.366-1.366A1.364,1.364,0,0,1,35.553,130.044Z" transform="translate(58.269 -128.678)" fill="#3ade79"/>
      <path id="パス_1468" data-name="パス 1468" d="M42.4,130.044a1.365,1.365,0,1,1-1.363-1.366A1.361,1.361,0,0,1,42.4,130.044Z" transform="translate(74.194 -128.678)" fill="#3ade79"/>
      <path id="パス_1469" data-name="パス 1469" d="M49.25,130.044a1.366,1.366,0,1,1-1.366-1.366A1.369,1.369,0,0,1,49.25,130.044Z" transform="translate(90.118 -128.678)" fill="#3ade79"/>
      <path id="パス_1470" data-name="パス 1470" d="M56.1,130.044a1.366,1.366,0,1,1-1.37-1.366A1.367,1.367,0,0,1,56.1,130.044Z" transform="translate(106.039 -128.678)" fill="#3ade79"/>
      <path id="パス_1471" data-name="パス 1471" d="M62.947,130.044a1.366,1.366,0,1,1-1.366-1.366A1.362,1.362,0,0,1,62.947,130.044Z" transform="translate(121.959 -128.678)" fill="#3ade79"/>
      <path id="パス_1472" data-name="パス 1472" d="M69.8,130.044a1.366,1.366,0,1,1-1.366-1.366A1.362,1.362,0,0,1,69.8,130.044Z" transform="translate(137.881 -128.678)" fill="#3ade79"/>
      <path id="パス_1473" data-name="パス 1473" d="M76.645,130.044a1.366,1.366,0,1,1-1.366-1.366A1.362,1.362,0,0,1,76.645,130.044Z" transform="translate(153.802 -128.678)" fill="#3ade79"/>
      <path id="パス_1474" data-name="パス 1474" d="M83.495,130.044a1.366,1.366,0,1,1-1.366-1.366A1.364,1.364,0,0,1,83.495,130.044Z" transform="translate(169.727 -128.678)" fill="#3ade79"/>
      <path id="パス_1475" data-name="パス 1475" d="M90.346,130.044a1.368,1.368,0,1,1-1.366-1.366A1.362,1.362,0,0,1,90.346,130.044Z" transform="translate(185.646 -128.678)" fill="#3ade79"/>
      <path id="パス_1476" data-name="パス 1476" d="M97.192,130.044a1.366,1.366,0,1,1-1.366-1.366A1.362,1.362,0,0,1,97.192,130.044Z" transform="translate(201.568 -128.678)" fill="#3ade79"/>
      <path id="パス_1477" data-name="パス 1477" d="M104.038,130.044a1.365,1.365,0,1,1-1.363-1.366A1.359,1.359,0,0,1,104.038,130.044Z" transform="translate(217.489 -128.678)" fill="#3ade79"/>
      <path id="パス_1478" data-name="パス 1478" d="M110.89,130.044a1.366,1.366,0,1,1-1.366-1.366A1.364,1.364,0,0,1,110.89,130.044Z" transform="translate(233.411 -128.678)" fill="#3ade79"/>
      <path id="パス_1479" data-name="パス 1479" d="M117.737,130.044a1.365,1.365,0,1,1-1.366-1.366A1.362,1.362,0,0,1,117.737,130.044Z" transform="translate(249.335 -128.678)" fill="#3ade79"/>
      <path id="パス_1480" data-name="パス 1480" d="M124.588,130.044a1.366,1.366,0,1,1-1.366-1.366A1.362,1.362,0,0,1,124.588,130.044Z" transform="translate(265.255 -128.678)" fill="#3ade79"/>
      <path id="パス_1481" data-name="パス 1481" d="M131.437,130.044a1.366,1.366,0,1,1-1.366-1.366A1.36,1.36,0,0,1,131.437,130.044Z" transform="translate(281.177 -128.678)" fill="#3ade79"/>
      <path id="パス_1482" data-name="パス 1482" d="M138.287,130.044a1.366,1.366,0,1,1-1.366-1.366A1.364,1.364,0,0,1,138.287,130.044Z" transform="translate(297.101 -128.678)" fill="#3ade79"/>
    </g>
    <g id="グループ_599" data-name="グループ 599" transform="translate(5.42 391.646)">
      <path id="パス_1483" data-name="パス 1483" d="M8.153,123.606a1.366,1.366,0,1,1-1.366-1.366A1.362,1.362,0,0,1,8.153,123.606Z" transform="translate(-5.42 -122.24)" fill="#3ade79"/>
      <path id="パス_1484" data-name="パス 1484" d="M15,123.606a1.366,1.366,0,1,1-1.366-1.366A1.366,1.366,0,0,1,15,123.606Z" transform="translate(10.504 -122.24)" fill="#3ade79"/>
      <path id="パス_1485" data-name="パス 1485" d="M21.849,123.606a1.365,1.365,0,1,1-1.366-1.366A1.362,1.362,0,0,1,21.849,123.606Z" transform="translate(26.426 -122.24)" fill="#3ade79"/>
      <path id="パス_1486" data-name="パス 1486" d="M28.7,123.606a1.365,1.365,0,1,1-1.366-1.366A1.364,1.364,0,0,1,28.7,123.606Z" transform="translate(42.35 -122.24)" fill="#3ade79"/>
      <path id="パス_1487" data-name="パス 1487" d="M35.553,123.606a1.368,1.368,0,1,1-1.366-1.366A1.364,1.364,0,0,1,35.553,123.606Z" transform="translate(58.269 -122.24)" fill="#3ade79"/>
      <path id="パス_1488" data-name="パス 1488" d="M42.4,123.606a1.365,1.365,0,1,1-1.363-1.366A1.361,1.361,0,0,1,42.4,123.606Z" transform="translate(74.194 -122.24)" fill="#3ade79"/>
      <path id="パス_1489" data-name="パス 1489" d="M49.25,123.606a1.366,1.366,0,1,1-1.366-1.366A1.369,1.369,0,0,1,49.25,123.606Z" transform="translate(90.118 -122.24)" fill="#3ade79"/>
      <path id="パス_1490" data-name="パス 1490" d="M56.1,123.606a1.366,1.366,0,1,1-1.37-1.366A1.367,1.367,0,0,1,56.1,123.606Z" transform="translate(106.039 -122.24)" fill="#3ade79"/>
      <path id="パス_1491" data-name="パス 1491" d="M62.947,123.606a1.366,1.366,0,1,1-1.366-1.366A1.362,1.362,0,0,1,62.947,123.606Z" transform="translate(121.959 -122.24)" fill="#3ade79"/>
      <path id="パス_1492" data-name="パス 1492" d="M69.8,123.606a1.366,1.366,0,1,1-1.366-1.366A1.362,1.362,0,0,1,69.8,123.606Z" transform="translate(137.881 -122.24)" fill="#3ade79"/>
      <path id="パス_1493" data-name="パス 1493" d="M76.645,123.606a1.366,1.366,0,1,1-1.366-1.366A1.362,1.362,0,0,1,76.645,123.606Z" transform="translate(153.802 -122.24)" fill="#3ade79"/>
      <path id="パス_1494" data-name="パス 1494" d="M83.495,123.606a1.366,1.366,0,1,1-1.366-1.366A1.364,1.364,0,0,1,83.495,123.606Z" transform="translate(169.727 -122.24)" fill="#3ade79"/>
      <path id="パス_1495" data-name="パス 1495" d="M90.346,123.606a1.368,1.368,0,1,1-1.366-1.366A1.362,1.362,0,0,1,90.346,123.606Z" transform="translate(185.646 -122.24)" fill="#3ade79"/>
      <path id="パス_1496" data-name="パス 1496" d="M97.192,123.606a1.366,1.366,0,1,1-1.366-1.366A1.362,1.362,0,0,1,97.192,123.606Z" transform="translate(201.568 -122.24)" fill="#3ade79"/>
      <path id="パス_1497" data-name="パス 1497" d="M104.038,123.606a1.365,1.365,0,1,1-1.363-1.366A1.359,1.359,0,0,1,104.038,123.606Z" transform="translate(217.489 -122.24)" fill="#3ade79"/>
      <path id="パス_1498" data-name="パス 1498" d="M110.89,123.606a1.366,1.366,0,1,1-1.366-1.366A1.364,1.364,0,0,1,110.89,123.606Z" transform="translate(233.411 -122.24)" fill="#3ade79"/>
      <path id="パス_1499" data-name="パス 1499" d="M117.737,123.606a1.365,1.365,0,1,1-1.366-1.366A1.362,1.362,0,0,1,117.737,123.606Z" transform="translate(249.335 -122.24)" fill="#3ade79"/>
      <path id="パス_1500" data-name="パス 1500" d="M124.588,123.606a1.366,1.366,0,1,1-1.366-1.366A1.362,1.362,0,0,1,124.588,123.606Z" transform="translate(265.255 -122.24)" fill="#3ade79"/>
      <path id="パス_1501" data-name="パス 1501" d="M131.437,123.606a1.366,1.366,0,1,1-1.366-1.366A1.36,1.36,0,0,1,131.437,123.606Z" transform="translate(281.177 -122.24)" fill="#3ade79"/>
      <path id="パス_1502" data-name="パス 1502" d="M138.287,123.606a1.366,1.366,0,1,1-1.366-1.366A1.364,1.364,0,0,1,138.287,123.606Z" transform="translate(297.101 -122.24)" fill="#3ade79"/>
    </g>
    <g id="グループ_600" data-name="グループ 600" transform="translate(5.42 370.241)">
      <path id="パス_1503" data-name="パス 1503" d="M8.153,117.168A1.366,1.366,0,1,1,6.786,115.8,1.362,1.362,0,0,1,8.153,117.168Z" transform="translate(-5.42 -115.802)" fill="#3ade79"/>
      <path id="パス_1504" data-name="パス 1504" d="M15,117.168a1.366,1.366,0,1,1-1.366-1.366A1.366,1.366,0,0,1,15,117.168Z" transform="translate(10.504 -115.802)" fill="#3ade79"/>
      <path id="パス_1505" data-name="パス 1505" d="M21.849,117.168a1.365,1.365,0,1,1-1.366-1.366A1.362,1.362,0,0,1,21.849,117.168Z" transform="translate(26.426 -115.802)" fill="#3ade79"/>
      <path id="パス_1506" data-name="パス 1506" d="M28.7,117.168a1.365,1.365,0,1,1-1.366-1.366A1.364,1.364,0,0,1,28.7,117.168Z" transform="translate(42.35 -115.802)" fill="#3ade79"/>
      <path id="パス_1507" data-name="パス 1507" d="M35.553,117.168a1.368,1.368,0,1,1-1.366-1.366A1.364,1.364,0,0,1,35.553,117.168Z" transform="translate(58.269 -115.802)" fill="#3ade79"/>
      <path id="パス_1508" data-name="パス 1508" d="M42.4,117.168a1.365,1.365,0,1,1-1.363-1.366A1.361,1.361,0,0,1,42.4,117.168Z" transform="translate(74.194 -115.802)" fill="#3ade79"/>
      <path id="パス_1509" data-name="パス 1509" d="M49.25,117.168a1.366,1.366,0,1,1-1.366-1.366A1.369,1.369,0,0,1,49.25,117.168Z" transform="translate(90.118 -115.802)" fill="#3ade79"/>
      <path id="パス_1510" data-name="パス 1510" d="M56.1,117.168a1.366,1.366,0,1,1-1.37-1.366A1.367,1.367,0,0,1,56.1,117.168Z" transform="translate(106.039 -115.802)" fill="#3ade79"/>
      <path id="パス_1511" data-name="パス 1511" d="M62.947,117.168A1.366,1.366,0,1,1,61.58,115.8,1.362,1.362,0,0,1,62.947,117.168Z" transform="translate(121.959 -115.802)" fill="#3ade79"/>
      <path id="パス_1512" data-name="パス 1512" d="M69.8,117.168a1.366,1.366,0,1,1-1.366-1.366A1.362,1.362,0,0,1,69.8,117.168Z" transform="translate(137.881 -115.802)" fill="#3ade79"/>
      <path id="パス_1513" data-name="パス 1513" d="M76.645,117.168a1.366,1.366,0,1,1-1.366-1.366A1.362,1.362,0,0,1,76.645,117.168Z" transform="translate(153.802 -115.802)" fill="#3ade79"/>
      <path id="パス_1514" data-name="パス 1514" d="M83.495,117.168a1.366,1.366,0,1,1-1.366-1.366A1.364,1.364,0,0,1,83.495,117.168Z" transform="translate(169.727 -115.802)" fill="#3ade79"/>
      <path id="パス_1515" data-name="パス 1515" d="M90.346,117.168A1.368,1.368,0,1,1,88.98,115.8,1.362,1.362,0,0,1,90.346,117.168Z" transform="translate(185.646 -115.802)" fill="#3ade79"/>
      <path id="パス_1516" data-name="パス 1516" d="M97.192,117.168a1.366,1.366,0,1,1-1.366-1.366A1.362,1.362,0,0,1,97.192,117.168Z" transform="translate(201.568 -115.802)" fill="#3ade79"/>
      <path id="パス_1517" data-name="パス 1517" d="M104.038,117.168a1.365,1.365,0,1,1-1.363-1.366A1.359,1.359,0,0,1,104.038,117.168Z" transform="translate(217.489 -115.802)" fill="#3ade79"/>
      <path id="パス_1518" data-name="パス 1518" d="M110.89,117.168a1.366,1.366,0,1,1-1.366-1.366A1.364,1.364,0,0,1,110.89,117.168Z" transform="translate(233.411 -115.802)" fill="#3ade79"/>
      <path id="パス_1519" data-name="パス 1519" d="M117.737,117.168a1.365,1.365,0,1,1-1.366-1.366A1.362,1.362,0,0,1,117.737,117.168Z" transform="translate(249.335 -115.802)" fill="#3ade79"/>
      <path id="パス_1520" data-name="パス 1520" d="M124.588,117.168a1.366,1.366,0,1,1-1.366-1.366A1.362,1.362,0,0,1,124.588,117.168Z" transform="translate(265.255 -115.802)" fill="#3ade79"/>
      <path id="パス_1521" data-name="パス 1521" d="M131.437,117.168a1.366,1.366,0,1,1-1.366-1.366A1.36,1.36,0,0,1,131.437,117.168Z" transform="translate(281.177 -115.802)" fill="#3ade79"/>
      <path id="パス_1522" data-name="パス 1522" d="M138.287,117.168a1.366,1.366,0,1,1-1.366-1.366A1.364,1.364,0,0,1,138.287,117.168Z" transform="translate(297.101 -115.802)" fill="#3ade79"/>
    </g>
    <g id="グループ_601" data-name="グループ 601" transform="translate(5.42 348.836)">
      <path id="パス_1523" data-name="パス 1523" d="M8.153,110.73a1.366,1.366,0,1,1-1.366-1.366A1.364,1.364,0,0,1,8.153,110.73Z" transform="translate(-5.42 -109.363)" fill="#3ade79"/>
      <path id="パス_1524" data-name="パス 1524" d="M15,110.73a1.366,1.366,0,1,1-1.366-1.366A1.369,1.369,0,0,1,15,110.73Z" transform="translate(10.504 -109.363)" fill="#3ade79"/>
      <path id="パス_1525" data-name="パス 1525" d="M21.849,110.73a1.365,1.365,0,1,1-1.366-1.366A1.364,1.364,0,0,1,21.849,110.73Z" transform="translate(26.426 -109.363)" fill="#3ade79"/>
      <path id="パス_1526" data-name="パス 1526" d="M28.7,110.73a1.365,1.365,0,1,1-1.366-1.366A1.366,1.366,0,0,1,28.7,110.73Z" transform="translate(42.35 -109.363)" fill="#3ade79"/>
      <circle id="楕円形_224" data-name="楕円形 224" cx="1.367" cy="1.367" r="1.367" transform="translate(91.088 0)" fill="#3ade79"/>
      <path id="パス_1527" data-name="パス 1527" d="M42.4,110.73a1.365,1.365,0,1,1-1.363-1.366A1.364,1.364,0,0,1,42.4,110.73Z" transform="translate(74.194 -109.363)" fill="#3ade79"/>
      <path id="パス_1528" data-name="パス 1528" d="M49.25,110.73a1.366,1.366,0,1,1-1.366-1.366A1.371,1.371,0,0,1,49.25,110.73Z" transform="translate(90.118 -109.363)" fill="#3ade79"/>
      <path id="パス_1529" data-name="パス 1529" d="M56.1,110.73a1.366,1.366,0,1,1-1.37-1.366A1.369,1.369,0,0,1,56.1,110.73Z" transform="translate(106.039 -109.363)" fill="#3ade79"/>
      <circle id="楕円形_225" data-name="楕円形 225" cx="1.367" cy="1.367" r="1.367" transform="translate(182.173 0)" fill="#3ade79"/>
      <path id="パス_1530" data-name="パス 1530" d="M69.8,110.73a1.366,1.366,0,1,1-1.366-1.366A1.364,1.364,0,0,1,69.8,110.73Z" transform="translate(137.881 -109.363)" fill="#3ade79"/>
      <path id="パス_1531" data-name="パス 1531" d="M76.645,110.73a1.366,1.366,0,1,1-1.366-1.366A1.364,1.364,0,0,1,76.645,110.73Z" transform="translate(153.802 -109.363)" fill="#3ade79"/>
      <path id="パス_1532" data-name="パス 1532" d="M83.495,110.73a1.366,1.366,0,1,1-1.366-1.366A1.366,1.366,0,0,1,83.495,110.73Z" transform="translate(169.727 -109.363)" fill="#3ade79"/>
      <path id="パス_1533" data-name="パス 1533" d="M90.346,110.73a1.368,1.368,0,1,1-1.366-1.366A1.364,1.364,0,0,1,90.346,110.73Z" transform="translate(185.646 -109.363)" fill="#3ade79"/>
      <circle id="楕円形_226" data-name="楕円形 226" cx="1.367" cy="1.367" r="1.367" transform="translate(296.027 0)" fill="#3ade79"/>
      <path id="パス_1534" data-name="パス 1534" d="M104.038,110.73a1.365,1.365,0,1,1-1.363-1.366A1.361,1.361,0,0,1,104.038,110.73Z" transform="translate(217.489 -109.363)" fill="#3ade79"/>
      <path id="パス_1535" data-name="パス 1535" d="M110.89,110.73a1.366,1.366,0,1,1-1.366-1.366A1.366,1.366,0,0,1,110.89,110.73Z" transform="translate(233.411 -109.363)" fill="#3ade79"/>
      <path id="パス_1536" data-name="パス 1536" d="M117.737,110.73a1.365,1.365,0,1,1-1.366-1.366A1.364,1.364,0,0,1,117.737,110.73Z" transform="translate(249.335 -109.363)" fill="#3ade79"/>
      <path id="パス_1537" data-name="パス 1537" d="M124.588,110.73a1.366,1.366,0,1,1-1.366-1.366A1.364,1.364,0,0,1,124.588,110.73Z" transform="translate(265.255 -109.363)" fill="#3ade79"/>
      <path id="パス_1538" data-name="パス 1538" d="M131.437,110.73a1.366,1.366,0,1,1-1.366-1.366A1.362,1.362,0,0,1,131.437,110.73Z" transform="translate(281.177 -109.363)" fill="#3ade79"/>
      <path id="パス_1539" data-name="パス 1539" d="M138.287,110.73a1.366,1.366,0,1,1-1.366-1.366A1.366,1.366,0,0,1,138.287,110.73Z" transform="translate(297.101 -109.363)" fill="#3ade79"/>
    </g>
    <g id="グループ_602" data-name="グループ 602" transform="translate(5.42 327.429)">
      <path id="パス_1540" data-name="パス 1540" d="M8.153,104.291a1.366,1.366,0,1,1-1.366-1.366A1.362,1.362,0,0,1,8.153,104.291Z" transform="translate(-5.42 -102.925)" fill="#3ade79"/>
      <path id="パス_1541" data-name="パス 1541" d="M15,104.291a1.366,1.366,0,1,1-1.366-1.366A1.366,1.366,0,0,1,15,104.291Z" transform="translate(10.504 -102.925)" fill="#3ade79"/>
      <path id="パス_1542" data-name="パス 1542" d="M21.849,104.291a1.365,1.365,0,1,1-1.366-1.366A1.362,1.362,0,0,1,21.849,104.291Z" transform="translate(26.426 -102.925)" fill="#3ade79"/>
      <path id="パス_1543" data-name="パス 1543" d="M28.7,104.291a1.365,1.365,0,1,1-1.366-1.366A1.364,1.364,0,0,1,28.7,104.291Z" transform="translate(42.35 -102.925)" fill="#3ade79"/>
      <path id="パス_1544" data-name="パス 1544" d="M35.553,104.291a1.368,1.368,0,1,1-1.366-1.366A1.364,1.364,0,0,1,35.553,104.291Z" transform="translate(58.269 -102.925)" fill="#3ade79"/>
      <path id="パス_1545" data-name="パス 1545" d="M42.4,104.291a1.365,1.365,0,1,1-1.363-1.366A1.361,1.361,0,0,1,42.4,104.291Z" transform="translate(74.194 -102.925)" fill="#3ade79"/>
      <path id="パス_1546" data-name="パス 1546" d="M49.25,104.291a1.366,1.366,0,1,1-1.366-1.366A1.369,1.369,0,0,1,49.25,104.291Z" transform="translate(90.118 -102.925)" fill="#3ade79"/>
      <path id="パス_1547" data-name="パス 1547" d="M56.1,104.291a1.366,1.366,0,1,1-1.37-1.366A1.367,1.367,0,0,1,56.1,104.291Z" transform="translate(106.039 -102.925)" fill="#3ade79"/>
      <path id="パス_1548" data-name="パス 1548" d="M62.947,104.291a1.366,1.366,0,1,1-1.366-1.366A1.362,1.362,0,0,1,62.947,104.291Z" transform="translate(121.959 -102.925)" fill="#3ade79"/>
      <path id="パス_1549" data-name="パス 1549" d="M69.8,104.291a1.366,1.366,0,1,1-1.366-1.366A1.362,1.362,0,0,1,69.8,104.291Z" transform="translate(137.881 -102.925)" fill="#3ade79"/>
      <path id="パス_1550" data-name="パス 1550" d="M76.645,104.291a1.366,1.366,0,1,1-1.366-1.366A1.362,1.362,0,0,1,76.645,104.291Z" transform="translate(153.802 -102.925)" fill="#3ade79"/>
      <path id="パス_1551" data-name="パス 1551" d="M83.495,104.291a1.366,1.366,0,1,1-1.366-1.366A1.364,1.364,0,0,1,83.495,104.291Z" transform="translate(169.727 -102.925)" fill="#3ade79"/>
      <path id="パス_1552" data-name="パス 1552" d="M90.346,104.291a1.368,1.368,0,1,1-1.366-1.366A1.362,1.362,0,0,1,90.346,104.291Z" transform="translate(185.646 -102.925)" fill="#3ade79"/>
      <path id="パス_1553" data-name="パス 1553" d="M97.192,104.291a1.366,1.366,0,1,1-1.366-1.366A1.362,1.362,0,0,1,97.192,104.291Z" transform="translate(201.568 -102.925)" fill="#3ade79"/>
      <path id="パス_1554" data-name="パス 1554" d="M104.038,104.291a1.365,1.365,0,1,1-1.363-1.366A1.359,1.359,0,0,1,104.038,104.291Z" transform="translate(217.489 -102.925)" fill="#3ade79"/>
      <path id="パス_1555" data-name="パス 1555" d="M110.89,104.291a1.366,1.366,0,1,1-1.366-1.366A1.364,1.364,0,0,1,110.89,104.291Z" transform="translate(233.411 -102.925)" fill="#3ade79"/>
      <path id="パス_1556" data-name="パス 1556" d="M117.737,104.291a1.365,1.365,0,1,1-1.366-1.366A1.362,1.362,0,0,1,117.737,104.291Z" transform="translate(249.335 -102.925)" fill="#3ade79"/>
      <path id="パス_1557" data-name="パス 1557" d="M124.588,104.291a1.366,1.366,0,1,1-1.366-1.366A1.362,1.362,0,0,1,124.588,104.291Z" transform="translate(265.255 -102.925)" fill="#3ade79"/>
      <path id="パス_1558" data-name="パス 1558" d="M131.437,104.291a1.366,1.366,0,1,1-1.366-1.366A1.36,1.36,0,0,1,131.437,104.291Z" transform="translate(281.177 -102.925)" fill="#3ade79"/>
      <path id="パス_1559" data-name="パス 1559" d="M138.287,104.291a1.366,1.366,0,1,1-1.366-1.366A1.364,1.364,0,0,1,138.287,104.291Z" transform="translate(297.101 -102.925)" fill="#3ade79"/>
    </g>
    <g id="グループ_603" data-name="グループ 603" transform="translate(5.42 306.028)">
      <path id="パス_1560" data-name="パス 1560" d="M8.153,97.854a1.366,1.366,0,1,1-1.366-1.366A1.364,1.364,0,0,1,8.153,97.854Z" transform="translate(-5.42 -96.488)" fill="#3ade79"/>
      <path id="パス_1561" data-name="パス 1561" d="M15,97.854a1.366,1.366,0,1,1-1.366-1.366A1.368,1.368,0,0,1,15,97.854Z" transform="translate(10.504 -96.488)" fill="#3ade79"/>
      <path id="パス_1562" data-name="パス 1562" d="M21.849,97.854a1.365,1.365,0,1,1-1.366-1.366A1.364,1.364,0,0,1,21.849,97.854Z" transform="translate(26.426 -96.488)" fill="#3ade79"/>
      <path id="パス_1563" data-name="パス 1563" d="M28.7,97.854a1.365,1.365,0,1,1-1.366-1.366A1.366,1.366,0,0,1,28.7,97.854Z" transform="translate(42.35 -96.488)" fill="#3ade79"/>
      <path id="パス_1564" data-name="パス 1564" d="M35.553,97.854a1.368,1.368,0,1,1-1.366-1.366A1.366,1.366,0,0,1,35.553,97.854Z" transform="translate(58.269 -96.488)" fill="#3ade79"/>
      <path id="パス_1565" data-name="パス 1565" d="M42.4,97.854a1.365,1.365,0,1,1-1.363-1.366A1.363,1.363,0,0,1,42.4,97.854Z" transform="translate(74.194 -96.488)" fill="#3ade79"/>
      <path id="パス_1566" data-name="パス 1566" d="M49.25,97.854a1.366,1.366,0,1,1-1.366-1.366A1.37,1.37,0,0,1,49.25,97.854Z" transform="translate(90.118 -96.488)" fill="#3ade79"/>
      <path id="パス_1567" data-name="パス 1567" d="M56.1,97.854a1.366,1.366,0,1,1-1.37-1.366A1.369,1.369,0,0,1,56.1,97.854Z" transform="translate(106.039 -96.488)" fill="#3ade79"/>
      <path id="パス_1568" data-name="パス 1568" d="M62.947,97.854a1.366,1.366,0,1,1-1.366-1.366A1.364,1.364,0,0,1,62.947,97.854Z" transform="translate(121.959 -96.488)" fill="#3ade79"/>
      <path id="パス_1569" data-name="パス 1569" d="M69.8,97.854a1.366,1.366,0,1,1-1.366-1.366A1.364,1.364,0,0,1,69.8,97.854Z" transform="translate(137.881 -96.488)" fill="#3ade79"/>
      <path id="パス_1570" data-name="パス 1570" d="M76.645,97.854a1.366,1.366,0,1,1-1.366-1.366A1.364,1.364,0,0,1,76.645,97.854Z" transform="translate(153.802 -96.488)" fill="#3ade79"/>
      <path id="パス_1571" data-name="パス 1571" d="M83.495,97.854a1.366,1.366,0,1,1-1.366-1.366A1.366,1.366,0,0,1,83.495,97.854Z" transform="translate(169.727 -96.488)" fill="#3ade79"/>
      <path id="パス_1572" data-name="パス 1572" d="M90.346,97.854a1.368,1.368,0,1,1-1.366-1.366A1.364,1.364,0,0,1,90.346,97.854Z" transform="translate(185.646 -96.488)" fill="#3ade79"/>
      <path id="パス_1573" data-name="パス 1573" d="M97.192,97.854a1.366,1.366,0,1,1-1.366-1.366A1.364,1.364,0,0,1,97.192,97.854Z" transform="translate(201.568 -96.488)" fill="#3ade79"/>
      <path id="パス_1574" data-name="パス 1574" d="M104.038,97.854a1.365,1.365,0,1,1-1.363-1.366A1.361,1.361,0,0,1,104.038,97.854Z" transform="translate(217.489 -96.488)" fill="#3ade79"/>
      <path id="パス_1575" data-name="パス 1575" d="M110.89,97.854a1.366,1.366,0,1,1-1.366-1.366A1.366,1.366,0,0,1,110.89,97.854Z" transform="translate(233.411 -96.488)" fill="#3ade79"/>
      <path id="パス_1576" data-name="パス 1576" d="M117.737,97.854a1.365,1.365,0,1,1-1.366-1.366A1.364,1.364,0,0,1,117.737,97.854Z" transform="translate(249.335 -96.488)" fill="#3ade79"/>
      <path id="パス_1577" data-name="パス 1577" d="M124.588,97.854a1.366,1.366,0,1,1-1.366-1.366A1.364,1.364,0,0,1,124.588,97.854Z" transform="translate(265.255 -96.488)" fill="#3ade79"/>
      <path id="パス_1578" data-name="パス 1578" d="M131.437,97.854a1.366,1.366,0,1,1-1.366-1.366A1.361,1.361,0,0,1,131.437,97.854Z" transform="translate(281.177 -96.488)" fill="#3ade79"/>
      <path id="パス_1579" data-name="パス 1579" d="M138.287,97.854a1.366,1.366,0,1,1-1.366-1.366A1.366,1.366,0,0,1,138.287,97.854Z" transform="translate(297.101 -96.488)" fill="#3ade79"/>
    </g>
    <g id="グループ_604" data-name="グループ 604" transform="translate(5.42 284.621)">
      <path id="パス_1580" data-name="パス 1580" d="M8.153,91.412a1.366,1.366,0,1,1-1.366-1.363A1.365,1.365,0,0,1,8.153,91.412Z" transform="translate(-5.42 -90.049)" fill="#3ade79"/>
      <path id="パス_1581" data-name="パス 1581" d="M15,91.412a1.366,1.366,0,1,1-1.366-1.363A1.369,1.369,0,0,1,15,91.412Z" transform="translate(10.504 -90.049)" fill="#3ade79"/>
      <path id="パス_1582" data-name="パス 1582" d="M21.849,91.412a1.365,1.365,0,1,1-1.366-1.363A1.365,1.365,0,0,1,21.849,91.412Z" transform="translate(26.426 -90.049)" fill="#3ade79"/>
      <path id="パス_1583" data-name="パス 1583" d="M28.7,91.412a1.365,1.365,0,1,1-1.366-1.363A1.367,1.367,0,0,1,28.7,91.412Z" transform="translate(42.35 -90.049)" fill="#3ade79"/>
      <path id="パス_1584" data-name="パス 1584" d="M35.553,91.412a1.368,1.368,0,1,1-1.366-1.363A1.367,1.367,0,0,1,35.553,91.412Z" transform="translate(58.269 -90.049)" fill="#3ade79"/>
      <path id="パス_1585" data-name="パス 1585" d="M42.4,91.412a1.365,1.365,0,1,1-1.363-1.363A1.364,1.364,0,0,1,42.4,91.412Z" transform="translate(74.194 -90.049)" fill="#3ade79"/>
      <path id="パス_1586" data-name="パス 1586" d="M49.25,91.412a1.366,1.366,0,1,1-1.366-1.363A1.371,1.371,0,0,1,49.25,91.412Z" transform="translate(90.118 -90.049)" fill="#3ade79"/>
      <path id="パス_1587" data-name="パス 1587" d="M56.1,91.412a1.366,1.366,0,1,1-1.37-1.363A1.37,1.37,0,0,1,56.1,91.412Z" transform="translate(106.039 -90.049)" fill="#3ade79"/>
      <path id="パス_1588" data-name="パス 1588" d="M62.947,91.412a1.366,1.366,0,1,1-1.366-1.363A1.365,1.365,0,0,1,62.947,91.412Z" transform="translate(121.959 -90.049)" fill="#3ade79"/>
      <path id="パス_1589" data-name="パス 1589" d="M69.8,91.412a1.366,1.366,0,1,1-1.366-1.363A1.365,1.365,0,0,1,69.8,91.412Z" transform="translate(137.881 -90.049)" fill="#3ade79"/>
      <path id="パス_1590" data-name="パス 1590" d="M76.645,91.412a1.366,1.366,0,1,1-1.366-1.363A1.365,1.365,0,0,1,76.645,91.412Z" transform="translate(153.802 -90.049)" fill="#3ade79"/>
      <path id="パス_1591" data-name="パス 1591" d="M83.495,91.412a1.366,1.366,0,1,1-1.366-1.363A1.367,1.367,0,0,1,83.495,91.412Z" transform="translate(169.727 -90.049)" fill="#3ade79"/>
      <path id="パス_1592" data-name="パス 1592" d="M90.346,91.412a1.368,1.368,0,1,1-1.366-1.363A1.365,1.365,0,0,1,90.346,91.412Z" transform="translate(185.646 -90.049)" fill="#3ade79"/>
      <path id="パス_1593" data-name="パス 1593" d="M97.192,91.412a1.366,1.366,0,1,1-1.366-1.363A1.365,1.365,0,0,1,97.192,91.412Z" transform="translate(201.568 -90.049)" fill="#3ade79"/>
      <path id="パス_1594" data-name="パス 1594" d="M104.038,91.412a1.365,1.365,0,1,1-1.363-1.363A1.362,1.362,0,0,1,104.038,91.412Z" transform="translate(217.489 -90.049)" fill="#3ade79"/>
      <path id="パス_1595" data-name="パス 1595" d="M110.89,91.412a1.366,1.366,0,1,1-1.366-1.363A1.367,1.367,0,0,1,110.89,91.412Z" transform="translate(233.411 -90.049)" fill="#3ade79"/>
      <path id="パス_1596" data-name="パス 1596" d="M117.737,91.412a1.365,1.365,0,1,1-1.366-1.363A1.365,1.365,0,0,1,117.737,91.412Z" transform="translate(249.335 -90.049)" fill="#3ade79"/>
      <path id="パス_1597" data-name="パス 1597" d="M124.588,91.412a1.366,1.366,0,1,1-1.366-1.363A1.365,1.365,0,0,1,124.588,91.412Z" transform="translate(265.255 -90.049)" fill="#3ade79"/>
      <path id="パス_1598" data-name="パス 1598" d="M131.437,91.412a1.366,1.366,0,1,1-1.366-1.363A1.363,1.363,0,0,1,131.437,91.412Z" transform="translate(281.177 -90.049)" fill="#3ade79"/>
      <path id="パス_1599" data-name="パス 1599" d="M138.287,91.412a1.366,1.366,0,1,1-1.366-1.363A1.367,1.367,0,0,1,138.287,91.412Z" transform="translate(297.101 -90.049)" fill="#3ade79"/>
    </g>
    <g id="グループ_605" data-name="グループ 605" transform="translate(5.42 263.22)">
      <path id="パス_1600" data-name="パス 1600" d="M8.153,84.975a1.366,1.366,0,1,1-1.366-1.363A1.366,1.366,0,0,1,8.153,84.975Z" transform="translate(-5.42 -83.612)" fill="#3ade79"/>
      <path id="パス_1601" data-name="パス 1601" d="M15,84.975a1.366,1.366,0,1,1-1.366-1.363A1.371,1.371,0,0,1,15,84.975Z" transform="translate(10.504 -83.612)" fill="#3ade79"/>
      <path id="パス_1602" data-name="パス 1602" d="M21.849,84.975a1.365,1.365,0,1,1-1.366-1.363A1.366,1.366,0,0,1,21.849,84.975Z" transform="translate(26.426 -83.612)" fill="#3ade79"/>
      <path id="パス_1603" data-name="パス 1603" d="M28.7,84.975a1.365,1.365,0,1,1-1.366-1.363A1.369,1.369,0,0,1,28.7,84.975Z" transform="translate(42.35 -83.612)" fill="#3ade79"/>
      <path id="パス_1604" data-name="パス 1604" d="M35.553,84.975a1.368,1.368,0,1,1-1.366-1.363A1.369,1.369,0,0,1,35.553,84.975Z" transform="translate(58.269 -83.612)" fill="#3ade79"/>
      <path id="パス_1605" data-name="パス 1605" d="M42.4,84.975a1.365,1.365,0,1,1-1.363-1.363A1.366,1.366,0,0,1,42.4,84.975Z" transform="translate(74.194 -83.612)" fill="#3ade79"/>
      <path id="パス_1606" data-name="パス 1606" d="M49.25,84.975a1.366,1.366,0,1,1-1.366-1.363A1.373,1.373,0,0,1,49.25,84.975Z" transform="translate(90.118 -83.612)" fill="#3ade79"/>
      <path id="パス_1607" data-name="パス 1607" d="M56.1,84.975a1.366,1.366,0,1,1-1.37-1.363A1.371,1.371,0,0,1,56.1,84.975Z" transform="translate(106.039 -83.612)" fill="#3ade79"/>
      <path id="パス_1608" data-name="パス 1608" d="M62.947,84.975a1.366,1.366,0,1,1-1.366-1.363A1.366,1.366,0,0,1,62.947,84.975Z" transform="translate(121.959 -83.612)" fill="#3ade79"/>
      <path id="パス_1609" data-name="パス 1609" d="M69.8,84.975a1.366,1.366,0,1,1-1.366-1.363A1.366,1.366,0,0,1,69.8,84.975Z" transform="translate(137.881 -83.612)" fill="#3ade79"/>
      <path id="パス_1610" data-name="パス 1610" d="M76.645,84.975a1.366,1.366,0,1,1-1.366-1.363A1.366,1.366,0,0,1,76.645,84.975Z" transform="translate(153.802 -83.612)" fill="#3ade79"/>
      <path id="パス_1611" data-name="パス 1611" d="M83.495,84.975a1.366,1.366,0,1,1-1.366-1.363A1.369,1.369,0,0,1,83.495,84.975Z" transform="translate(169.727 -83.612)" fill="#3ade79"/>
      <path id="パス_1612" data-name="パス 1612" d="M90.346,84.975a1.368,1.368,0,1,1-1.366-1.363A1.366,1.366,0,0,1,90.346,84.975Z" transform="translate(185.646 -83.612)" fill="#3ade79"/>
      <path id="パス_1613" data-name="パス 1613" d="M97.192,84.975a1.366,1.366,0,1,1-1.366-1.363A1.366,1.366,0,0,1,97.192,84.975Z" transform="translate(201.568 -83.612)" fill="#3ade79"/>
      <path id="パス_1614" data-name="パス 1614" d="M104.038,84.975a1.365,1.365,0,1,1-1.363-1.363A1.364,1.364,0,0,1,104.038,84.975Z" transform="translate(217.489 -83.612)" fill="#3ade79"/>
      <path id="パス_1615" data-name="パス 1615" d="M110.89,84.975a1.366,1.366,0,1,1-1.366-1.363A1.369,1.369,0,0,1,110.89,84.975Z" transform="translate(233.411 -83.612)" fill="#3ade79"/>
      <path id="パス_1616" data-name="パス 1616" d="M117.737,84.975a1.365,1.365,0,1,1-1.366-1.363A1.366,1.366,0,0,1,117.737,84.975Z" transform="translate(249.335 -83.612)" fill="#3ade79"/>
      <path id="パス_1617" data-name="パス 1617" d="M124.588,84.975a1.366,1.366,0,1,1-1.366-1.363A1.366,1.366,0,0,1,124.588,84.975Z" transform="translate(265.255 -83.612)" fill="#3ade79"/>
      <path id="パス_1618" data-name="パス 1618" d="M131.437,84.975a1.366,1.366,0,1,1-1.366-1.363A1.364,1.364,0,0,1,131.437,84.975Z" transform="translate(281.177 -83.612)" fill="#3ade79"/>
      <path id="パス_1619" data-name="パス 1619" d="M138.287,84.975a1.366,1.366,0,1,1-1.366-1.363A1.369,1.369,0,0,1,138.287,84.975Z" transform="translate(297.101 -83.612)" fill="#3ade79"/>
    </g>
    <g id="グループ_606" data-name="グループ 606" transform="translate(5.42 241.809)">
      <path id="パス_1620" data-name="パス 1620" d="M8.153,78.538a1.366,1.366,0,1,1-1.366-1.366A1.365,1.365,0,0,1,8.153,78.538Z" transform="translate(-5.42 -77.172)" fill="#3ade79"/>
      <path id="パス_1621" data-name="パス 1621" d="M15,78.538a1.366,1.366,0,1,1-1.366-1.366A1.369,1.369,0,0,1,15,78.538Z" transform="translate(10.504 -77.172)" fill="#3ade79"/>
      <path id="パス_1622" data-name="パス 1622" d="M21.849,78.538a1.365,1.365,0,1,1-1.366-1.366A1.365,1.365,0,0,1,21.849,78.538Z" transform="translate(26.426 -77.172)" fill="#3ade79"/>
      <path id="パス_1623" data-name="パス 1623" d="M28.7,78.538a1.365,1.365,0,1,1-1.366-1.366A1.367,1.367,0,0,1,28.7,78.538Z" transform="translate(42.35 -77.172)" fill="#3ade79"/>
      <circle id="楕円形_227" data-name="楕円形 227" cx="1.367" cy="1.367" r="1.367" transform="translate(91.088 0.001)" fill="#3ade79"/>
      <path id="パス_1624" data-name="パス 1624" d="M42.4,78.538a1.365,1.365,0,1,1-1.363-1.366A1.364,1.364,0,0,1,42.4,78.538Z" transform="translate(74.194 -77.172)" fill="#3ade79"/>
      <path id="パス_1625" data-name="パス 1625" d="M49.25,78.538a1.366,1.366,0,1,1-1.366-1.366A1.371,1.371,0,0,1,49.25,78.538Z" transform="translate(90.118 -77.172)" fill="#3ade79"/>
      <path id="パス_1626" data-name="パス 1626" d="M56.1,78.538a1.366,1.366,0,1,1-1.37-1.366A1.37,1.37,0,0,1,56.1,78.538Z" transform="translate(106.039 -77.172)" fill="#3ade79"/>
      <circle id="楕円形_228" data-name="楕円形 228" cx="1.367" cy="1.367" r="1.367" transform="translate(182.173 0.001)" fill="#3ade79"/>
      <path id="パス_1627" data-name="パス 1627" d="M69.8,78.538a1.366,1.366,0,1,1-1.366-1.366A1.365,1.365,0,0,1,69.8,78.538Z" transform="translate(137.881 -77.172)" fill="#3ade79"/>
      <path id="パス_1628" data-name="パス 1628" d="M76.645,78.538a1.366,1.366,0,1,1-1.366-1.366A1.365,1.365,0,0,1,76.645,78.538Z" transform="translate(153.802 -77.172)" fill="#3ade79"/>
      <path id="パス_1629" data-name="パス 1629" d="M83.495,78.538a1.366,1.366,0,1,1-1.366-1.366A1.367,1.367,0,0,1,83.495,78.538Z" transform="translate(169.727 -77.172)" fill="#3ade79"/>
      <path id="パス_1630" data-name="パス 1630" d="M90.346,78.538a1.368,1.368,0,1,1-1.366-1.366A1.365,1.365,0,0,1,90.346,78.538Z" transform="translate(185.646 -77.172)" fill="#3ade79"/>
      <circle id="楕円形_229" data-name="楕円形 229" cx="1.367" cy="1.367" r="1.367" transform="translate(296.027 0.001)" fill="#3ade79"/>
      <path id="パス_1631" data-name="パス 1631" d="M104.038,78.538a1.365,1.365,0,1,1-1.363-1.366A1.362,1.362,0,0,1,104.038,78.538Z" transform="translate(217.489 -77.172)" fill="#3ade79"/>
      <path id="パス_1632" data-name="パス 1632" d="M110.89,78.538a1.366,1.366,0,1,1-1.366-1.366A1.367,1.367,0,0,1,110.89,78.538Z" transform="translate(233.411 -77.172)" fill="#3ade79"/>
      <path id="パス_1633" data-name="パス 1633" d="M117.737,78.538a1.365,1.365,0,1,1-1.366-1.366A1.365,1.365,0,0,1,117.737,78.538Z" transform="translate(249.335 -77.172)" fill="#3ade79"/>
      <path id="パス_1634" data-name="パス 1634" d="M124.588,78.538a1.366,1.366,0,1,1-1.366-1.366A1.365,1.365,0,0,1,124.588,78.538Z" transform="translate(265.255 -77.172)" fill="#3ade79"/>
      <path id="パス_1635" data-name="パス 1635" d="M131.437,78.538a1.366,1.366,0,1,1-1.366-1.366A1.363,1.363,0,0,1,131.437,78.538Z" transform="translate(281.177 -77.172)" fill="#3ade79"/>
      <path id="パス_1636" data-name="パス 1636" d="M138.287,78.538a1.366,1.366,0,1,1-1.366-1.366A1.367,1.367,0,0,1,138.287,78.538Z" transform="translate(297.101 -77.172)" fill="#3ade79"/>
    </g>
    <g id="グループ_607" data-name="グループ 607" transform="translate(5.42 220.408)">
      <path id="パス_1637" data-name="パス 1637" d="M8.153,72.1a1.366,1.366,0,1,1-1.366-1.363A1.362,1.362,0,0,1,8.153,72.1Z" transform="translate(-5.42 -70.735)" fill="#3ade79"/>
      <path id="パス_1638" data-name="パス 1638" d="M15,72.1a1.366,1.366,0,1,1-1.366-1.363A1.366,1.366,0,0,1,15,72.1Z" transform="translate(10.504 -70.735)" fill="#3ade79"/>
      <path id="パス_1639" data-name="パス 1639" d="M21.849,72.1a1.365,1.365,0,1,1-1.366-1.363A1.362,1.362,0,0,1,21.849,72.1Z" transform="translate(26.426 -70.735)" fill="#3ade79"/>
      <path id="パス_1640" data-name="パス 1640" d="M28.7,72.1a1.365,1.365,0,1,1-1.366-1.363A1.364,1.364,0,0,1,28.7,72.1Z" transform="translate(42.35 -70.735)" fill="#3ade79"/>
      <path id="パス_1641" data-name="パス 1641" d="M35.553,72.1a1.368,1.368,0,1,1-1.366-1.363A1.364,1.364,0,0,1,35.553,72.1Z" transform="translate(58.269 -70.735)" fill="#3ade79"/>
      <path id="パス_1642" data-name="パス 1642" d="M42.4,72.1a1.365,1.365,0,1,1-1.363-1.363A1.361,1.361,0,0,1,42.4,72.1Z" transform="translate(74.194 -70.735)" fill="#3ade79"/>
      <path id="パス_1643" data-name="パス 1643" d="M49.25,72.1a1.366,1.366,0,1,1-1.366-1.363A1.369,1.369,0,0,1,49.25,72.1Z" transform="translate(90.118 -70.735)" fill="#3ade79"/>
      <path id="パス_1644" data-name="パス 1644" d="M56.1,72.1a1.366,1.366,0,1,1-1.37-1.363A1.367,1.367,0,0,1,56.1,72.1Z" transform="translate(106.039 -70.735)" fill="#3ade79"/>
      <path id="パス_1645" data-name="パス 1645" d="M62.947,72.1a1.366,1.366,0,1,1-1.366-1.363A1.362,1.362,0,0,1,62.947,72.1Z" transform="translate(121.959 -70.735)" fill="#3ade79"/>
      <path id="パス_1646" data-name="パス 1646" d="M69.8,72.1a1.366,1.366,0,1,1-1.366-1.363A1.362,1.362,0,0,1,69.8,72.1Z" transform="translate(137.881 -70.735)" fill="#3ade79"/>
      <path id="パス_1647" data-name="パス 1647" d="M76.645,72.1a1.366,1.366,0,1,1-1.366-1.363A1.362,1.362,0,0,1,76.645,72.1Z" transform="translate(153.802 -70.735)" fill="#3ade79"/>
      <path id="パス_1648" data-name="パス 1648" d="M83.495,72.1a1.366,1.366,0,1,1-1.366-1.363A1.364,1.364,0,0,1,83.495,72.1Z" transform="translate(169.727 -70.735)" fill="#3ade79"/>
      <path id="パス_1649" data-name="パス 1649" d="M90.346,72.1a1.368,1.368,0,1,1-1.366-1.363A1.362,1.362,0,0,1,90.346,72.1Z" transform="translate(185.646 -70.735)" fill="#3ade79"/>
      <path id="パス_1650" data-name="パス 1650" d="M97.192,72.1a1.366,1.366,0,1,1-1.366-1.363A1.362,1.362,0,0,1,97.192,72.1Z" transform="translate(201.568 -70.735)" fill="#3ade79"/>
      <path id="パス_1651" data-name="パス 1651" d="M104.038,72.1a1.365,1.365,0,1,1-1.363-1.363A1.359,1.359,0,0,1,104.038,72.1Z" transform="translate(217.489 -70.735)" fill="#3ade79"/>
      <path id="パス_1652" data-name="パス 1652" d="M110.89,72.1a1.366,1.366,0,1,1-1.366-1.363A1.364,1.364,0,0,1,110.89,72.1Z" transform="translate(233.411 -70.735)" fill="#3ade79"/>
      <path id="パス_1653" data-name="パス 1653" d="M117.737,72.1a1.365,1.365,0,1,1-1.366-1.363A1.362,1.362,0,0,1,117.737,72.1Z" transform="translate(249.335 -70.735)" fill="#3ade79"/>
      <path id="パス_1654" data-name="パス 1654" d="M124.588,72.1a1.366,1.366,0,1,1-1.366-1.363A1.362,1.362,0,0,1,124.588,72.1Z" transform="translate(265.255 -70.735)" fill="#3ade79"/>
      <path id="パス_1655" data-name="パス 1655" d="M131.437,72.1a1.366,1.366,0,1,1-1.366-1.363A1.36,1.36,0,0,1,131.437,72.1Z" transform="translate(281.177 -70.735)" fill="#3ade79"/>
      <path id="パス_1656" data-name="パス 1656" d="M138.287,72.1a1.366,1.366,0,1,1-1.366-1.363A1.364,1.364,0,0,1,138.287,72.1Z" transform="translate(297.101 -70.735)" fill="#3ade79"/>
    </g>
    <g id="グループ_608" data-name="グループ 608" transform="translate(5.42 199)">
      <path id="パス_1657" data-name="パス 1657" d="M8.153,65.666A1.366,1.366,0,1,1,6.786,64.3,1.366,1.366,0,0,1,8.153,65.666Z" transform="translate(-5.42 -64.296)" fill="#3ade79"/>
      <path id="パス_1658" data-name="パス 1658" d="M15,65.666a1.366,1.366,0,1,1-1.366-1.37A1.371,1.371,0,0,1,15,65.666Z" transform="translate(10.504 -64.296)" fill="#3ade79"/>
      <path id="パス_1659" data-name="パス 1659" d="M21.849,65.666a1.365,1.365,0,1,1-1.366-1.37A1.366,1.366,0,0,1,21.849,65.666Z" transform="translate(26.426 -64.296)" fill="#3ade79"/>
      <path id="パス_1660" data-name="パス 1660" d="M28.7,65.666a1.365,1.365,0,1,1-1.366-1.37A1.369,1.369,0,0,1,28.7,65.666Z" transform="translate(42.35 -64.296)" fill="#3ade79"/>
      <circle id="楕円形_230" data-name="楕円形 230" cx="1.367" cy="1.367" r="1.367" transform="translate(91.088 0.001)" fill="#3ade79"/>
      <path id="パス_1661" data-name="パス 1661" d="M42.4,65.666a1.365,1.365,0,1,1-1.363-1.37A1.366,1.366,0,0,1,42.4,65.666Z" transform="translate(74.194 -64.296)" fill="#3ade79"/>
      <path id="パス_1662" data-name="パス 1662" d="M49.25,65.666a1.366,1.366,0,1,1-1.366-1.37A1.373,1.373,0,0,1,49.25,65.666Z" transform="translate(90.118 -64.296)" fill="#3ade79"/>
      <path id="パス_1663" data-name="パス 1663" d="M56.1,65.666a1.366,1.366,0,1,1-1.37-1.37A1.371,1.371,0,0,1,56.1,65.666Z" transform="translate(106.039 -64.296)" fill="#3ade79"/>
      <circle id="楕円形_231" data-name="楕円形 231" cx="1.367" cy="1.367" r="1.367" transform="translate(182.173 0.001)" fill="#3ade79"/>
      <path id="パス_1664" data-name="パス 1664" d="M69.8,65.666a1.366,1.366,0,1,1-1.366-1.37A1.366,1.366,0,0,1,69.8,65.666Z" transform="translate(137.881 -64.296)" fill="#3ade79"/>
      <path id="パス_1665" data-name="パス 1665" d="M76.645,65.666a1.366,1.366,0,1,1-1.366-1.37A1.366,1.366,0,0,1,76.645,65.666Z" transform="translate(153.802 -64.296)" fill="#3ade79"/>
      <path id="パス_1666" data-name="パス 1666" d="M83.495,65.666a1.366,1.366,0,1,1-1.366-1.37A1.369,1.369,0,0,1,83.495,65.666Z" transform="translate(169.727 -64.296)" fill="#3ade79"/>
      <path id="パス_1667" data-name="パス 1667" d="M90.346,65.666A1.368,1.368,0,1,1,88.98,64.3,1.366,1.366,0,0,1,90.346,65.666Z" transform="translate(185.646 -64.296)" fill="#3ade79"/>
      <circle id="楕円形_232" data-name="楕円形 232" cx="1.367" cy="1.367" r="1.367" transform="translate(296.027 0.001)" fill="#3ade79"/>
      <path id="パス_1668" data-name="パス 1668" d="M104.038,65.666a1.365,1.365,0,1,1-1.363-1.37A1.364,1.364,0,0,1,104.038,65.666Z" transform="translate(217.489 -64.296)" fill="#3ade79"/>
      <path id="パス_1669" data-name="パス 1669" d="M110.89,65.666a1.366,1.366,0,1,1-1.366-1.37A1.369,1.369,0,0,1,110.89,65.666Z" transform="translate(233.411 -64.296)" fill="#3ade79"/>
      <path id="パス_1670" data-name="パス 1670" d="M117.737,65.666a1.365,1.365,0,1,1-1.366-1.37A1.366,1.366,0,0,1,117.737,65.666Z" transform="translate(249.335 -64.296)" fill="#3ade79"/>
      <path id="パス_1671" data-name="パス 1671" d="M124.588,65.666a1.366,1.366,0,1,1-1.366-1.37A1.366,1.366,0,0,1,124.588,65.666Z" transform="translate(265.255 -64.296)" fill="#3ade79"/>
      <path id="パス_1672" data-name="パス 1672" d="M131.437,65.666a1.366,1.366,0,1,1-1.366-1.37A1.364,1.364,0,0,1,131.437,65.666Z" transform="translate(281.177 -64.296)" fill="#3ade79"/>
      <path id="パス_1673" data-name="パス 1673" d="M138.287,65.666a1.366,1.366,0,1,1-1.366-1.37A1.369,1.369,0,0,1,138.287,65.666Z" transform="translate(297.101 -64.296)" fill="#3ade79"/>
    </g>
    <g id="グループ_609" data-name="グループ 609" transform="translate(5.42 177.596)">
      <path id="パス_1674" data-name="パス 1674" d="M8.153,59.224a1.366,1.366,0,1,1-1.366-1.366A1.364,1.364,0,0,1,8.153,59.224Z" transform="translate(-5.42 -57.858)" fill="#3ade79"/>
      <path id="パス_1675" data-name="パス 1675" d="M15,59.224a1.366,1.366,0,1,1-1.366-1.366A1.369,1.369,0,0,1,15,59.224Z" transform="translate(10.504 -57.858)" fill="#3ade79"/>
      <path id="パス_1676" data-name="パス 1676" d="M21.849,59.224a1.365,1.365,0,1,1-1.366-1.366A1.364,1.364,0,0,1,21.849,59.224Z" transform="translate(26.426 -57.858)" fill="#3ade79"/>
      <path id="パス_1677" data-name="パス 1677" d="M28.7,59.224a1.365,1.365,0,1,1-1.366-1.366A1.366,1.366,0,0,1,28.7,59.224Z" transform="translate(42.35 -57.858)" fill="#3ade79"/>
      <path id="パス_1678" data-name="パス 1678" d="M35.553,59.224a1.368,1.368,0,1,1-1.366-1.366A1.366,1.366,0,0,1,35.553,59.224Z" transform="translate(58.269 -57.858)" fill="#3ade79"/>
      <path id="パス_1679" data-name="パス 1679" d="M42.4,59.224a1.365,1.365,0,1,1-1.363-1.366A1.364,1.364,0,0,1,42.4,59.224Z" transform="translate(74.194 -57.858)" fill="#3ade79"/>
      <path id="パス_1680" data-name="パス 1680" d="M49.25,59.224a1.366,1.366,0,1,1-1.366-1.366A1.371,1.371,0,0,1,49.25,59.224Z" transform="translate(90.118 -57.858)" fill="#3ade79"/>
      <path id="パス_1681" data-name="パス 1681" d="M56.1,59.224a1.366,1.366,0,1,1-1.37-1.366A1.369,1.369,0,0,1,56.1,59.224Z" transform="translate(106.039 -57.858)" fill="#3ade79"/>
      <path id="パス_1682" data-name="パス 1682" d="M62.947,59.224a1.366,1.366,0,1,1-1.366-1.366A1.364,1.364,0,0,1,62.947,59.224Z" transform="translate(121.959 -57.858)" fill="#3ade79"/>
      <path id="パス_1683" data-name="パス 1683" d="M69.8,59.224a1.366,1.366,0,1,1-1.366-1.366A1.364,1.364,0,0,1,69.8,59.224Z" transform="translate(137.881 -57.858)" fill="#3ade79"/>
      <path id="パス_1684" data-name="パス 1684" d="M76.645,59.224a1.366,1.366,0,1,1-1.366-1.366A1.364,1.364,0,0,1,76.645,59.224Z" transform="translate(153.802 -57.858)" fill="#3ade79"/>
      <path id="パス_1685" data-name="パス 1685" d="M83.495,59.224a1.366,1.366,0,1,1-1.366-1.366A1.366,1.366,0,0,1,83.495,59.224Z" transform="translate(169.727 -57.858)" fill="#3ade79"/>
      <path id="パス_1686" data-name="パス 1686" d="M90.346,59.224a1.368,1.368,0,1,1-1.366-1.366A1.364,1.364,0,0,1,90.346,59.224Z" transform="translate(185.646 -57.858)" fill="#3ade79"/>
      <path id="パス_1687" data-name="パス 1687" d="M97.192,59.224a1.366,1.366,0,1,1-1.366-1.366A1.364,1.364,0,0,1,97.192,59.224Z" transform="translate(201.568 -57.858)" fill="#3ade79"/>
      <path id="パス_1688" data-name="パス 1688" d="M104.038,59.224a1.365,1.365,0,1,1-1.363-1.366A1.361,1.361,0,0,1,104.038,59.224Z" transform="translate(217.489 -57.858)" fill="#3ade79"/>
      <path id="パス_1689" data-name="パス 1689" d="M110.89,59.224a1.366,1.366,0,1,1-1.366-1.366A1.366,1.366,0,0,1,110.89,59.224Z" transform="translate(233.411 -57.858)" fill="#3ade79"/>
      <path id="パス_1690" data-name="パス 1690" d="M117.737,59.224a1.365,1.365,0,1,1-1.366-1.366A1.364,1.364,0,0,1,117.737,59.224Z" transform="translate(249.335 -57.858)" fill="#3ade79"/>
      <path id="パス_1691" data-name="パス 1691" d="M124.588,59.224a1.366,1.366,0,1,1-1.366-1.366A1.364,1.364,0,0,1,124.588,59.224Z" transform="translate(265.255 -57.858)" fill="#3ade79"/>
      <path id="パス_1692" data-name="パス 1692" d="M131.437,59.224a1.366,1.366,0,1,1-1.366-1.366A1.362,1.362,0,0,1,131.437,59.224Z" transform="translate(281.177 -57.858)" fill="#3ade79"/>
      <path id="パス_1693" data-name="パス 1693" d="M138.287,59.224a1.366,1.366,0,1,1-1.366-1.366A1.366,1.366,0,0,1,138.287,59.224Z" transform="translate(297.101 -57.858)" fill="#3ade79"/>
    </g>
    <g id="グループ_610" data-name="グループ 610" transform="translate(5.42 156.188)">
      <path id="パス_1694" data-name="パス 1694" d="M8.153,52.789a1.366,1.366,0,1,1-1.366-1.37A1.366,1.366,0,0,1,8.153,52.789Z" transform="translate(-5.42 -51.419)" fill="#3ade79"/>
      <path id="パス_1695" data-name="パス 1695" d="M15,52.789a1.366,1.366,0,1,1-1.366-1.37A1.371,1.371,0,0,1,15,52.789Z" transform="translate(10.504 -51.419)" fill="#3ade79"/>
      <path id="パス_1696" data-name="パス 1696" d="M21.849,52.789a1.365,1.365,0,1,1-1.366-1.37A1.366,1.366,0,0,1,21.849,52.789Z" transform="translate(26.426 -51.419)" fill="#3ade79"/>
      <path id="パス_1697" data-name="パス 1697" d="M28.7,52.789a1.365,1.365,0,1,1-1.366-1.37A1.369,1.369,0,0,1,28.7,52.789Z" transform="translate(42.35 -51.419)" fill="#3ade79"/>
      <path id="パス_1698" data-name="パス 1698" d="M35.553,52.789a1.368,1.368,0,1,1-1.366-1.37A1.369,1.369,0,0,1,35.553,52.789Z" transform="translate(58.269 -51.419)" fill="#3ade79"/>
      <path id="パス_1699" data-name="パス 1699" d="M42.4,52.789a1.365,1.365,0,1,1-1.363-1.37A1.366,1.366,0,0,1,42.4,52.789Z" transform="translate(74.194 -51.419)" fill="#3ade79"/>
      <path id="パス_1700" data-name="パス 1700" d="M49.25,52.789a1.366,1.366,0,1,1-1.366-1.37A1.373,1.373,0,0,1,49.25,52.789Z" transform="translate(90.118 -51.419)" fill="#3ade79"/>
      <path id="パス_1701" data-name="パス 1701" d="M56.1,52.789a1.366,1.366,0,1,1-1.37-1.37A1.371,1.371,0,0,1,56.1,52.789Z" transform="translate(106.039 -51.419)" fill="#3ade79"/>
      <path id="パス_1702" data-name="パス 1702" d="M62.947,52.789a1.366,1.366,0,1,1-1.366-1.37A1.366,1.366,0,0,1,62.947,52.789Z" transform="translate(121.959 -51.419)" fill="#3ade79"/>
      <path id="パス_1703" data-name="パス 1703" d="M69.8,52.789a1.366,1.366,0,1,1-1.366-1.37A1.366,1.366,0,0,1,69.8,52.789Z" transform="translate(137.881 -51.419)" fill="#3ade79"/>
      <path id="パス_1704" data-name="パス 1704" d="M76.645,52.789a1.366,1.366,0,1,1-1.366-1.37A1.366,1.366,0,0,1,76.645,52.789Z" transform="translate(153.802 -51.419)" fill="#3ade79"/>
      <path id="パス_1705" data-name="パス 1705" d="M83.495,52.789a1.366,1.366,0,1,1-1.366-1.37A1.369,1.369,0,0,1,83.495,52.789Z" transform="translate(169.727 -51.419)" fill="#3ade79"/>
      <path id="パス_1706" data-name="パス 1706" d="M90.346,52.789a1.368,1.368,0,1,1-1.366-1.37A1.366,1.366,0,0,1,90.346,52.789Z" transform="translate(185.646 -51.419)" fill="#3ade79"/>
      <path id="パス_1707" data-name="パス 1707" d="M97.192,52.789a1.366,1.366,0,1,1-1.366-1.37A1.366,1.366,0,0,1,97.192,52.789Z" transform="translate(201.568 -51.419)" fill="#3ade79"/>
      <path id="パス_1708" data-name="パス 1708" d="M104.038,52.789a1.365,1.365,0,1,1-1.363-1.37A1.364,1.364,0,0,1,104.038,52.789Z" transform="translate(217.489 -51.419)" fill="#3ade79"/>
      <path id="パス_1709" data-name="パス 1709" d="M110.89,52.789a1.366,1.366,0,1,1-1.366-1.37A1.369,1.369,0,0,1,110.89,52.789Z" transform="translate(233.411 -51.419)" fill="#3ade79"/>
      <path id="パス_1710" data-name="パス 1710" d="M117.737,52.789a1.365,1.365,0,1,1-1.366-1.37A1.366,1.366,0,0,1,117.737,52.789Z" transform="translate(249.335 -51.419)" fill="#3ade79"/>
      <path id="パス_1711" data-name="パス 1711" d="M124.588,52.789a1.366,1.366,0,1,1-1.366-1.37A1.366,1.366,0,0,1,124.588,52.789Z" transform="translate(265.255 -51.419)" fill="#3ade79"/>
      <path id="パス_1712" data-name="パス 1712" d="M131.437,52.789a1.366,1.366,0,1,1-1.366-1.37A1.364,1.364,0,0,1,131.437,52.789Z" transform="translate(281.177 -51.419)" fill="#3ade79"/>
      <path id="パス_1713" data-name="パス 1713" d="M138.287,52.789a1.366,1.366,0,1,1-1.366-1.37A1.369,1.369,0,0,1,138.287,52.789Z" transform="translate(297.101 -51.419)" fill="#3ade79"/>
    </g>
    <g id="グループ_611" data-name="グループ 611" transform="translate(5.42 134.784)">
      <path id="パス_1714" data-name="パス 1714" d="M8.153,46.347a1.366,1.366,0,1,1-1.366-1.366A1.364,1.364,0,0,1,8.153,46.347Z" transform="translate(-5.42 -44.981)" fill="#3ade79"/>
      <path id="パス_1715" data-name="パス 1715" d="M15,46.347a1.366,1.366,0,1,1-1.366-1.366A1.369,1.369,0,0,1,15,46.347Z" transform="translate(10.504 -44.981)" fill="#3ade79"/>
      <path id="パス_1716" data-name="パス 1716" d="M21.849,46.347a1.365,1.365,0,1,1-1.366-1.366A1.364,1.364,0,0,1,21.849,46.347Z" transform="translate(26.426 -44.981)" fill="#3ade79"/>
      <path id="パス_1717" data-name="パス 1717" d="M28.7,46.347a1.365,1.365,0,1,1-1.366-1.366A1.366,1.366,0,0,1,28.7,46.347Z" transform="translate(42.35 -44.981)" fill="#3ade79"/>
      <path id="パス_1718" data-name="パス 1718" d="M35.553,46.347a1.368,1.368,0,1,1-1.366-1.366A1.366,1.366,0,0,1,35.553,46.347Z" transform="translate(58.269 -44.981)" fill="#3ade79"/>
      <path id="パス_1719" data-name="パス 1719" d="M42.4,46.347a1.365,1.365,0,1,1-1.363-1.366A1.364,1.364,0,0,1,42.4,46.347Z" transform="translate(74.194 -44.981)" fill="#3ade79"/>
      <path id="パス_1720" data-name="パス 1720" d="M49.25,46.347a1.366,1.366,0,1,1-1.366-1.366A1.371,1.371,0,0,1,49.25,46.347Z" transform="translate(90.118 -44.981)" fill="#3ade79"/>
      <path id="パス_1721" data-name="パス 1721" d="M56.1,46.347a1.366,1.366,0,1,1-1.37-1.366A1.369,1.369,0,0,1,56.1,46.347Z" transform="translate(106.039 -44.981)" fill="#3ade79"/>
      <path id="パス_1722" data-name="パス 1722" d="M62.947,46.347a1.366,1.366,0,1,1-1.366-1.366A1.364,1.364,0,0,1,62.947,46.347Z" transform="translate(121.959 -44.981)" fill="#3ade79"/>
      <path id="パス_1723" data-name="パス 1723" d="M69.8,46.347a1.366,1.366,0,1,1-1.366-1.366A1.364,1.364,0,0,1,69.8,46.347Z" transform="translate(137.881 -44.981)" fill="#3ade79"/>
      <path id="パス_1724" data-name="パス 1724" d="M76.645,46.347a1.366,1.366,0,1,1-1.366-1.366A1.364,1.364,0,0,1,76.645,46.347Z" transform="translate(153.802 -44.981)" fill="#3ade79"/>
      <path id="パス_1725" data-name="パス 1725" d="M83.495,46.347a1.366,1.366,0,1,1-1.366-1.366A1.366,1.366,0,0,1,83.495,46.347Z" transform="translate(169.727 -44.981)" fill="#3ade79"/>
      <path id="パス_1726" data-name="パス 1726" d="M90.346,46.347a1.368,1.368,0,1,1-1.366-1.366A1.364,1.364,0,0,1,90.346,46.347Z" transform="translate(185.646 -44.981)" fill="#3ade79"/>
      <path id="パス_1727" data-name="パス 1727" d="M97.192,46.347a1.366,1.366,0,1,1-1.366-1.366A1.364,1.364,0,0,1,97.192,46.347Z" transform="translate(201.568 -44.981)" fill="#3ade79"/>
      <path id="パス_1728" data-name="パス 1728" d="M104.038,46.347a1.365,1.365,0,1,1-1.363-1.366A1.361,1.361,0,0,1,104.038,46.347Z" transform="translate(217.489 -44.981)" fill="#3ade79"/>
      <path id="パス_1729" data-name="パス 1729" d="M110.89,46.347a1.366,1.366,0,1,1-1.366-1.366A1.366,1.366,0,0,1,110.89,46.347Z" transform="translate(233.411 -44.981)" fill="#3ade79"/>
      <path id="パス_1730" data-name="パス 1730" d="M117.737,46.347a1.365,1.365,0,1,1-1.366-1.366A1.364,1.364,0,0,1,117.737,46.347Z" transform="translate(249.335 -44.981)" fill="#3ade79"/>
      <path id="パス_1731" data-name="パス 1731" d="M124.588,46.347a1.366,1.366,0,1,1-1.366-1.366A1.364,1.364,0,0,1,124.588,46.347Z" transform="translate(265.255 -44.981)" fill="#3ade79"/>
      <path id="パス_1732" data-name="パス 1732" d="M131.437,46.347a1.366,1.366,0,1,1-1.366-1.366A1.362,1.362,0,0,1,131.437,46.347Z" transform="translate(281.177 -44.981)" fill="#3ade79"/>
      <path id="パス_1733" data-name="パス 1733" d="M138.287,46.347a1.366,1.366,0,1,1-1.366-1.366A1.366,1.366,0,0,1,138.287,46.347Z" transform="translate(297.101 -44.981)" fill="#3ade79"/>
    </g>
    <g id="グループ_612" data-name="グループ 612" transform="translate(5.42 113.379)">
      <path id="パス_1734" data-name="パス 1734" d="M8.153,39.909a1.366,1.366,0,1,1-1.366-1.366A1.366,1.366,0,0,1,8.153,39.909Z" transform="translate(-5.42 -38.543)" fill="#3ade79"/>
      <path id="パス_1735" data-name="パス 1735" d="M15,39.909a1.366,1.366,0,1,1-1.366-1.366A1.371,1.371,0,0,1,15,39.909Z" transform="translate(10.504 -38.543)" fill="#3ade79"/>
      <path id="パス_1736" data-name="パス 1736" d="M21.849,39.909a1.365,1.365,0,1,1-1.366-1.366A1.366,1.366,0,0,1,21.849,39.909Z" transform="translate(26.426 -38.543)" fill="#3ade79"/>
      <path id="パス_1737" data-name="パス 1737" d="M28.7,39.909a1.365,1.365,0,1,1-1.366-1.366A1.369,1.369,0,0,1,28.7,39.909Z" transform="translate(42.35 -38.543)" fill="#3ade79"/>
      <path id="パス_1738" data-name="パス 1738" d="M35.553,39.909a1.368,1.368,0,1,1-1.366-1.366A1.369,1.369,0,0,1,35.553,39.909Z" transform="translate(58.269 -38.543)" fill="#3ade79"/>
      <path id="パス_1739" data-name="パス 1739" d="M42.4,39.909a1.365,1.365,0,1,1-1.363-1.366A1.366,1.366,0,0,1,42.4,39.909Z" transform="translate(74.194 -38.543)" fill="#3ade79"/>
      <path id="パス_1740" data-name="パス 1740" d="M49.25,39.909a1.366,1.366,0,1,1-1.366-1.366A1.373,1.373,0,0,1,49.25,39.909Z" transform="translate(90.118 -38.543)" fill="#3ade79"/>
      <path id="パス_1741" data-name="パス 1741" d="M56.1,39.909a1.366,1.366,0,1,1-1.37-1.366A1.371,1.371,0,0,1,56.1,39.909Z" transform="translate(106.039 -38.543)" fill="#3ade79"/>
      <path id="パス_1742" data-name="パス 1742" d="M62.947,39.909a1.366,1.366,0,1,1-1.366-1.366A1.366,1.366,0,0,1,62.947,39.909Z" transform="translate(121.959 -38.543)" fill="#3ade79"/>
      <path id="パス_1743" data-name="パス 1743" d="M69.8,39.909a1.366,1.366,0,1,1-1.366-1.366A1.366,1.366,0,0,1,69.8,39.909Z" transform="translate(137.881 -38.543)" fill="#3ade79"/>
      <path id="パス_1744" data-name="パス 1744" d="M76.645,39.909a1.366,1.366,0,1,1-1.366-1.366A1.366,1.366,0,0,1,76.645,39.909Z" transform="translate(153.802 -38.543)" fill="#3ade79"/>
      <path id="パス_1745" data-name="パス 1745" d="M83.495,39.909a1.366,1.366,0,1,1-1.366-1.366A1.369,1.369,0,0,1,83.495,39.909Z" transform="translate(169.727 -38.543)" fill="#3ade79"/>
      <path id="パス_1746" data-name="パス 1746" d="M90.346,39.909a1.368,1.368,0,1,1-1.366-1.366A1.366,1.366,0,0,1,90.346,39.909Z" transform="translate(185.646 -38.543)" fill="#3ade79"/>
      <path id="パス_1747" data-name="パス 1747" d="M97.192,39.909a1.366,1.366,0,1,1-1.366-1.366A1.366,1.366,0,0,1,97.192,39.909Z" transform="translate(201.568 -38.543)" fill="#3ade79"/>
      <path id="パス_1748" data-name="パス 1748" d="M104.038,39.909a1.365,1.365,0,1,1-1.363-1.366A1.364,1.364,0,0,1,104.038,39.909Z" transform="translate(217.489 -38.543)" fill="#3ade79"/>
      <path id="パス_1749" data-name="パス 1749" d="M110.89,39.909a1.366,1.366,0,1,1-1.366-1.366A1.369,1.369,0,0,1,110.89,39.909Z" transform="translate(233.411 -38.543)" fill="#3ade79"/>
      <path id="パス_1750" data-name="パス 1750" d="M117.737,39.909a1.365,1.365,0,1,1-1.366-1.366A1.366,1.366,0,0,1,117.737,39.909Z" transform="translate(249.335 -38.543)" fill="#3ade79"/>
      <path id="パス_1751" data-name="パス 1751" d="M124.588,39.909a1.366,1.366,0,1,1-1.366-1.366A1.366,1.366,0,0,1,124.588,39.909Z" transform="translate(265.255 -38.543)" fill="#3ade79"/>
      <path id="パス_1752" data-name="パス 1752" d="M131.437,39.909a1.366,1.366,0,1,1-1.366-1.366A1.364,1.364,0,0,1,131.437,39.909Z" transform="translate(281.177 -38.543)" fill="#3ade79"/>
      <path id="パス_1753" data-name="パス 1753" d="M138.287,39.909a1.366,1.366,0,1,1-1.366-1.366A1.369,1.369,0,0,1,138.287,39.909Z" transform="translate(297.101 -38.543)" fill="#3ade79"/>
    </g>
    <g id="グループ_613" data-name="グループ 613" transform="translate(5.42 91.972)">
      <path id="パス_1754" data-name="パス 1754" d="M8.153,33.47A1.366,1.366,0,1,1,6.786,32.1,1.364,1.364,0,0,1,8.153,33.47Z" transform="translate(-5.42 -32.104)" fill="#3ade79"/>
      <path id="パス_1755" data-name="パス 1755" d="M15,33.47A1.366,1.366,0,1,1,13.636,32.1,1.369,1.369,0,0,1,15,33.47Z" transform="translate(10.504 -32.104)" fill="#3ade79"/>
      <path id="パス_1756" data-name="パス 1756" d="M21.849,33.47A1.365,1.365,0,1,1,20.482,32.1,1.364,1.364,0,0,1,21.849,33.47Z" transform="translate(26.426 -32.104)" fill="#3ade79"/>
      <path id="パス_1757" data-name="パス 1757" d="M28.7,33.47A1.365,1.365,0,1,1,27.332,32.1,1.366,1.366,0,0,1,28.7,33.47Z" transform="translate(42.35 -32.104)" fill="#3ade79"/>
      <path id="パス_1758" data-name="パス 1758" d="M35.553,33.47A1.368,1.368,0,1,1,34.187,32.1,1.366,1.366,0,0,1,35.553,33.47Z" transform="translate(58.269 -32.104)" fill="#3ade79"/>
      <path id="パス_1759" data-name="パス 1759" d="M42.4,33.47A1.365,1.365,0,1,1,41.033,32.1,1.364,1.364,0,0,1,42.4,33.47Z" transform="translate(74.194 -32.104)" fill="#3ade79"/>
      <path id="パス_1760" data-name="パス 1760" d="M49.25,33.47A1.366,1.366,0,1,1,47.883,32.1,1.371,1.371,0,0,1,49.25,33.47Z" transform="translate(90.118 -32.104)" fill="#3ade79"/>
      <path id="パス_1761" data-name="パス 1761" d="M56.1,33.47a1.366,1.366,0,1,1-1.37-1.366A1.369,1.369,0,0,1,56.1,33.47Z" transform="translate(106.039 -32.104)" fill="#3ade79"/>
      <path id="パス_1762" data-name="パス 1762" d="M62.947,33.47A1.366,1.366,0,1,1,61.58,32.1,1.364,1.364,0,0,1,62.947,33.47Z" transform="translate(121.959 -32.104)" fill="#3ade79"/>
      <path id="パス_1763" data-name="パス 1763" d="M69.8,33.47A1.366,1.366,0,1,1,68.429,32.1,1.364,1.364,0,0,1,69.8,33.47Z" transform="translate(137.881 -32.104)" fill="#3ade79"/>
      <path id="パス_1764" data-name="パス 1764" d="M76.645,33.47A1.366,1.366,0,1,1,75.278,32.1,1.364,1.364,0,0,1,76.645,33.47Z" transform="translate(153.802 -32.104)" fill="#3ade79"/>
      <path id="パス_1765" data-name="パス 1765" d="M83.495,33.47A1.366,1.366,0,1,1,82.128,32.1,1.366,1.366,0,0,1,83.495,33.47Z" transform="translate(169.727 -32.104)" fill="#3ade79"/>
      <path id="パス_1766" data-name="パス 1766" d="M90.346,33.47A1.368,1.368,0,1,1,88.98,32.1,1.364,1.364,0,0,1,90.346,33.47Z" transform="translate(185.646 -32.104)" fill="#3ade79"/>
      <path id="パス_1767" data-name="パス 1767" d="M97.192,33.47A1.366,1.366,0,1,1,95.825,32.1,1.364,1.364,0,0,1,97.192,33.47Z" transform="translate(201.568 -32.104)" fill="#3ade79"/>
      <path id="パス_1768" data-name="パス 1768" d="M104.038,33.47a1.365,1.365,0,1,1-1.363-1.366A1.361,1.361,0,0,1,104.038,33.47Z" transform="translate(217.489 -32.104)" fill="#3ade79"/>
      <path id="パス_1769" data-name="パス 1769" d="M110.89,33.47a1.366,1.366,0,1,1-1.366-1.366A1.366,1.366,0,0,1,110.89,33.47Z" transform="translate(233.411 -32.104)" fill="#3ade79"/>
      <path id="パス_1770" data-name="パス 1770" d="M117.737,33.47A1.365,1.365,0,1,1,116.37,32.1,1.364,1.364,0,0,1,117.737,33.47Z" transform="translate(249.335 -32.104)" fill="#3ade79"/>
      <path id="パス_1771" data-name="パス 1771" d="M124.588,33.47a1.366,1.366,0,1,1-1.366-1.366A1.364,1.364,0,0,1,124.588,33.47Z" transform="translate(265.255 -32.104)" fill="#3ade79"/>
      <path id="パス_1772" data-name="パス 1772" d="M131.437,33.47A1.366,1.366,0,1,1,130.07,32.1,1.362,1.362,0,0,1,131.437,33.47Z" transform="translate(281.177 -32.104)" fill="#3ade79"/>
      <path id="パス_1773" data-name="パス 1773" d="M138.287,33.47A1.366,1.366,0,1,1,136.92,32.1,1.366,1.366,0,0,1,138.287,33.47Z" transform="translate(297.101 -32.104)" fill="#3ade79"/>
    </g>
    <g id="グループ_614" data-name="グループ 614" transform="translate(5.42 70.567)">
      <path id="パス_1774" data-name="パス 1774" d="M8.153,27.032a1.366,1.366,0,1,1-1.366-1.366A1.364,1.364,0,0,1,8.153,27.032Z" transform="translate(-5.42 -25.666)" fill="#3ade79"/>
      <path id="パス_1775" data-name="パス 1775" d="M15,27.032a1.366,1.366,0,1,1-1.366-1.366A1.369,1.369,0,0,1,15,27.032Z" transform="translate(10.504 -25.666)" fill="#3ade79"/>
      <path id="パス_1776" data-name="パス 1776" d="M21.849,27.032a1.365,1.365,0,1,1-1.366-1.366A1.364,1.364,0,0,1,21.849,27.032Z" transform="translate(26.426 -25.666)" fill="#3ade79"/>
      <path id="パス_1777" data-name="パス 1777" d="M28.7,27.032a1.365,1.365,0,1,1-1.366-1.366A1.366,1.366,0,0,1,28.7,27.032Z" transform="translate(42.35 -25.666)" fill="#3ade79"/>
      <path id="パス_1778" data-name="パス 1778" d="M35.553,27.032a1.368,1.368,0,1,1-1.366-1.366A1.366,1.366,0,0,1,35.553,27.032Z" transform="translate(58.269 -25.666)" fill="#3ade79"/>
      <path id="パス_1779" data-name="パス 1779" d="M42.4,27.032a1.365,1.365,0,1,1-1.363-1.366A1.364,1.364,0,0,1,42.4,27.032Z" transform="translate(74.194 -25.666)" fill="#3ade79"/>
      <path id="パス_1780" data-name="パス 1780" d="M49.25,27.032a1.366,1.366,0,1,1-1.366-1.366A1.371,1.371,0,0,1,49.25,27.032Z" transform="translate(90.118 -25.666)" fill="#3ade79"/>
      <path id="パス_1781" data-name="パス 1781" d="M56.1,27.032a1.366,1.366,0,1,1-1.37-1.366A1.369,1.369,0,0,1,56.1,27.032Z" transform="translate(106.039 -25.666)" fill="#3ade79"/>
      <path id="パス_1782" data-name="パス 1782" d="M62.947,27.032a1.366,1.366,0,1,1-1.366-1.366A1.364,1.364,0,0,1,62.947,27.032Z" transform="translate(121.959 -25.666)" fill="#3ade79"/>
      <path id="パス_1783" data-name="パス 1783" d="M69.8,27.032a1.366,1.366,0,1,1-1.366-1.366A1.364,1.364,0,0,1,69.8,27.032Z" transform="translate(137.881 -25.666)" fill="#3ade79"/>
      <path id="パス_1784" data-name="パス 1784" d="M76.645,27.032a1.366,1.366,0,1,1-1.366-1.366A1.364,1.364,0,0,1,76.645,27.032Z" transform="translate(153.802 -25.666)" fill="#3ade79"/>
      <path id="パス_1785" data-name="パス 1785" d="M83.495,27.032a1.366,1.366,0,1,1-1.366-1.366A1.366,1.366,0,0,1,83.495,27.032Z" transform="translate(169.727 -25.666)" fill="#3ade79"/>
      <path id="パス_1786" data-name="パス 1786" d="M90.346,27.032a1.368,1.368,0,1,1-1.366-1.366A1.364,1.364,0,0,1,90.346,27.032Z" transform="translate(185.646 -25.666)" fill="#3ade79"/>
      <path id="パス_1787" data-name="パス 1787" d="M97.192,27.032a1.366,1.366,0,1,1-1.366-1.366A1.364,1.364,0,0,1,97.192,27.032Z" transform="translate(201.568 -25.666)" fill="#3ade79"/>
      <path id="パス_1788" data-name="パス 1788" d="M104.038,27.032a1.365,1.365,0,1,1-1.363-1.366A1.361,1.361,0,0,1,104.038,27.032Z" transform="translate(217.489 -25.666)" fill="#3ade79"/>
      <path id="パス_1789" data-name="パス 1789" d="M110.89,27.032a1.366,1.366,0,1,1-1.366-1.366A1.366,1.366,0,0,1,110.89,27.032Z" transform="translate(233.411 -25.666)" fill="#3ade79"/>
      <path id="パス_1790" data-name="パス 1790" d="M117.737,27.032a1.365,1.365,0,1,1-1.366-1.366A1.364,1.364,0,0,1,117.737,27.032Z" transform="translate(249.335 -25.666)" fill="#3ade79"/>
      <path id="パス_1791" data-name="パス 1791" d="M124.588,27.032a1.366,1.366,0,1,1-1.366-1.366A1.364,1.364,0,0,1,124.588,27.032Z" transform="translate(265.255 -25.666)" fill="#3ade79"/>
      <path id="パス_1792" data-name="パス 1792" d="M131.437,27.032a1.366,1.366,0,1,1-1.366-1.366A1.362,1.362,0,0,1,131.437,27.032Z" transform="translate(281.177 -25.666)" fill="#3ade79"/>
      <path id="パス_1793" data-name="パス 1793" d="M138.287,27.032a1.366,1.366,0,1,1-1.366-1.366A1.366,1.366,0,0,1,138.287,27.032Z" transform="translate(297.101 -25.666)" fill="#3ade79"/>
    </g>
    <g id="グループ_615" data-name="グループ 615" transform="translate(5.42 49.16)">
      <path id="パス_1794" data-name="パス 1794" d="M8.153,20.593a1.366,1.366,0,1,1-1.366-1.366A1.364,1.364,0,0,1,8.153,20.593Z" transform="translate(-5.42 -19.227)" fill="#3ade79"/>
      <path id="パス_1795" data-name="パス 1795" d="M15,20.593a1.366,1.366,0,1,1-1.366-1.366A1.369,1.369,0,0,1,15,20.593Z" transform="translate(10.504 -19.227)" fill="#3ade79"/>
      <path id="パス_1796" data-name="パス 1796" d="M21.849,20.593a1.365,1.365,0,1,1-1.366-1.366A1.364,1.364,0,0,1,21.849,20.593Z" transform="translate(26.426 -19.227)" fill="#3ade79"/>
      <path id="パス_1797" data-name="パス 1797" d="M28.7,20.593a1.365,1.365,0,1,1-1.366-1.366A1.366,1.366,0,0,1,28.7,20.593Z" transform="translate(42.35 -19.227)" fill="#3ade79"/>
      <path id="パス_1798" data-name="パス 1798" d="M35.553,20.593a1.368,1.368,0,1,1-1.366-1.366A1.366,1.366,0,0,1,35.553,20.593Z" transform="translate(58.269 -19.227)" fill="#3ade79"/>
      <path id="パス_1799" data-name="パス 1799" d="M42.4,20.593a1.365,1.365,0,1,1-1.363-1.366A1.364,1.364,0,0,1,42.4,20.593Z" transform="translate(74.194 -19.227)" fill="#3ade79"/>
      <path id="パス_1800" data-name="パス 1800" d="M49.25,20.593a1.366,1.366,0,1,1-1.366-1.366A1.371,1.371,0,0,1,49.25,20.593Z" transform="translate(90.118 -19.227)" fill="#3ade79"/>
      <path id="パス_1801" data-name="パス 1801" d="M56.1,20.593a1.366,1.366,0,1,1-1.37-1.366A1.369,1.369,0,0,1,56.1,20.593Z" transform="translate(106.039 -19.227)" fill="#3ade79"/>
      <path id="パス_1802" data-name="パス 1802" d="M62.947,20.593a1.366,1.366,0,1,1-1.366-1.366A1.364,1.364,0,0,1,62.947,20.593Z" transform="translate(121.959 -19.227)" fill="#3ade79"/>
      <path id="パス_1803" data-name="パス 1803" d="M69.8,20.593a1.366,1.366,0,1,1-1.366-1.366A1.364,1.364,0,0,1,69.8,20.593Z" transform="translate(137.881 -19.227)" fill="#3ade79"/>
      <path id="パス_1804" data-name="パス 1804" d="M76.645,20.593a1.366,1.366,0,1,1-1.366-1.366A1.364,1.364,0,0,1,76.645,20.593Z" transform="translate(153.802 -19.227)" fill="#3ade79"/>
      <path id="パス_1805" data-name="パス 1805" d="M83.495,20.593a1.366,1.366,0,1,1-1.366-1.366A1.366,1.366,0,0,1,83.495,20.593Z" transform="translate(169.727 -19.227)" fill="#3ade79"/>
      <path id="パス_1806" data-name="パス 1806" d="M90.346,20.593a1.368,1.368,0,1,1-1.366-1.366A1.364,1.364,0,0,1,90.346,20.593Z" transform="translate(185.646 -19.227)" fill="#3ade79"/>
      <path id="パス_1807" data-name="パス 1807" d="M97.192,20.593a1.366,1.366,0,1,1-1.366-1.366A1.364,1.364,0,0,1,97.192,20.593Z" transform="translate(201.568 -19.227)" fill="#3ade79"/>
      <path id="パス_1808" data-name="パス 1808" d="M104.038,20.593a1.365,1.365,0,1,1-1.363-1.366A1.361,1.361,0,0,1,104.038,20.593Z" transform="translate(217.489 -19.227)" fill="#3ade79"/>
      <path id="パス_1809" data-name="パス 1809" d="M110.89,20.593a1.366,1.366,0,1,1-1.366-1.366A1.366,1.366,0,0,1,110.89,20.593Z" transform="translate(233.411 -19.227)" fill="#3ade79"/>
      <path id="パス_1810" data-name="パス 1810" d="M117.737,20.593a1.365,1.365,0,1,1-1.366-1.366A1.364,1.364,0,0,1,117.737,20.593Z" transform="translate(249.335 -19.227)" fill="#3ade79"/>
      <path id="パス_1811" data-name="パス 1811" d="M124.588,20.593a1.366,1.366,0,1,1-1.366-1.366A1.364,1.364,0,0,1,124.588,20.593Z" transform="translate(265.255 -19.227)" fill="#3ade79"/>
      <path id="パス_1812" data-name="パス 1812" d="M131.437,20.593a1.366,1.366,0,1,1-1.366-1.366A1.362,1.362,0,0,1,131.437,20.593Z" transform="translate(281.177 -19.227)" fill="#3ade79"/>
      <path id="パス_1813" data-name="パス 1813" d="M138.287,20.593a1.366,1.366,0,1,1-1.366-1.366A1.366,1.366,0,0,1,138.287,20.593Z" transform="translate(297.101 -19.227)" fill="#3ade79"/>
    </g>
    <g id="グループ_616" data-name="グループ 616" transform="translate(5.42 27.759)">
      <path id="パス_1814" data-name="パス 1814" d="M8.153,14.156A1.366,1.366,0,1,1,6.786,12.79,1.364,1.364,0,0,1,8.153,14.156Z" transform="translate(-5.42 -12.79)" fill="#3ade79"/>
      <path id="パス_1815" data-name="パス 1815" d="M15,14.156a1.366,1.366,0,1,1-1.366-1.366A1.368,1.368,0,0,1,15,14.156Z" transform="translate(10.504 -12.79)" fill="#3ade79"/>
      <path id="パス_1816" data-name="パス 1816" d="M21.849,14.156a1.365,1.365,0,1,1-1.366-1.366A1.364,1.364,0,0,1,21.849,14.156Z" transform="translate(26.426 -12.79)" fill="#3ade79"/>
      <path id="パス_1817" data-name="パス 1817" d="M28.7,14.156a1.365,1.365,0,1,1-1.366-1.366A1.366,1.366,0,0,1,28.7,14.156Z" transform="translate(42.35 -12.79)" fill="#3ade79"/>
      <path id="パス_1818" data-name="パス 1818" d="M35.553,14.156a1.368,1.368,0,1,1-1.366-1.366A1.366,1.366,0,0,1,35.553,14.156Z" transform="translate(58.269 -12.79)" fill="#3ade79"/>
      <path id="パス_1819" data-name="パス 1819" d="M42.4,14.156a1.365,1.365,0,1,1-1.363-1.366A1.363,1.363,0,0,1,42.4,14.156Z" transform="translate(74.194 -12.79)" fill="#3ade79"/>
      <path id="パス_1820" data-name="パス 1820" d="M49.25,14.156a1.366,1.366,0,1,1-1.366-1.366A1.37,1.37,0,0,1,49.25,14.156Z" transform="translate(90.118 -12.79)" fill="#3ade79"/>
      <path id="パス_1821" data-name="パス 1821" d="M56.1,14.156a1.366,1.366,0,1,1-1.37-1.366A1.369,1.369,0,0,1,56.1,14.156Z" transform="translate(106.039 -12.79)" fill="#3ade79"/>
      <path id="パス_1822" data-name="パス 1822" d="M62.947,14.156A1.366,1.366,0,1,1,61.58,12.79,1.364,1.364,0,0,1,62.947,14.156Z" transform="translate(121.959 -12.79)" fill="#3ade79"/>
      <path id="パス_1823" data-name="パス 1823" d="M69.8,14.156a1.366,1.366,0,1,1-1.366-1.366A1.364,1.364,0,0,1,69.8,14.156Z" transform="translate(137.881 -12.79)" fill="#3ade79"/>
      <path id="パス_1824" data-name="パス 1824" d="M76.645,14.156a1.366,1.366,0,1,1-1.366-1.366A1.364,1.364,0,0,1,76.645,14.156Z" transform="translate(153.802 -12.79)" fill="#3ade79"/>
      <path id="パス_1825" data-name="パス 1825" d="M83.495,14.156a1.366,1.366,0,1,1-1.366-1.366A1.366,1.366,0,0,1,83.495,14.156Z" transform="translate(169.727 -12.79)" fill="#3ade79"/>
      <path id="パス_1826" data-name="パス 1826" d="M90.346,14.156A1.368,1.368,0,1,1,88.98,12.79,1.364,1.364,0,0,1,90.346,14.156Z" transform="translate(185.646 -12.79)" fill="#3ade79"/>
      <path id="パス_1827" data-name="パス 1827" d="M97.192,14.156a1.366,1.366,0,1,1-1.366-1.366A1.364,1.364,0,0,1,97.192,14.156Z" transform="translate(201.568 -12.79)" fill="#3ade79"/>
      <path id="パス_1828" data-name="パス 1828" d="M104.038,14.156a1.365,1.365,0,1,1-1.363-1.366A1.361,1.361,0,0,1,104.038,14.156Z" transform="translate(217.489 -12.79)" fill="#3ade79"/>
      <path id="パス_1829" data-name="パス 1829" d="M110.89,14.156a1.366,1.366,0,1,1-1.366-1.366A1.366,1.366,0,0,1,110.89,14.156Z" transform="translate(233.411 -12.79)" fill="#3ade79"/>
      <path id="パス_1830" data-name="パス 1830" d="M117.737,14.156a1.365,1.365,0,1,1-1.366-1.366A1.364,1.364,0,0,1,117.737,14.156Z" transform="translate(249.335 -12.79)" fill="#3ade79"/>
      <path id="パス_1831" data-name="パス 1831" d="M124.588,14.156a1.366,1.366,0,1,1-1.366-1.366A1.364,1.364,0,0,1,124.588,14.156Z" transform="translate(265.255 -12.79)" fill="#3ade79"/>
      <path id="パス_1832" data-name="パス 1832" d="M131.437,14.156a1.366,1.366,0,1,1-1.366-1.366A1.361,1.361,0,0,1,131.437,14.156Z" transform="translate(281.177 -12.79)" fill="#3ade79"/>
      <path id="パス_1833" data-name="パス 1833" d="M138.287,14.156a1.366,1.366,0,1,1-1.366-1.366A1.366,1.366,0,0,1,138.287,14.156Z" transform="translate(297.101 -12.79)" fill="#3ade79"/>
    </g>
    <g id="グループ_617" data-name="グループ 617" transform="translate(5.42 6.351)">
      <path id="パス_1834" data-name="パス 1834" d="M8.153,7.714A1.366,1.366,0,1,1,6.786,6.351,1.362,1.362,0,0,1,8.153,7.714Z" transform="translate(-5.42 -6.351)" fill="#3ade79"/>
      <path id="パス_1835" data-name="パス 1835" d="M15,7.714a1.366,1.366,0,1,1-1.366-1.363A1.366,1.366,0,0,1,15,7.714Z" transform="translate(10.504 -6.351)" fill="#3ade79"/>
      <path id="パス_1836" data-name="パス 1836" d="M21.849,7.714a1.365,1.365,0,1,1-1.366-1.363A1.362,1.362,0,0,1,21.849,7.714Z" transform="translate(26.426 -6.351)" fill="#3ade79"/>
      <path id="パス_1837" data-name="パス 1837" d="M28.7,7.714a1.365,1.365,0,1,1-1.366-1.363A1.364,1.364,0,0,1,28.7,7.714Z" transform="translate(42.35 -6.351)" fill="#3ade79"/>
      <path id="パス_1838" data-name="パス 1838" d="M35.553,7.714a1.368,1.368,0,1,1-1.366-1.363A1.364,1.364,0,0,1,35.553,7.714Z" transform="translate(58.269 -6.351)" fill="#3ade79"/>
      <path id="パス_1839" data-name="パス 1839" d="M42.4,7.714a1.365,1.365,0,1,1-1.363-1.363A1.361,1.361,0,0,1,42.4,7.714Z" transform="translate(74.194 -6.351)" fill="#3ade79"/>
      <path id="パス_1840" data-name="パス 1840" d="M49.25,7.714a1.366,1.366,0,1,1-1.366-1.363A1.369,1.369,0,0,1,49.25,7.714Z" transform="translate(90.118 -6.351)" fill="#3ade79"/>
      <path id="パス_1841" data-name="パス 1841" d="M56.1,7.714a1.366,1.366,0,1,1-1.37-1.363A1.367,1.367,0,0,1,56.1,7.714Z" transform="translate(106.039 -6.351)" fill="#3ade79"/>
      <path id="パス_1842" data-name="パス 1842" d="M62.947,7.714A1.366,1.366,0,1,1,61.58,6.351,1.362,1.362,0,0,1,62.947,7.714Z" transform="translate(121.959 -6.351)" fill="#3ade79"/>
      <path id="パス_1843" data-name="パス 1843" d="M69.8,7.714a1.366,1.366,0,1,1-1.366-1.363A1.362,1.362,0,0,1,69.8,7.714Z" transform="translate(137.881 -6.351)" fill="#3ade79"/>
      <path id="パス_1844" data-name="パス 1844" d="M76.645,7.714a1.366,1.366,0,1,1-1.366-1.363A1.362,1.362,0,0,1,76.645,7.714Z" transform="translate(153.802 -6.351)" fill="#3ade79"/>
      <path id="パス_1845" data-name="パス 1845" d="M83.495,7.714a1.366,1.366,0,1,1-1.366-1.363A1.364,1.364,0,0,1,83.495,7.714Z" transform="translate(169.727 -6.351)" fill="#3ade79"/>
      <path id="パス_1846" data-name="パス 1846" d="M90.346,7.714A1.368,1.368,0,1,1,88.98,6.351,1.362,1.362,0,0,1,90.346,7.714Z" transform="translate(185.646 -6.351)" fill="#3ade79"/>
      <path id="パス_1847" data-name="パス 1847" d="M97.192,7.714a1.366,1.366,0,1,1-1.366-1.363A1.362,1.362,0,0,1,97.192,7.714Z" transform="translate(201.568 -6.351)" fill="#3ade79"/>
      <path id="パス_1848" data-name="パス 1848" d="M104.038,7.714a1.365,1.365,0,1,1-1.363-1.363A1.359,1.359,0,0,1,104.038,7.714Z" transform="translate(217.489 -6.351)" fill="#3ade79"/>
      <path id="パス_1849" data-name="パス 1849" d="M110.89,7.714a1.366,1.366,0,1,1-1.366-1.363A1.364,1.364,0,0,1,110.89,7.714Z" transform="translate(233.411 -6.351)" fill="#3ade79"/>
      <path id="パス_1850" data-name="パス 1850" d="M117.737,7.714a1.365,1.365,0,1,1-1.366-1.363A1.362,1.362,0,0,1,117.737,7.714Z" transform="translate(249.335 -6.351)" fill="#3ade79"/>
      <path id="パス_1851" data-name="パス 1851" d="M124.588,7.714a1.366,1.366,0,1,1-1.366-1.363A1.362,1.362,0,0,1,124.588,7.714Z" transform="translate(265.255 -6.351)" fill="#3ade79"/>
      <path id="パス_1852" data-name="パス 1852" d="M131.437,7.714a1.366,1.366,0,1,1-1.366-1.363A1.36,1.36,0,0,1,131.437,7.714Z" transform="translate(281.177 -6.351)" fill="#3ade79"/>
      <path id="パス_1853" data-name="パス 1853" d="M138.287,7.714a1.366,1.366,0,1,1-1.366-1.363A1.364,1.364,0,0,1,138.287,7.714Z" transform="translate(297.101 -6.351)" fill="#3ade79"/>
    </g>
  </g>
</svg>
