<svg xmlns="http://www.w3.org/2000/svg" width="181.078" height="42.958" viewBox="0 0 181.078 42.958">
  <defs>
    <style>
      .cls-1 {
        fill: #ef8200;
      }

      .cls-2 {
        fill: #e4006e;
      }

      .cls-3 {
        fill: #b10101;
      }
    </style>
  </defs>
  <g id="news_ttl" transform="translate(-410 -1573.293)">
    <g id="グループ_514" data-name="グループ 514" transform="translate(450.792 1573.294)">
      <path id="パス_455" data-name="パス 455" class="cls-1" d="M451.037,63.061a4.484,4.484,0,0,1-4.468-4.5v6.314A15.506,15.506,0,0,0,462,80.417H476.18a4.5,4.5,0,0,0,0-9H462a6.528,6.528,0,0,1-6.5-6.544V63.061h18.46a4.5,4.5,0,0,0,0-9h-18.46v4.5A4.484,4.484,0,0,1,451.037,63.061Z" transform="translate(-446.569 -37.815)"/>
      <path id="パス_456" data-name="パス 456" class="cls-2" d="M462,24.446H476.18a4.5,4.5,0,0,0,0-9H462A15.506,15.506,0,0,0,446.569,30.99v5.2a4.484,4.484,0,0,1,4.468-4.5h4.469v-.7A6.528,6.528,0,0,1,462,24.446Z" transform="translate(-446.569 -15.447)"/>
      <path id="パス_457" data-name="パス 457" class="cls-3" d="M446.569,58.561a4.469,4.469,0,1,0,8.937,0v-4.5h-4.469A4.484,4.484,0,0,0,446.569,58.561Z" transform="translate(-446.569 -37.815)"/>
    </g>
    <g id="グループ_515" data-name="グループ 515" transform="translate(552.504 1573.293)">
      <path id="パス_460" data-name="パス 460" class="cls-2" d="M257.295,373.7a4.468,4.468,0,0,1,4.468-4.468h-3.885a4.017,4.017,0,0,1,0-8.034h17.846a4.468,4.468,0,0,0,0-8.936H257.878a12.954,12.954,0,0,0,0,25.908h3.885A4.468,4.468,0,0,1,257.295,373.7Z" transform="translate(-244.924 -352.262)"/>
      <path id="パス_461" data-name="パス 461" class="cls-1" d="M272.151,392.6h-3.714a4.468,4.468,0,0,1,0,8.937h3.714a4.017,4.017,0,1,1,0,8.034H252.167a4.468,4.468,0,0,0,0,8.937h19.984a12.954,12.954,0,1,0,0-25.908Z" transform="translate(-246.531 -375.627)"/>
      <path id="パス_462" data-name="パス 462" class="cls-3" d="M288.33,397.066a4.468,4.468,0,0,0-4.468-4.468H278.8a4.468,4.468,0,0,0,0,8.937h5.066A4.468,4.468,0,0,0,288.33,397.066Z" transform="translate(-261.956 -375.627)"/>
    </g>
    <g id="グループ_513" data-name="グループ 513" transform="translate(410 1573.294)">
      <path id="パス_468" data-name="パス 468" class="cls-2" d="M310.365,237.15a4.468,4.468,0,0,1,0,8.936,9.366,9.366,0,0,1,9.356,9.356v20.2a4.468,4.468,0,1,0,8.936,0v-20.2A18.313,18.313,0,0,0,310.365,237.15Z" transform="translate(-292.073 -237.15)"/>
      <path id="パス_469" data-name="パス 469" class="cls-1" d="M280.712,241.618a4.468,4.468,0,0,1,4.469-4.468,18.313,18.313,0,0,0-18.292,18.292v20.2a4.468,4.468,0,1,0,8.936,0v-20.2a9.366,9.366,0,0,1,9.356-9.356A4.468,4.468,0,0,1,280.712,241.618Z" transform="translate(-266.888 -237.15)"/>
      <ellipse id="楕円形_197" data-name="楕円形 197" class="cls-3" cx="4.468" cy="4.468" rx="4.468" ry="4.468" transform="translate(13.824 0)"/>
    </g>
    <g id="グループ_512" data-name="グループ 512" transform="translate(489.08 1573.293)">
      <path id="パス_473" data-name="パス 473" class="cls-2" d="M155.735,478.263c-.006.02-.017.036-.023.056-1.146,3.839-6.883,23.067-7.27,24.661a5.178,5.178,0,0,1-.675,1.919,1.875,1.875,0,0,1-.77.1,2.123,2.123,0,0,1-.756-.094h0a4.918,4.918,0,0,1-.69-1.93c-.615-2.531-6.357-28.14-6.415-28.4a4.506,4.506,0,0,0-8.794,1.971c.238,1.058,5.817,25.946,6.452,28.555.535,2.2,2.165,8.908,10.2,8.908s9.668-6.7,10.2-8.9c.149-.6,1.285-4.471,2.71-9.285-1.332-4.755-2.939-10.469-4.216-15A4.475,4.475,0,0,1,155.735,478.263Z" transform="translate(-130.232 -471.059)"/>
      <path id="パス_474" data-name="パス 474" class="cls-1" d="M226.191,471.17a4.506,4.506,0,0,0-5.383,3.411c-.058.259-5.8,25.867-6.415,28.4a5.169,5.169,0,0,1-.675,1.92,1.877,1.877,0,0,1-.77.1,2.121,2.121,0,0,1-.756-.094h0a4.914,4.914,0,0,1-.69-1.93c-.385-1.588-6.207-22.244-6.87-24.594-.005-.019-.016-.036-.022-.056a4.478,4.478,0,0,1,0,2.568c-1.3,4.363-3.015,10.117-4.44,14.93,1.363,4.867,2.438,8.729,2.572,9.28.535,2.2,2.165,8.908,10.2,8.908s9.668-6.7,10.2-8.908c.635-2.609,6.214-27.5,6.452-28.555A4.506,4.506,0,0,0,226.191,471.17Z" transform="translate(-170.496 -471.059)"/>
      <path id="パス_475" data-name="パス 475" class="cls-3" d="M198.663,483.839a4.465,4.465,0,0,0-.195-.494c-.048-.112-.085-.23-.143-.338a4.278,4.278,0,0,0-.235-.362c-.081-.123-.154-.253-.247-.368s-.192-.2-.289-.3-.2-.22-.316-.317-.233-.162-.349-.242a4.454,4.454,0,0,0-.372-.25c-.107-.059-.224-.1-.336-.148a4.516,4.516,0,0,0-.488-.2c-.119-.037-.244-.055-.367-.083a4.717,4.717,0,0,0-.5-.1,4.5,4.5,0,0,0-.466-.012c-.137,0-.274-.008-.409,0a4.469,4.469,0,0,0-.56.1c-.1.023-.211.035-.313.066a4.554,4.554,0,0,0-.559.22c-.09.04-.185.069-.272.115a4.479,4.479,0,0,0-.458.3c-.09.063-.188.114-.273.183a4.446,4.446,0,0,0-.384.375c-.076.078-.162.147-.233.232a4.479,4.479,0,0,0-.273.394c-.074.11-.157.212-.221.329s-.1.23-.152.345a4.182,4.182,0,0,0-.241,3.05c1.276,4.528,2.884,10.242,4.216,15,1.424-4.813,3.137-10.567,4.44-14.93A4.479,4.479,0,0,0,198.663,483.839Z" transform="translate(-164.549 -476.568)"/>
    </g>
  </g>
</svg>
