<svg xmlns="http://www.w3.org/2000/svg" xmlns:xlink="http://www.w3.org/1999/xlink" width="383.215" height="229.36" viewBox="0 0 383.215 229.36">
  <defs>
    <linearGradient id="linear-gradient" x1="44.231" y1="-8.378" x2="45.331" y2="-8.922" gradientUnits="objectBoundingBox">
      <stop offset="0" stop-color="#c64000"/>
      <stop offset="0.204" stop-color="#960707"/>
      <stop offset="0.278" stop-color="#a00c03"/>
      <stop offset="0.58" stop-color="#d34f00"/>
      <stop offset="0.605" stop-color="#d45408"/>
      <stop offset="0.66" stop-color="#d65d17"/>
      <stop offset="0.708" stop-color="#d7611c"/>
      <stop offset="0.999" stop-color="#690703"/>
    </linearGradient>
    <linearGradient id="linear-gradient-2" x1="-8.312" y1="-38.746" x2="-7.583" y2="-37.179" gradientUnits="objectBoundingBox">
      <stop offset="0" stop-color="#b94108"/>
      <stop offset="0.58" stop-color="#f6a300"/>
      <stop offset="0.596" stop-color="#f9b329"/>
      <stop offset="0.612" stop-color="#fbc04a"/>
      <stop offset="0.627" stop-color="#fdc961"/>
      <stop offset="0.641" stop-color="#fecf70"/>
      <stop offset="0.652" stop-color="#ffd175"/>
      <stop offset="0.663" stop-color="#fecd6b"/>
      <stop offset="0.681" stop-color="#fcc352"/>
      <stop offset="0.703" stop-color="#fab329"/>
      <stop offset="0.708" stop-color="#fab020"/>
      <stop offset="0.912" stop-color="#ffc753"/>
      <stop offset="1" stop-color="#ffeb7c"/>
    </linearGradient>
    <linearGradient id="linear-gradient-3" x1="42.64" y1="-9.596" x2="42.6" y2="-10.039" xlink:href="#linear-gradient"/>
    <linearGradient id="linear-gradient-4" x1="13.162" y1="-21.554" x2="12.626" y2="-21.035" xlink:href="#linear-gradient-2"/>
    <linearGradient id="linear-gradient-5" x1="-1.079" y1="-1.736" x2="-0.205" y2="-2.281" xlink:href="#linear-gradient"/>
    <linearGradient id="linear-gradient-6" x1="5.572" y1="-1.065" x2="6.339" y2="0.031" xlink:href="#linear-gradient-2"/>
    <linearGradient id="linear-gradient-7" x1="-1.628" y1="-2.542" x2="-1.685" y2="-2.95" xlink:href="#linear-gradient"/>
    <linearGradient id="linear-gradient-8" x1="0.337" y1="-3.854" x2="-0.241" y2="-3.527" xlink:href="#linear-gradient-2"/>
    <linearGradient id="linear-gradient-9" x1="-7.016" y1="-0.197" x2="-7.696" y2="0.516" gradientUnits="objectBoundingBox">
      <stop offset="0" stop-color="#c64000"/>
      <stop offset="0.204" stop-color="#960707"/>
      <stop offset="0.278" stop-color="#a00c03"/>
      <stop offset="0.58" stop-color="#d34f00"/>
      <stop offset="0.605" stop-color="#d45408"/>
      <stop offset="0.66" stop-color="#d65d17"/>
      <stop offset="0.708" stop-color="#d7611c"/>
      <stop offset="0.999" stop-color="#9b0a05"/>
    </linearGradient>
    <linearGradient id="linear-gradient-10" x1="-0.138" y1="0.583" x2="-0.491" y2="-0.25" gradientUnits="objectBoundingBox">
      <stop offset="0" stop-color="#00688a"/>
      <stop offset="0.099" stop-color="#008a90"/>
      <stop offset="0.21" stop-color="#00a996"/>
      <stop offset="0.303" stop-color="#00bd9a"/>
      <stop offset="0.367" stop-color="#00c49c"/>
      <stop offset="0.459" stop-color="#00be9a"/>
      <stop offset="0.572" stop-color="#00af96"/>
      <stop offset="0.696" stop-color="#009690"/>
      <stop offset="0.83" stop-color="#007287"/>
      <stop offset="0.968" stop-color="#00467c"/>
      <stop offset="0.999" stop-color="#003b7a"/>
    </linearGradient>
    <linearGradient id="linear-gradient-11" x1="-0.116" y1="0.407" x2="-0.754" y2="-0.386" xlink:href="#linear-gradient-10"/>
    <linearGradient id="linear-gradient-12" x1="-2.021" y1="-2.932" x2="-2.567" y2="-2.932" gradientUnits="objectBoundingBox">
      <stop offset="0" stop-color="#1cdbcd"/>
      <stop offset="0.049" stop-color="#35e7d3"/>
      <stop offset="0.106" stop-color="#4cf1d8"/>
      <stop offset="0.169" stop-color="#5cf9dc"/>
      <stop offset="0.239" stop-color="#66fdde"/>
      <stop offset="0.332" stop-color="#69ffdf"/>
      <stop offset="0.582" stop-color="#3ee1c1"/>
      <stop offset="1" stop-color="#007488"/>
    </linearGradient>
    <linearGradient id="linear-gradient-13" x1="-0.21" y1="-0.15" x2="-0.402" y2="-0.909" gradientUnits="objectBoundingBox">
      <stop offset="0" stop-color="#1cdbcd"/>
      <stop offset="0.049" stop-color="#35e7d3"/>
      <stop offset="0.106" stop-color="#4cf1d8"/>
      <stop offset="0.169" stop-color="#5cf9dc"/>
      <stop offset="0.239" stop-color="#66fdde"/>
      <stop offset="0.332" stop-color="#69ffdf"/>
      <stop offset="0.582" stop-color="#3ee1c1"/>
      <stop offset="0.587" stop-color="#3adebf"/>
      <stop offset="0.623" stop-color="#25d0b6"/>
      <stop offset="0.666" stop-color="#14c5ae"/>
      <stop offset="0.719" stop-color="#08bda9"/>
      <stop offset="0.793" stop-color="#01b9a6"/>
      <stop offset="1" stop-color="#00b8a6"/>
    </linearGradient>
    <linearGradient id="linear-gradient-14" x1="-0.324" y1="-0.439" x2="0.591" y2="-0.478" gradientUnits="objectBoundingBox">
      <stop offset="0" stop-color="#1cdbcd"/>
      <stop offset="0.049" stop-color="#35e7d3"/>
      <stop offset="0.106" stop-color="#4cf1d8"/>
      <stop offset="0.169" stop-color="#5cf9dc"/>
      <stop offset="0.239" stop-color="#66fdde"/>
      <stop offset="0.332" stop-color="#69ffdf"/>
      <stop offset="0.582" stop-color="#3ee1c1"/>
      <stop offset="1" stop-color="#32cbbc"/>
    </linearGradient>
    <linearGradient id="linear-gradient-15" x1="0.113" y1="0.904" x2="0.691" y2="0.346" gradientUnits="objectBoundingBox">
      <stop offset="0" stop-color="#4777ff"/>
      <stop offset="0.063" stop-color="#4578ee"/>
      <stop offset="0.096" stop-color="#4f8af3"/>
      <stop offset="0.15" stop-color="#5da2f9"/>
      <stop offset="0.2" stop-color="#66b0fd"/>
      <stop offset="0.242" stop-color="#69b6ff"/>
      <stop offset="0.28" stop-color="#5fa4f8"/>
      <stop offset="0.354" stop-color="#5189ee"/>
      <stop offset="0.429" stop-color="#4675e6"/>
      <stop offset="0.505" stop-color="#4069e2"/>
      <stop offset="0.582" stop-color="#3e66e1"/>
      <stop offset="0.769" stop-color="#0c34c2"/>
      <stop offset="1" stop-color="#324fcb"/>
    </linearGradient>
    <linearGradient id="linear-gradient-16" x1="1.264" y1="16.199" x2="2.07" y2="17.024" gradientUnits="objectBoundingBox">
      <stop offset="0" stop-color="#ff3059"/>
      <stop offset="0.242" stop-color="#ff699b"/>
      <stop offset="0.582" stop-color="#e13e71"/>
      <stop offset="1" stop-color="#cb3254"/>
    </linearGradient>
    <linearGradient id="linear-gradient-17" x1="-14.164" y1="34.164" x2="-13.527" y2="35.334" xlink:href="#linear-gradient-16"/>
    <linearGradient id="linear-gradient-18" x1="8.597" y1="0.141" x2="9.058" y2="-0.622" xlink:href="#linear-gradient-15"/>
    <linearGradient id="linear-gradient-19" x1="0.055" y1="-0.116" x2="0.844" y2="0.902" gradientUnits="objectBoundingBox">
      <stop offset="0" stop-color="#212582"/>
      <stop offset="0.582" stop-color="#2c64d1"/>
      <stop offset="1" stop-color="#2c187d"/>
    </linearGradient>
    <linearGradient id="linear-gradient-20" x1="0.051" y1="0.342" x2="1.028" y2="0.859" gradientUnits="objectBoundingBox">
      <stop offset="0" stop-color="#4777ff"/>
      <stop offset="0.293" stop-color="#69b6ff"/>
      <stop offset="0.335" stop-color="#5fa4f8"/>
      <stop offset="0.417" stop-color="#5189ee"/>
      <stop offset="0.499" stop-color="#4675e6"/>
      <stop offset="0.582" stop-color="#4069e2"/>
      <stop offset="0.667" stop-color="#3e66e1"/>
      <stop offset="1" stop-color="#324fcb"/>
    </linearGradient>
    <linearGradient id="linear-gradient-21" x1="-2.686" y1="8.31" x2="-1.6" y2="9.098" gradientUnits="objectBoundingBox">
      <stop offset="0" stop-color="#b50042"/>
      <stop offset="0.367" stop-color="#de2864"/>
      <stop offset="0.547" stop-color="#d31d55"/>
      <stop offset="1" stop-color="#ba0533"/>
    </linearGradient>
    <linearGradient id="linear-gradient-22" x1="-2.053" y1="16.477" x2="-1.325" y2="17.557" gradientUnits="objectBoundingBox">
      <stop offset="0" stop-color="#ff4784"/>
      <stop offset="0.063" stop-color="#ee4583"/>
      <stop offset="0.242" stop-color="#ff699b"/>
      <stop offset="0.582" stop-color="#e13e71"/>
      <stop offset="1" stop-color="#cb3254"/>
    </linearGradient>
    <linearGradient id="linear-gradient-23" x1="0.12" y1="0.841" x2="0.856" y2="-0.012" gradientUnits="objectBoundingBox">
      <stop offset="0" stop-color="#e99200"/>
      <stop offset="0.204" stop-color="#b94108"/>
      <stop offset="0.278" stop-color="#c34c04"/>
      <stop offset="0.58" stop-color="#f6a300"/>
      <stop offset="0.596" stop-color="#f9b329"/>
      <stop offset="0.612" stop-color="#fbc04a"/>
      <stop offset="0.627" stop-color="#fdc961"/>
      <stop offset="0.641" stop-color="#fecf70"/>
      <stop offset="0.652" stop-color="#ffd175"/>
      <stop offset="0.663" stop-color="#fecd6b"/>
      <stop offset="0.681" stop-color="#fcc352"/>
      <stop offset="0.703" stop-color="#fab329"/>
      <stop offset="0.708" stop-color="#fab020"/>
      <stop offset="0.912" stop-color="#ffc753"/>
      <stop offset="1" stop-color="#ffeb7c"/>
    </linearGradient>
    <linearGradient id="linear-gradient-24" x1="2.557" y1="2.062" x2="2.07" y2="1.318" xlink:href="#linear-gradient-21"/>
    <linearGradient id="linear-gradient-25" x1="0.565" y1="1.488" x2="1.371" y2="2.305" xlink:href="#linear-gradient-22"/>
    <linearGradient id="linear-gradient-26" x1="1.352" y1="2.631" x2="2.177" y2="2.631" xlink:href="#linear-gradient-21"/>
    <linearGradient id="linear-gradient-27" x1="0.882" y1="4.404" x2="1.202" y2="5.615" xlink:href="#linear-gradient-16"/>
    <linearGradient id="linear-gradient-28" x1="70.146" y1="-8.4" x2="69.566" y2="-9.128" xlink:href="#linear-gradient-21"/>
    <linearGradient id="linear-gradient-29" x1="13.083" y1="-13.424" x2="13.878" y2="-12.531" xlink:href="#linear-gradient-22"/>
    <linearGradient id="linear-gradient-30" x1="33.221" y1="-11.446" x2="34.133" y2="-11.446" xlink:href="#linear-gradient-21"/>
    <linearGradient id="linear-gradient-31" x1="14.081" y1="-33.575" x2="14.405" y2="-32.207" xlink:href="#linear-gradient-16"/>
    <linearGradient id="linear-gradient-32" x1="0.167" y1="0.931" x2="0.903" y2="0.264" xlink:href="#linear-gradient-19"/>
    <linearGradient id="linear-gradient-33" x1="0.903" y1="0.085" x2="0.211" y2="0.825" gradientUnits="objectBoundingBox">
      <stop offset="0" stop-color="#4777ff"/>
      <stop offset="0.063" stop-color="#4578ee"/>
      <stop offset="0.096" stop-color="#4f8af3"/>
      <stop offset="0.15" stop-color="#5da2f9"/>
      <stop offset="0.2" stop-color="#66b0fd"/>
      <stop offset="0.242" stop-color="#69b6ff"/>
      <stop offset="0.28" stop-color="#5fa4f8"/>
      <stop offset="0.354" stop-color="#5189ee"/>
      <stop offset="0.429" stop-color="#4675e6"/>
      <stop offset="0.505" stop-color="#4069e2"/>
      <stop offset="0.582" stop-color="#3e66e1"/>
      <stop offset="1" stop-color="#324fcb"/>
    </linearGradient>
    <linearGradient id="linear-gradient-34" x1="0.289" y1="0.895" x2="0.999" y2="-0.138" xlink:href="#linear-gradient-33"/>
  </defs>
  <g id="グループ_738" data-name="グループ 738" transform="translate(-359.144 -118.269)">
    <g id="グループ_728" data-name="グループ 728" transform="translate(561.892 266.21)">
      <path id="パス_3273" data-name="パス 3273" d="M2074.521,1374.34c-6.086-6.249,3.1-21.228,4.606-25.461,1.536-4.3-1.576-9.829-1.576-9.829l7.748,8.653c4.016,5.41-13.072,25.619-3.854,33.3Z" transform="translate(-2025.342 -1308.956)" fill="url(#linear-gradient)"/>
      <path id="パス_3274" data-name="パス 3274" d="M2155.054,1586.042s-21.1,5.915-37.674,3.589c-15.132-2.123-22.142-7.279-23.862-8.832-2.478-2.237-6.924-6.661-6.924-6.661,3.536,3.466,16.2,8.122,31.623,6.746s30.408-7.923,30.408-7.923Z" transform="translate(-2037.415 -1508.754)" fill="url(#linear-gradient-2)"/>
      <path id="パス_3275" data-name="パス 3275" d="M1758.6,1155.925a32.25,32.25,0,0,1-7.447-11.251c-2.076-5.272-1.756-11.979-1.756-11.979l5.04.477s-1.068,16.568,4.787,22.813c.834.889,6.2,5.794,6.2,5.794Z" transform="translate(-1749.379 -1132.695)" fill="url(#linear-gradient-3)"/>
      <path id="パス_3276" data-name="パス 3276" d="M1855.595,1298.847c-2.5-3.331-10.459-3.415-17.458-2.237-8.341,1.4-20.93-.689-25.53-4.627,0,0,6.088,5.79,10.463,8.369a24.312,24.312,0,0,0,16.665,3.472c8.624-1.207,21.072.095,23.609,3.676Z" transform="translate(-1803.386 -1268.753)" fill="url(#linear-gradient-4)"/>
    </g>
    <g id="グループ_731" data-name="グループ 731" transform="translate(402.325 118.269)">
      <g id="グループ_729" data-name="グループ 729" transform="translate(0 0)">
        <path id="パス_3277" data-name="パス 3277" d="M964.865,225.9c4.228,6.35-6.074,17.754-8.053,21.15-2.013,3.454-.225,8.7-.225,8.7l-5.271-8.685c-2.584-5.3,15.357-19.926,8.666-28.01Z" transform="translate(-907.917 -204.358)" fill="url(#linear-gradient-5)"/>
        <path id="パス_3278" data-name="パス 3278" d="M655.232,118.57s19.088-1.695,32.968,2.969c12.669,4.257,17.868,9.818,19.1,11.429,1.771,2.321,4.883,6.84,4.883,6.84-2.483-3.549-12.627-9.588-26.1-10.883s-27.418,1.925-27.418,1.925Z" transform="translate(-655.232 -118.269)" fill="url(#linear-gradient-6)"/>
        <path id="パス_3279" data-name="パス 3279" d="M1205.972,522.617a28.205,28.205,0,0,1,4.595,10.87,29.535,29.535,0,0,1-.416,10.582l-4.257-1.22s3.581-14.073-.449-20.383c-.574-.9-4.4-5.978-4.4-5.978Z" transform="translate(-1121.445 -458.413)" fill="url(#linear-gradient-7)"/>
        <path id="パス_3280" data-name="パス 3280" d="M958.09,419.8c1.617,3.266,8.444,4.617,14.65,4.729,7.4.134,17.884,3.957,21.206,8.082,0,0-4.3-5.957-7.65-8.877a21.264,21.264,0,0,0-13.77-5.663c-7.608-.349-18.1-3.468-19.707-6.955Z" transform="translate(-909.42 -368.411)" fill="url(#linear-gradient-8)"/>
      </g>
      <g id="グループ_730" data-name="グループ 730" transform="translate(189.282 7.84)">
        <path id="パス_3281" data-name="パス 3281" d="M2073.626,388.189c-7.134,5.91-15.784,20.85-13.222,30.114,1.051,3.8,7.542,4.755,10.7,1.529,0,0-3.957,3.872-5.785,5.59a6.748,6.748,0,0,1-10-1.436c-4.034-5.515.139-20.03,6.43-25.955Z" transform="translate(-2039.053 -356.664)" fill="url(#linear-gradient-9)"/>
        <path id="パス_3282" data-name="パス 3282" d="M2073.626,388.189c-7.134,5.91-15.784,20.85-13.222,30.114,1.051,3.8,7.542,4.755,10.7,1.529,0,0-3.957,3.872-5.785,5.59a6.748,6.748,0,0,1-10-1.436c-4.034-5.515.139-20.03,6.43-25.955Z" transform="translate(-2039.053 -356.664)" fill="url(#linear-gradient-10)"/>
        <path id="パス_3283" data-name="パス 3283" d="M1963.408,570.888c-3.342,3.023-6.736,6.959-5.253,12.091,1.44,4.982,4.987,5.75,4.987,5.75l-10.011-.26s.334-8.277,4.514-12.264C1962.925,571.169,1963.408,570.888,1963.408,570.888Z" transform="translate(-1953.131 -512.719)" fill="url(#linear-gradient-11)"/>
        <path id="パス_3284" data-name="パス 3284" d="M2166.022,358.937c-6.037,4.11-16.375,8.314-30.757,3.359a18.276,18.276,0,0,0-14.776.953l-11.755,9.8c3.427-2.839,8.87-6.653,21.665-2.337,10.111,3.41,14.8,2.172,20.808-1.845Z" transform="translate(-2086.042 -331.678)" fill="url(#linear-gradient-12)"/>
        <path id="パス_3285" data-name="パス 3285" d="M2439.09,174.659s-13.076-3-15.151-2.6c-2.948.578-14.983,7.71-15.3,16.543-.212,5.855,1.718,13.783-8.669,20.6,0,0,11.376-7.482,15.418-10.315,4.086-2.865,3.539-6.392,3.864-11.91C2419.74,178.685,2439.09,174.659,2439.09,174.659Z" transform="translate(-2334.803 -172.026)" fill="url(#linear-gradient-13)"/>
        <path id="パス_3286" data-name="パス 3286" d="M2011.616,536.218c2.955-2.918,1.6-9.4-3-10.925-5.454-1.808-10.814-1.1-18.772,5.927-4.5,3.975-5.763,5.318-5.763,5.318,4.922-4.651,10.2-5.832,16.3-5.4,7.938.558,10.669,5.641,5.449,10.675C2005.831,541.808,2009.782,538.029,2011.616,536.218Z" transform="translate(-1979.57 -473.051)" fill="url(#linear-gradient-14)"/>
      </g>
    </g>
    <path id="パス_3287" data-name="パス 3287" d="M1780.078,254.517s4.7-2.625,6.531-10.123c1.466-6.015-.039-8.575-.039-8.575l6.247,3.852s1.9,1.92-.429,9.734c-1.989,6.668-6.607,8.184-6.607,8.184Z" transform="translate(-1213.709 -100.407)" fill="url(#linear-gradient-15)"/>
    <path id="パス_3288" data-name="パス 3288" d="M2712.82,308.7a16.385,16.385,0,0,1,3.719-5.315,9.912,9.912,0,0,1,4.878-2.246l.637-7.1s-3.978-1.182-8.606,1.941c-4.36,2.942-5.061,6.41-5.061,6.41Z" transform="translate(-2006.636 -149.942)" fill="url(#linear-gradient-16)"/>
    <path id="パス_3289" data-name="パス 3289" d="M1396.665,1542.841a16.385,16.385,0,0,1,6.488.023,9.912,9.912,0,0,1,4.627,2.726l6.2-3.53s-1.3-3.941-6.5-5.961c-4.9-1.9-8.151-.5-8.151-.5Z" transform="translate(-886.212 -1210.204)" fill="url(#linear-gradient-17)"/>
    <path id="パス_3290" data-name="パス 3290" d="M525.659,293.812s2.117,9.033,10.882,10.6c7.72,1.382,10.783,9.456,10.783,9.456l-3.754,4.069s-5.029-7.668-11.829-9.25c-8.673-2.017-9.982-8.591-9.982-8.591Z" transform="translate(-138.9 -149.942)" fill="url(#linear-gradient-18)"/>
    <g id="グループ_732" data-name="グループ 732" transform="translate(695.894 269.834)">
      <path id="パス_3291" data-name="パス 3291" d="M2673.785,1167.009l-5.558,4.691s8.174,10.5,13.067,7.355l5.994-6C2684.625,1175.655,2678.185,1175.058,2673.785,1167.009Z" transform="translate(-2668.227 -1165.629)" fill="url(#linear-gradient-19)"/>
      <path id="パス_3292" data-name="パス 3292" d="M2751.1,1170.97c4.047-3.949-1.149-8.572-1.149-8.572l3.947-4.855c2.116.722,5.561,5.062,3.2,7.428Z" transform="translate(-2738.028 -1157.543)" fill="url(#linear-gradient-20)"/>
    </g>
    <g id="グループ_733" data-name="グループ 733" transform="translate(494.378 128.17)">
      <path id="パス_3293" data-name="パス 3293" d="M1300.169,191.793l-4.236-5.634s-10.817,4.793-9.357,9.724l2.334,6.455C1287.744,199.113,1291.248,193.93,1300.169,191.793Z" transform="translate(-1286.441 -186.159)" fill="url(#linear-gradient-21)"/>
      <path id="パス_3294" data-name="パス 3294" d="M1287.37,252.835c1.587,4.39,8.88,1.516,8.88,1.516l3.961,4.882s-5.6,3.013-10.508.058Z" transform="translate(-1287.234 -243.111)" fill="url(#linear-gradient-22)"/>
    </g>
    <path id="パス_3295" data-name="パス 3295" d="M601.874,1085.949a16.877,16.877,0,0,1,2.846-13.051c4.847-6.463,9.845-6.2,9.845-6.2l2.879,4.479s-4.533-.318-7.4,5.144c-2.319,4.414-1.556,7.761-1.556,7.761Z" transform="translate(-207.067 -810.115)" fill="url(#linear-gradient-23)"/>
    <g id="グループ_737" data-name="グループ 737" transform="translate(359.144 202.419)">
      <g id="グループ_734" data-name="グループ 734" transform="translate(247.711 25.667)">
        <path id="パス_3296" data-name="パス 3296" d="M2490.559,891.375c-7.929,5.3-1.817,24.145-1.236,29.19.591,5.13-4.021,10.4-4.021,10.4l10.261-7.515c5.541-4.912-7.671-31.551,3.909-37.616Z" transform="translate(-2422.94 -883.713)" fill="url(#linear-gradient-24)"/>
        <path id="パス_3297" data-name="パス 3297" d="M2589.235,894.731s-14.157-12.5-31-19.654c-15.374-6.527-25.781-2.941-27.971-1.678-3.155,1.82-8.913,5.538-8.913,5.538,4.568-2.9,19.2-4.951,32.966,5.155a167.309,167.309,0,0,1,24.991,23.365Z" transform="translate(-2453.731 -871.275)" fill="url(#linear-gradient-25)"/>
        <path id="パス_3298" data-name="パス 3298" d="M2072.982,1143.551A35.086,35.086,0,0,0,2062.417,1154c-3.458,5.262-4.728,12.721-4.728,12.721l5.44.778s2.844-18.5,10.526-23.852c1.095-.763,7.941-4.77,7.941-4.77Z" transform="translate(-2057.689 -1099.851)" fill="url(#linear-gradient-26)"/>
        <path id="パス_3299" data-name="パス 3299" d="M2209.623,1127.733c-3.444,3.016-11.87,1.054-18.983-2.049-8.477-3.7-22.281-4.648-28.086-1.505,0,0,7.821-4.8,13.062-6.5,9.114-2.967,15.344-.761,18.441.486,8.823,3.554,22.288,5.338,25.827,2.055Z" transform="translate(-2147.261 -1080.479)" fill="url(#linear-gradient-27)"/>
      </g>
      <g id="グループ_735" data-name="グループ 735" transform="translate(51.233 63.401)">
        <path id="パス_3300" data-name="パス 3300" d="M1132.538,1340.337c7.482-5.914-.109-24.214-1.089-29.2-1-5.067,3.182-10.689,3.182-10.689l-9.631,8.307c-5.132,5.338,10.156,30.842-.906,37.808Z" transform="translate(-1063.612 -1275.596)" fill="url(#linear-gradient-28)"/>
        <path id="パス_3301" data-name="パス 3301" d="M710.45,1424.079s15.107,11.338,32.466,17.127c15.844,5.284,25.934.881,28.016-.552,3-2.065,8.445-6.229,8.445-6.229-4.323,3.253-18.75,6.462-33.271-2.518a167.3,167.3,0,0,1-26.769-21.3Z" transform="translate(-710.45 -1369.684)" fill="url(#linear-gradient-29)"/>
        <path id="パス_3302" data-name="パス 3302" d="M1472.965,1154.675a35.084,35.084,0,0,0,9.7-11.257c3.029-5.52,3.7-13.056,3.7-13.056l-5.485-.343s-1.364,18.664-8.6,24.613c-1.03.847-7.537,5.386-7.537,5.386Z" transform="translate(-1354.745 -1130.019)" fill="url(#linear-gradient-30)"/>
        <path id="パス_3303" data-name="パス 3303" d="M1141.01,1288.951c3.193-3.281,11.749-1.995,19.086.533,8.744,3.012,22.58,2.861,28.116-.733,0,0-7.415,5.4-12.5,7.52-8.849,3.682-15.235,1.979-18.421.982-9.078-2.842-22.642-3.549-25.909,0Z" transform="translate(-1069.992 -1264.096)" fill="url(#linear-gradient-31)"/>
      </g>
      <g id="グループ_736" data-name="グループ 736" transform="translate(0 0)">
        <path id="パス_3304" data-name="パス 3304" d="M935.844,769.286c3.83,4.835,1.5,15.336-3.592,21.2s-13.517,6.216-15.966,3.768l-5.933-4.913s9.595,5.678,17.082-4.175c8.509-11.2,5.4-19.729.521-25.979Z" transform="translate(-829.966 -749.863)" fill="url(#linear-gradient-32)"/>
        <path id="パス_3305" data-name="パス 3305" d="M359.144,730.2s15.226-.989,34.337-15.494,31.547-19.786,42.249-19.4,17.05,4.112,21.4,9.3l7.889,10.1c-4.336-6.079-12.755-11.174-25.9-10.923-12.995.248-26.592,9.083-37.445,19.44-12.614,12.038-36.612,24.748-36.612,24.748Z" transform="translate(-359.144 -695.279)" fill="url(#linear-gradient-33)"/>
        <path id="パス_3306" data-name="パス 3306" d="M898.035,870.738c-4.459-3.542-1.456-11.181,5.519-14.493,11.164-5.3,24.884,1.267,39.852,20.857,6.857,8.975,11.407,12.555,11.407,12.555l-5.946,1.259s2.189,1.891-12.6-15.559c-6.976-8.235-19.055-15.635-29.5-11.087-3.95,1.72-5.479,7.284-2.8,11.381Z" transform="translate(-817.648 -831.265)" fill="url(#linear-gradient-34)"/>
      </g>
    </g>
  </g>
</svg>
