<svg xmlns="http://www.w3.org/2000/svg" width="400.304" height="172.423" viewBox="0 0 400.304 172.423">
  <g id="グループ_823" data-name="グループ 823" transform="translate(-11249.631 -20446.795) rotate(180)">
    <g id="グループ_578" data-name="グループ 578" transform="translate(-11249.631 -20510.246) rotate(180)">
      <path id="パス_1335" data-name="パス 1335" d="M73.014,70.709H68.779L0,0H4.23Z" fill="#eb179e"/>
      <path id="パス_1336" data-name="パス 1336" d="M73.015,70.709H68.779L0,0H4.23Z" transform="translate(8.963)" fill="#eb179e"/>
      <path id="パス_1337" data-name="パス 1337" d="M73.014,70.709H68.778L0,0H4.229Z" transform="translate(17.927)" fill="#eb179e"/>
      <path id="パス_1338" data-name="パス 1338" d="M73.014,70.709H68.779L0,0H4.23Z" transform="translate(26.889)" fill="#eb179e"/>
      <path id="パス_1339" data-name="パス 1339" d="M73.015,70.709H68.779L0,0H4.23Z" transform="translate(35.852)" fill="#eb179e"/>
      <path id="パス_1340" data-name="パス 1340" d="M73.015,70.709H68.779L0,0H4.23Z" transform="translate(44.815)" fill="#eb179e"/>
      <path id="パス_1341" data-name="パス 1341" d="M73.014,70.709H68.779L0,0H4.23Z" transform="translate(53.779)" fill="#eb179e"/>
      <path id="パス_1342" data-name="パス 1342" d="M73.014,70.709H68.779L0,0H4.23Z" transform="translate(62.742)" fill="#eb179e"/>
      <path id="パス_1343" data-name="パス 1343" d="M73.015,70.709H68.779L0,0H4.23Z" transform="translate(71.705)" fill="#eb179e"/>
      <path id="パス_1344" data-name="パス 1344" d="M73.014,70.709H68.778L0,0H4.229Z" transform="translate(80.668)" fill="#eb179e"/>
      <path id="パス_1345" data-name="パス 1345" d="M73.014,70.709H68.779L0,0H4.23Z" transform="translate(89.631)" fill="#eb179e"/>
      <path id="パス_1346" data-name="パス 1346" d="M73.014,70.709H68.779L0,0H4.23Z" transform="translate(98.594)" fill="#eb179e"/>
      <path id="パス_1347" data-name="パス 1347" d="M73.015,70.709H68.779L0,0H4.23Z" transform="translate(107.557)" fill="#eb179e"/>
      <path id="パス_1348" data-name="パス 1348" d="M73.014,70.709H68.779L0,0H4.229Z" transform="translate(116.521)" fill="#eb179e"/>
      <path id="パス_1349" data-name="パス 1349" d="M73.014,70.709H68.779L0,0H4.23Z" transform="translate(125.484)" fill="#eb179e"/>
      <path id="パス_1350" data-name="パス 1350" d="M73.015,70.709H68.779L0,0H4.23Z" transform="translate(134.447)" fill="#eb179e"/>
      <path id="パス_1351" data-name="パス 1351" d="M73.014,70.709H68.778L0,0H4.229Z" transform="translate(143.41)" fill="#eb179e"/>
      <path id="パス_1352" data-name="パス 1352" d="M73.014,70.709H68.779L0,0H4.23Z" transform="translate(152.373)" fill="#eb179e"/>
      <path id="パス_1353" data-name="パス 1353" d="M73.014,70.709H68.779L0,0H4.23Z" transform="translate(161.336)" fill="#eb179e"/>
      <path id="パス_1354" data-name="パス 1354" d="M73.015,70.709H68.779L0,0H4.23Z" transform="translate(170.299)" fill="#eb179e"/>
    </g>
    <g id="グループ_579" data-name="グループ 579" transform="translate(-11359.422 -20545.6) rotate(180)">
      <path id="パス_1355" data-name="パス 1355" d="M73.014,70.715H68.778L0,0H4.229Z" fill="#3ade79"/>
      <path id="パス_1356" data-name="パス 1356" d="M73.014,70.715H68.779L0,0H4.23Z" transform="translate(8.963)" fill="#3ade79"/>
      <path id="パス_1357" data-name="パス 1357" d="M73.014,70.715H68.779L0,0H4.23Z" transform="translate(17.926)" fill="#3ade79"/>
      <path id="パス_1358" data-name="パス 1358" d="M73.015,70.715H68.779L0,0H4.23Z" transform="translate(26.889)" fill="#3ade79"/>
      <path id="パス_1359" data-name="パス 1359" d="M73.014,70.715H68.778L0,0H4.229Z" transform="translate(35.852)" fill="#3ade79"/>
      <path id="パス_1360" data-name="パス 1360" d="M73.014,70.715H68.779L0,0H4.23Z" transform="translate(44.815)" fill="#3ade79"/>
      <path id="パス_1361" data-name="パス 1361" d="M73.015,70.715H68.779L0,0H4.23Z" transform="translate(53.778)" fill="#3ade79"/>
      <path id="パス_1362" data-name="パス 1362" d="M73.014,70.715H68.778L0,0H4.229Z" transform="translate(62.742)" fill="#3ade79"/>
      <path id="パス_1363" data-name="パス 1363" d="M73.014,70.715H68.779L0,0H4.23Z" transform="translate(71.705)" fill="#3ade79"/>
      <path id="パス_1364" data-name="パス 1364" d="M73.014,70.715H68.779L0,0H4.23Z" transform="translate(80.668)" fill="#3ade79"/>
      <path id="パス_1365" data-name="パス 1365" d="M73.015,70.715H68.779L0,0H4.23Z" transform="translate(89.631)" fill="#3ade79"/>
      <path id="パス_1366" data-name="パス 1366" d="M73.014,70.715H68.778L0,0H4.229Z" transform="translate(98.594)" fill="#3ade79"/>
      <path id="パス_1367" data-name="パス 1367" d="M73.014,70.715H68.779L0,0H4.23Z" transform="translate(107.557)" fill="#3ade79"/>
      <path id="パス_1368" data-name="パス 1368" d="M73.015,70.715H68.779L0,0H4.23Z" transform="translate(116.52)" fill="#3ade79"/>
      <path id="パス_1369" data-name="パス 1369" d="M73.015,70.715H68.779L0,0H4.23Z" transform="translate(125.483)" fill="#3ade79"/>
      <path id="パス_1370" data-name="パス 1370" d="M73.014,70.715H68.779L0,0H4.23Z" transform="translate(134.447)" fill="#3ade79"/>
      <path id="パス_1371" data-name="パス 1371" d="M73.014,70.715H68.779L0,0H4.23Z" transform="translate(143.41)" fill="#3ade79"/>
      <path id="パス_1372" data-name="パス 1372" d="M73.015,70.715H68.779L0,0H4.23Z" transform="translate(152.373)" fill="#3ade79"/>
      <path id="パス_1373" data-name="パス 1373" d="M73.014,70.715H68.778L0,0H4.229Z" transform="translate(161.336)" fill="#3ade79"/>
      <path id="パス_1374" data-name="パス 1374" d="M73.014,70.715H68.779L0,0H4.23Z" transform="translate(170.299)" fill="#3ade79"/>
    </g>
    <path id="パス_1398" data-name="パス 1398" d="M65.576,65.576H0V0Z" transform="translate(-11338.5 -20467.43) rotate(180)" fill="#3ade79"/>
    <g id="グループ_583" data-name="グループ 583" transform="translate(-11371.288 -20446.795) rotate(180)">
      <rect id="長方形_1532" data-name="長方形 1532" width="46.663" height="17.684" transform="translate(147.55 68.766)" fill="#db08ea"/>
      <path id="パス_1417" data-name="パス 1417" d="M0,0H86.456V86.465Z" transform="translate(147.55 85.958)" fill="#804bee"/>
      <path id="パス_1418" data-name="パス 1418" d="M0,0H43.227V43.239Z" transform="translate(190.78 85.958)" fill="#231f20"/>
      <path id="パス_1419" data-name="パス 1419" d="M0,0H86.456V86.465Z" transform="translate(0 85.958)" fill="#f1bc66"/>
      <path id="パス_1427" data-name="パス 1427" d="M0,0H36.495V36.5Z" transform="translate(242.152 86.352)" fill="#c55bd1"/>
      <path id="パス_1428" data-name="パス 1428" d="M0,0H38.806l82.565,86.444h-38.8Z" transform="translate(112.654 0)" fill="#1084e4"/>
    </g>
  </g>
</svg>
