<svg xmlns="http://www.w3.org/2000/svg" width="156.82" height="364.078" viewBox="0 0 156.82 364.078">
  <g id="グループ_588" data-name="グループ 588" transform="translate(20619.218 -11285.856) rotate(-90)">
    <g id="グループ_578" data-name="グループ 578" transform="translate(-11285.856 -20520.107) rotate(180)">
      <path id="パス_1335" data-name="パス 1335" d="M66.407,64.31H62.555L0,0H3.847Z" fill="#eb179e"/>
      <path id="パス_1336" data-name="パス 1336" d="M66.407,64.31H62.555L0,0H3.847Z" transform="translate(8.152)" fill="#eb179e"/>
      <path id="パス_1337" data-name="パス 1337" d="M66.407,64.31H62.554L0,0H3.846Z" transform="translate(16.304)" fill="#eb179e"/>
      <path id="パス_1338" data-name="パス 1338" d="M66.407,64.31H62.555L0,0H3.847Z" transform="translate(24.456)" fill="#eb179e"/>
      <path id="パス_1339" data-name="パス 1339" d="M66.407,64.31H62.555L0,0H3.847Z" transform="translate(32.608)" fill="#eb179e"/>
      <path id="パス_1340" data-name="パス 1340" d="M66.407,64.31H62.555L0,0H3.847Z" transform="translate(40.76)" fill="#eb179e"/>
      <path id="パス_1341" data-name="パス 1341" d="M66.407,64.31H62.555L0,0H3.847Z" transform="translate(48.912)" fill="#eb179e"/>
      <path id="パス_1342" data-name="パス 1342" d="M66.407,64.31H62.555L0,0H3.847Z" transform="translate(57.064)" fill="#eb179e"/>
      <path id="パス_1343" data-name="パス 1343" d="M66.407,64.31H62.555L0,0H3.847Z" transform="translate(65.216)" fill="#eb179e"/>
      <path id="パス_1344" data-name="パス 1344" d="M66.407,64.31H62.554L0,0H3.846Z" transform="translate(73.368)" fill="#eb179e"/>
      <path id="パス_1345" data-name="パス 1345" d="M66.407,64.31H62.555L0,0H3.847Z" transform="translate(81.52)" fill="#eb179e"/>
      <path id="パス_1346" data-name="パス 1346" d="M66.407,64.31H62.555L0,0H3.847Z" transform="translate(89.672)" fill="#eb179e"/>
      <path id="パス_1347" data-name="パス 1347" d="M66.407,64.31H62.555L0,0H3.847Z" transform="translate(97.824)" fill="#eb179e"/>
      <path id="パス_1348" data-name="パス 1348" d="M66.407,64.31H62.555L0,0H3.846Z" transform="translate(105.976)" fill="#eb179e"/>
      <path id="パス_1349" data-name="パス 1349" d="M66.407,64.31H62.555L0,0H3.847Z" transform="translate(114.128)" fill="#eb179e"/>
      <path id="パス_1350" data-name="パス 1350" d="M66.407,64.31H62.555L0,0H3.847Z" transform="translate(122.28)" fill="#eb179e"/>
      <path id="パス_1351" data-name="パス 1351" d="M66.407,64.31H62.554L0,0H3.846Z" transform="translate(130.432)" fill="#eb179e"/>
      <path id="パス_1352" data-name="パス 1352" d="M66.407,64.31H62.555L0,0H3.847Z" transform="translate(138.584)" fill="#eb179e"/>
      <path id="パス_1353" data-name="パス 1353" d="M66.407,64.31H62.555L0,0H3.847Z" transform="translate(146.736)" fill="#eb179e"/>
      <path id="パス_1354" data-name="パス 1354" d="M66.407,64.31H62.555L0,0H3.847Z" transform="translate(154.888)" fill="#eb179e"/>
    </g>
    <g id="グループ_579" data-name="グループ 579" transform="translate(-11385.711 -20552.26) rotate(180)">
      <path id="パス_1355" data-name="パス 1355" d="M66.407,64.316H62.554L0,0H3.846Z" fill="#3ade79"/>
      <path id="パス_1356" data-name="パス 1356" d="M66.407,64.316H62.555L0,0H3.847Z" transform="translate(8.152)" fill="#3ade79"/>
      <path id="パス_1357" data-name="パス 1357" d="M66.407,64.316H62.555L0,0H3.847Z" transform="translate(16.304)" fill="#3ade79"/>
      <path id="パス_1358" data-name="パス 1358" d="M66.407,64.316H62.555L0,0H3.847Z" transform="translate(24.456)" fill="#3ade79"/>
      <path id="パス_1359" data-name="パス 1359" d="M66.407,64.316H62.554L0,0H3.846Z" transform="translate(32.608)" fill="#3ade79"/>
      <path id="パス_1360" data-name="パス 1360" d="M66.407,64.316H62.555L0,0H3.847Z" transform="translate(40.76)" fill="#3ade79"/>
      <path id="パス_1361" data-name="パス 1361" d="M66.407,64.316H62.555L0,0H3.847Z" transform="translate(48.912)" fill="#3ade79"/>
      <path id="パス_1362" data-name="パス 1362" d="M66.407,64.316H62.554L0,0H3.846Z" transform="translate(57.064)" fill="#3ade79"/>
      <path id="パス_1363" data-name="パス 1363" d="M66.407,64.316H62.555L0,0H3.847Z" transform="translate(65.216)" fill="#3ade79"/>
      <path id="パス_1364" data-name="パス 1364" d="M66.407,64.316H62.555L0,0H3.847Z" transform="translate(73.368)" fill="#3ade79"/>
      <path id="パス_1365" data-name="パス 1365" d="M66.407,64.316H62.555L0,0H3.847Z" transform="translate(81.52)" fill="#3ade79"/>
      <path id="パス_1366" data-name="パス 1366" d="M66.407,64.316H62.554L0,0H3.846Z" transform="translate(89.672)" fill="#3ade79"/>
      <path id="パス_1367" data-name="パス 1367" d="M66.407,64.316H62.555L0,0H3.847Z" transform="translate(97.824)" fill="#3ade79"/>
      <path id="パス_1368" data-name="パス 1368" d="M66.407,64.316H62.555L0,0H3.847Z" transform="translate(105.976)" fill="#3ade79"/>
      <path id="パス_1369" data-name="パス 1369" d="M66.407,64.316H62.555L0,0H3.847Z" transform="translate(114.128)" fill="#3ade79"/>
      <path id="パス_1370" data-name="パス 1370" d="M66.407,64.316H62.555L0,0H3.847Z" transform="translate(122.28)" fill="#3ade79"/>
      <path id="パス_1371" data-name="パス 1371" d="M66.407,64.316H62.555L0,0H3.847Z" transform="translate(130.432)" fill="#3ade79"/>
      <path id="パス_1372" data-name="パス 1372" d="M66.407,64.316H62.555L0,0H3.847Z" transform="translate(138.584)" fill="#3ade79"/>
      <path id="パス_1373" data-name="パス 1373" d="M66.407,64.316H62.554L0,0H3.846Z" transform="translate(146.736)" fill="#3ade79"/>
      <path id="パス_1374" data-name="パス 1374" d="M66.407,64.316H62.555L0,0H3.847Z" transform="translate(154.888)" fill="#3ade79"/>
    </g>
    <path id="パス_1398" data-name="パス 1398" d="M59.642,59.642H0V0Z" transform="translate(-11366.684 -20481.166) rotate(180)" fill="#3ade79"/>
    <g id="グループ_583" data-name="グループ 583" transform="translate(-11396.504 -20462.398) rotate(180)">
      <rect id="長方形_1532" data-name="長方形 1532" width="42.44" height="16.083" transform="translate(134.197 62.543)" fill="#db08ea"/>
      <path id="パス_1417" data-name="パス 1417" d="M0,0H78.632V78.64Z" transform="translate(134.197 78.179)" fill="#804bee"/>
      <path id="パス_1418" data-name="パス 1418" d="M0,0H39.315V39.326Z" transform="translate(173.515 78.179)" fill="#231f20"/>
      <path id="パス_1419" data-name="パス 1419" d="M0,0H78.632V78.64Z" transform="translate(0 78.179)" fill="#f1bc66"/>
      <path id="パス_1427" data-name="パス 1427" d="M0,0H33.192V33.193Z" transform="translate(220.238 78.537)" fill="#c55bd1"/>
      <path id="パス_1428" data-name="パス 1428" d="M0,0H35.294l75.093,78.621H75.1Z" transform="translate(102.459 0)" fill="#1084e4"/>
    </g>
  </g>
</svg>
